<svg width="76" height="76" viewBox="0 0 76 76" fill="none" xmlns="http://www.w3.org/2000/svg">
    <g clip-path="url(#clip0_3031_3946)">
        <path d="M71.4347 22.3101C71.4247 22.3098 71.4151 22.3086 71.4051 22.3086H36.6973V74.5541C36.9086 74.5541 37.0995 74.4375 37.2064 74.2552C37.8513 73.1563 39.0445 72.4185 40.4107 72.4185H71.4051C71.4151 72.4185 71.4247 72.4173 71.4347 72.417V22.3101Z" fill="#C80000"/>
        <path d="M71.4048 22.3086H65.0156C65.2434 22.3086 65.4618 22.3991 65.6229 22.5601C65.7839 22.7212 65.8744 22.9396 65.8744 23.1674V71.5597C65.8744 71.6725 65.8522 71.7842 65.8091 71.8884C65.7659 71.9926 65.7027 72.0873 65.6229 72.167C65.5432 72.2468 65.4485 72.31 65.3443 72.3532C65.2401 72.3963 65.1284 72.4185 65.0156 72.4185H71.4048C71.6326 72.4185 71.851 72.328 72.0121 72.167C72.1731 72.0059 72.2636 71.7875 72.2636 71.5597V23.1674C72.2636 22.9396 72.1731 22.7212 72.012 22.5602C71.851 22.3991 71.6326 22.3086 71.4048 22.3086Z" fill="#6E2727"/>
        <path d="M66.2506 19.4688H38.8442C37.6585 19.4688 36.6973 20.43 36.6973 21.6157V67.8068H37.0454C37.4285 67.2191 38.0904 66.8298 38.8442 66.8298H66.2506V19.4688Z" fill="#D5E3F4"/>
        <path d="M36.6954 74.5541V22.3086H1.9877C1.75993 22.3086 1.54149 22.3991 1.38044 22.5601C1.21939 22.7212 1.12891 22.9396 1.12891 23.1674V71.5596C1.12891 71.7873 1.21939 72.0058 1.38044 72.1668C1.54149 72.3279 1.75993 72.4184 1.9877 72.4184H32.982C34.3482 72.4184 35.5414 73.1563 36.1863 74.2551C36.2932 74.4375 36.4841 74.5541 36.6954 74.5541Z" fill="#6E2727"/>
        <path d="M59.6712 62.3596H44.5647C44.4115 62.3596 44.2599 62.3294 44.1184 62.2708C43.9769 62.2122 43.8483 62.1263 43.74 62.018C43.6317 61.9097 43.5458 61.7811 43.4872 61.6396C43.4286 61.4981 43.3984 61.3465 43.3984 61.1933V49.8635C43.3984 49.5542 43.5213 49.2576 43.74 49.0389C43.9587 48.8201 44.2554 48.6973 44.5647 48.6973H59.6712C59.9805 48.6973 60.2771 48.8201 60.4958 49.0389C60.7145 49.2576 60.8374 49.5542 60.8374 49.8635V61.1933C60.8374 61.3465 60.8073 61.4982 60.7487 61.6397C60.6901 61.7812 60.6042 61.9097 60.4959 62.018C60.3876 62.1263 60.259 62.2122 60.1175 62.2708C59.976 62.3294 59.8243 62.3596 59.6712 62.3596Z" fill="#F47C7C"/>
        <path d="M36.3488 67.8068H36.6969V21.6157C36.6969 20.43 35.7357 19.4688 34.55 19.4688H6.85541C6.72384 19.4688 6.59356 19.4947 6.472 19.545C6.35045 19.5954 6.24 19.6692 6.14696 19.7622C6.05393 19.8552 5.98013 19.9657 5.92978 20.0872C5.87943 20.2088 5.85352 20.3391 5.85352 20.4706V65.8279C5.85352 66.0936 5.95907 66.3485 6.14696 66.5364C6.33486 66.7243 6.58969 66.8298 6.85541 66.8298H34.5502C35.3039 66.8298 35.9659 67.2192 36.3488 67.8068Z" fill="#B3DAFE"/>
        <path d="M23.4375 44.0039V52.3347L28.3852 48.8504C28.8564 48.5185 28.8564 47.82 28.3852 47.4882L23.4375 44.0039Z" fill="#E5EEF9"/>
        <path d="M66.5371 19.4688H61.4258C61.6915 19.4688 61.9463 19.5743 62.1342 19.7622C62.3221 19.9501 62.4277 20.2049 62.4277 20.4706V65.8279C62.4277 66.0936 62.3221 66.3485 62.1342 66.5364C61.9463 66.7243 61.6915 66.8298 61.4258 66.8298H66.5371C66.8028 66.8298 67.0577 66.7243 67.2455 66.5364C67.4334 66.3485 67.539 66.0936 67.539 65.8279V20.4706C67.539 20.2049 67.4334 19.9501 67.2455 19.7622C67.0577 19.5743 66.8028 19.4687 66.5371 19.4688Z" fill="#B3DAFE"/>
        <path d="M54.2398 31.1552H62.634C63.1812 29.5272 64.0872 28.0429 65.2851 26.812C67.0472 25.0006 68.0972 22.4931 67.9803 19.74C67.7709 14.8073 63.7457 10.7996 58.8121 10.6107C53.3657 10.4022 48.8848 14.7557 48.8848 20.1556C48.8848 22.7452 49.916 25.0928 51.5898 26.8128C52.7872 28.0433 53.6928 29.5271 54.2397 31.1546L54.2398 31.1552Z" fill="#FDB97E"/>
        <path d="M54.2402 31.1562H62.6344V34.5937C62.6344 36.9117 60.7554 38.7908 58.4373 38.7908C56.1193 38.7908 54.2402 36.9117 54.2402 34.5937V31.1562Z" fill="#678D98"/>
        <path d="M67.9807 19.742C67.7713 14.8094 63.7461 10.8016 58.8125 10.6127C57.9693 10.5799 57.1255 10.6583 56.3027 10.8459C60.4066 11.7886 63.5373 15.4076 63.7212 19.742C63.8381 22.4951 62.7882 25.0025 61.026 26.8141C59.8281 28.0449 58.9221 29.5292 58.3749 31.1573H62.6344C63.1816 29.5292 64.0876 28.045 65.2855 26.8141C67.0476 25.0025 68.0976 22.4951 67.9807 19.742Z" fill="#FEA95C"/>
        <path d="M58.374 31.1562V34.5937C58.374 36.1339 57.5437 37.4798 56.3066 38.2099C56.9516 38.5911 57.6872 38.7917 58.4364 38.7908C60.7544 38.7908 62.6335 36.9117 62.6335 34.5937V31.1562H58.374Z" fill="#537983"/>
        <path d="M23.4375 44.0039V52.3347L28.3852 48.8504C28.8564 48.5185 28.8564 47.82 28.3852 47.4882L23.4375 44.0039Z" fill="#F9C6C6"/>
        <path d="M28.3852 48.8504C28.8564 48.5185 28.8564 47.82 28.3852 47.4882L23.4375 44.0039V47.8374L26.6306 50.0859L28.3852 48.8504Z" fill="#F9B1B1"/>
        <path d="M2.46191 43.998C2.10839 43.9981 1.76935 44.1385 1.51938 44.3885C1.2694 44.6385 1.12895 44.9775 1.12891 45.331V49.171C1.12895 48.8175 1.2694 48.4784 1.51938 48.2284C1.76935 47.9785 2.10839 47.838 2.46191 47.838H7.77417V43.998H2.46191Z" fill="#E94444"/>
        <path d="M7.77539 44.8555H23.4373V52.3344H7.77539V44.8555Z" fill="#D83131"/>
        <path d="M1.12891 46.1883V51.0014C1.12895 51.3549 1.2694 51.6939 1.51938 51.9439C1.76935 52.1939 2.10839 52.3343 2.46191 52.3344H7.77417V44.8555H2.46191C2.28686 44.8554 2.11353 44.8899 1.9518 44.9569C1.79007 45.0239 1.64312 45.122 1.51934 45.2458C1.39556 45.3696 1.29737 45.5165 1.23038 45.6782C1.16339 45.8399 1.12891 46.0133 1.12891 46.1883Z" fill="#F47C7C"/>
        <path d="M7.77539 44.0039H23.4373V47.8374H7.77539V44.0039Z" fill="#CA2C2C"/>
        <path d="M1.12891 45.3369V49.1707C1.12895 48.8171 1.2694 48.4781 1.51938 48.2281C1.76935 47.9782 2.10839 47.8377 2.46191 47.8377H7.77417V44.0039H2.46191C2.10839 44.0039 1.76935 44.1444 1.51938 44.3944C1.2694 44.6444 1.12895 44.9834 1.12891 45.3369Z" fill="#EE6161"/>
        <path d="M43.1477 44.5119H61.0866C61.4181 44.5119 61.7359 44.3803 61.9702 44.1459C62.2046 43.9116 62.3363 43.5937 62.3363 43.2623C62.3363 42.9309 62.2046 42.613 61.9702 42.3787C61.7359 42.1443 61.4181 42.0127 61.0866 42.0127H43.1477C42.8163 42.0127 42.4985 42.1443 42.2641 42.3787C42.0298 42.613 41.8981 42.9308 41.8981 43.2622C41.8981 43.4263 41.9304 43.5889 41.9932 43.7405C42.056 43.8921 42.148 44.0299 42.264 44.1459C42.3801 44.262 42.5178 44.354 42.6695 44.4168C42.8211 44.4796 42.9836 44.512 43.1477 44.5119ZM59.6705 47.5673H44.5638C43.2977 47.5673 42.2678 48.5974 42.2678 49.8635V61.1933C42.2678 62.4595 43.2977 63.4894 44.5638 63.4894H59.6703C60.9365 63.4894 61.9664 62.4595 61.9664 61.1933V49.8635C61.9665 48.5974 60.9364 47.5673 59.6705 47.5673ZM59.7069 61.1933C59.7069 61.1981 59.706 61.2029 59.7042 61.2073C59.7023 61.2117 59.6996 61.2157 59.6963 61.2191C59.6929 61.2225 59.6889 61.2252 59.6844 61.227C59.68 61.2289 59.6753 61.2298 59.6705 61.2298H44.5638C44.5591 61.2298 44.5543 61.2289 44.5499 61.227C44.5455 61.2252 44.5415 61.2225 44.5381 61.2191C44.5347 61.2157 44.532 61.2117 44.5302 61.2073C44.5283 61.2029 44.5274 61.1981 44.5274 61.1933V49.8635C44.5274 49.8433 44.5438 49.8269 44.5638 49.8269H59.6703C59.6904 49.8269 59.7068 49.8433 59.7068 49.8635L59.7069 61.1933ZM58.4357 5.90885C58.7353 5.90885 59.0227 5.78982 59.2346 5.57794C59.4465 5.36607 59.5655 5.0787 59.5655 4.77906V1.4501C59.5655 1.15046 59.4465 0.863097 59.2346 0.65122C59.0227 0.439344 58.7353 0.320313 58.4357 0.320312C58.1361 0.320313 57.8487 0.439344 57.6368 0.65122C57.4249 0.863097 57.3059 1.15046 57.3059 1.4501V4.77891C57.3059 4.92729 57.3351 5.07422 57.3919 5.21131C57.4486 5.3484 57.5318 5.47296 57.6368 5.57789C57.7417 5.68282 57.8662 5.76605 58.0033 5.82284C58.1404 5.87962 58.2873 5.90885 58.4357 5.90885ZM49.8251 7.79394C50.0456 8.01448 50.3348 8.12489 50.6239 8.12489C50.913 8.12489 51.2022 8.01463 51.4227 7.79394C51.6346 7.58207 51.7536 7.29472 51.7536 6.99511C51.7536 6.69549 51.6346 6.40814 51.4227 6.19627L49.069 3.84239C48.8571 3.63054 48.5698 3.51153 48.2702 3.51153C47.9705 3.51153 47.6832 3.63054 47.4713 3.84239C47.2595 4.05427 47.1405 4.34161 47.1405 4.64123C47.1405 4.94084 47.2595 5.22819 47.4713 5.44006L49.8251 7.79394ZM66.2475 8.12489C66.3959 8.1251 66.5429 8.09596 66.68 8.03916C66.8171 7.98237 66.9416 7.89903 67.0463 7.79394L69.4001 5.44022C69.6119 5.22834 69.7309 4.941 69.7309 4.64138C69.7309 4.34176 69.6119 4.05442 69.4001 3.84254C69.1882 3.63069 68.9009 3.51168 68.6012 3.51168C68.3016 3.51168 68.0143 3.63069 67.8024 3.84254L65.4485 6.19627C65.2905 6.35428 65.1829 6.5556 65.1394 6.77476C65.0958 6.99392 65.1182 7.22108 65.2037 7.42751C65.2892 7.63395 65.434 7.81039 65.6198 7.93453C65.8056 8.05866 66.0241 8.12491 66.2475 8.12489ZM74.8693 12.4464H71.5405C71.2409 12.4464 70.9535 12.5654 70.7416 12.7773C70.5297 12.9892 70.4107 13.2766 70.4107 13.5762C70.4107 13.8758 70.5297 14.1632 70.7416 14.3751C70.9535 14.587 71.2409 14.706 71.5405 14.706H74.8693C75.1689 14.706 75.4563 14.587 75.6682 14.3751C75.8801 14.1632 75.9991 13.8758 75.9991 13.5762C75.9991 13.2766 75.8801 12.9892 75.6682 12.7773C75.4563 12.5654 75.1689 12.4464 74.8693 12.4464ZM42.0019 14.706H45.3307C45.6304 14.706 45.9178 14.587 46.1296 14.3751C46.3415 14.1632 46.4605 13.8758 46.4605 13.5762C46.4605 13.2766 46.3415 12.9892 46.1296 12.7773C45.9178 12.5654 45.6304 12.4464 45.3307 12.4464H42.0019C41.7023 12.4464 41.4149 12.5654 41.2031 12.7773C40.9912 12.9892 40.8722 13.2766 40.8722 13.5762C40.8722 13.8758 40.9912 14.1632 41.2031 14.3751C41.4149 14.587 41.7023 14.706 42.0019 14.706ZM12.3043 27.5092H30.2432C30.5747 27.5092 30.8925 27.3776 31.1269 27.1432C31.3612 26.9089 31.4929 26.591 31.4929 26.2596C31.4929 25.9282 31.3612 25.6103 31.1269 25.376C30.8925 25.1416 30.5747 25.01 30.2432 25.01H12.3043C12.1402 25.01 11.9777 25.0423 11.8261 25.1051C11.6745 25.1679 11.5367 25.26 11.4207 25.376C11.3047 25.4921 11.2126 25.6298 11.1498 25.7814C11.087 25.9331 11.0547 26.0956 11.0548 26.2597C11.0547 26.4238 11.0871 26.5863 11.1498 26.7379C11.2126 26.8895 11.3047 27.0272 11.4207 27.1433C11.5367 27.2593 11.6745 27.3513 11.8261 27.4141C11.9777 27.4769 12.1402 27.5092 12.3043 27.5092ZM12.3043 33.1768H30.2432C30.5746 33.1768 30.8925 33.0452 31.1268 32.8109C31.3611 32.5765 31.4928 32.2587 31.4928 31.9273C31.4928 31.5959 31.3611 31.2781 31.1268 31.0437C30.8925 30.8094 30.5746 30.6777 30.2432 30.6777H12.3043C11.9729 30.6777 11.6551 30.8094 11.4207 31.0437C11.1864 31.2781 11.0548 31.5959 11.0548 31.9273C11.0548 32.2587 11.1864 32.5765 11.4207 32.8109C11.6551 33.0452 11.9729 33.1768 12.3043 33.1768ZM31.4928 37.5948C31.4928 37.4307 31.4605 37.2682 31.3977 37.1165C31.3349 36.9649 31.2429 36.8272 31.1269 36.7111C31.0108 36.5951 30.8731 36.503 30.7215 36.4402C30.5699 36.3774 30.4074 36.3451 30.2432 36.3451H12.3043C11.9729 36.3451 11.655 36.4767 11.4207 36.7111C11.1863 36.9454 11.0547 37.2633 11.0547 37.5947C11.0547 37.9261 11.1863 38.244 11.4207 38.4783C11.655 38.7127 11.9729 38.8443 12.3043 38.8443H30.2432C30.5746 38.8443 30.8925 38.7127 31.1268 38.4783C31.3611 38.244 31.4928 37.9262 31.4928 37.5948ZM12.3043 60.0976H30.2432C30.5747 60.0976 30.8925 59.9659 31.1269 59.7316C31.3612 59.4972 31.4929 59.1794 31.4929 58.848C31.4929 58.5166 31.3612 58.1987 31.1269 57.9644C30.8925 57.73 30.5747 57.5984 30.2432 57.5984H12.3043C11.9729 57.5984 11.6551 57.73 11.4207 57.9643C11.1864 58.1987 11.0548 58.5165 11.0548 58.8479C11.0547 59.012 11.087 59.1745 11.1498 59.3262C11.2126 59.4778 11.3046 59.6156 11.4206 59.7316C11.5367 59.8477 11.6744 59.9397 11.8261 60.0025C11.9777 60.0653 12.1402 60.0976 12.3043 60.0976Z" fill="black"/>
        <path d="M70.4597 21.1778H69.0699C69.1021 20.8384 69.1183 20.4976 69.1184 20.1566C69.1192 18.1094 68.5276 16.1056 67.415 14.387C67.2498 14.141 66.9947 13.9697 66.7045 13.91C66.4142 13.8503 66.1122 13.907 65.8633 14.0678C65.6145 14.2287 65.4388 14.4808 65.3741 14.77C65.3094 15.0591 65.3608 15.3621 65.5174 15.6137C66.985 17.884 67.191 20.7652 66.4628 22.7069C65.9959 24.5744 64.255 26.2551 64.1047 26.4238C64.0842 26.4467 64.0636 26.4694 64.0434 26.4925C63.1235 27.5422 62.3824 28.736 61.8498 30.026H55.0225C54.4353 28.5989 53.5457 27.2043 52.3989 26.0257C50.861 24.4452 50.0139 22.3608 50.0139 20.1565C50.0139 15.5379 53.7724 11.734 58.4363 11.734C58.5466 11.734 58.6573 11.7361 58.7683 11.7403C59.9158 11.783 61.0418 12.0644 62.0744 12.5667C62.344 12.6974 62.6546 12.7155 62.9376 12.6172C63.2207 12.5189 63.4531 12.3122 63.5838 12.0425C63.7144 11.7728 63.7326 11.4623 63.6343 11.1792C63.5359 10.8962 63.3292 10.6637 63.0595 10.5331C61.7461 9.89447 60.3139 9.53663 58.8545 9.48239C53.4033 9.27647 48.8019 13.1797 47.9124 18.3378H38.843C38.0537 18.3374 37.291 18.6232 36.6963 19.1422C36.1207 18.6418 35.3702 18.3378 34.5494 18.3378H6.85481C5.67937 18.3378 4.72312 19.2941 4.72312 20.4695V21.1778H2.93293C1.31568 21.1778 0 22.4935 0 24.1108V54.5343C0 54.834 0.119031 55.1213 0.330908 55.3332C0.542784 55.5451 0.83015 55.6641 1.12979 55.6641C1.42943 55.6641 1.71679 55.5451 1.92867 55.3332C2.14055 55.1213 2.25958 54.834 2.25958 54.5343V53.4559C2.32661 53.4615 2.3944 53.4642 2.46279 53.4642H4.72312C4.72312 66.8199 4.70399 65.9509 4.7665 66.2556C4.96565 67.2261 5.82625 67.9583 6.85481 67.9583H34.5495C35.1836 67.9583 35.3671 68.4303 35.5667 68.6214V72.0381C34.7936 71.549 33.8978 71.2888 32.9831 71.2876H2.93293C2.75441 71.2874 2.58325 71.2164 2.45702 71.0901C2.33078 70.9639 2.25978 70.7927 2.25958 70.6142V59.8067C2.25958 59.507 2.14055 59.2197 1.92867 59.0078C1.71679 58.7959 1.42943 58.6769 1.12979 58.6769C0.83015 58.6769 0.542784 58.7959 0.330908 59.0078C0.119031 59.2197 0 59.507 0 59.8067L0 70.6142C0 72.2315 1.31568 73.5471 2.93293 73.5471H32.9829C33.8955 73.5471 34.7497 74.0372 35.2127 74.8258C35.8871 75.9757 37.5207 75.9494 38.1799 74.8259C38.6428 74.0372 39.4973 73.5471 40.4098 73.5471H70.4597C72.0769 73.5471 73.3926 72.2315 73.3926 70.6142V24.1109C73.3926 22.4936 72.0769 21.1778 70.4597 21.1778ZM58.4364 37.6605C56.7451 37.6605 55.3691 36.2846 55.3691 34.5932V32.2856H61.5037V34.5932C61.5037 36.2846 60.1277 37.6605 58.4364 37.6605ZM38.8432 20.5974H47.7636C47.8256 22.1302 48.2323 23.6673 48.9196 25.0096H43.1486C42.8195 25.0132 42.5052 25.1465 42.2738 25.3804C42.0424 25.6144 41.9126 25.9302 41.9126 26.2592C41.9126 26.5883 42.0424 26.9041 42.2738 27.138C42.5052 27.372 42.8195 27.5052 43.1486 27.5089H50.6936C51.6416 28.5061 52.2789 29.3947 52.8405 30.6772H43.1486C42.8195 30.6808 42.5052 30.8141 42.2738 31.0481C42.0424 31.282 41.9126 31.5978 41.9126 31.9269C41.9126 32.2559 42.0424 32.5717 42.2738 32.8057C42.5052 33.0396 42.8195 33.1729 43.1486 33.1765H53.1096V34.5934C53.1096 35.2069 53.215 35.7959 53.4068 36.3447H43.1486C42.8195 36.3483 42.5052 36.4816 42.2738 36.7155C42.0424 36.9495 41.9126 37.2653 41.9126 37.5943C41.9126 37.9234 42.0424 38.2392 42.2738 38.4731C42.5052 38.7071 42.8195 38.8403 43.1486 38.844L55.1766 38.8018C56.0784 39.5018 57.2092 39.9201 58.4364 39.9201C61.3737 39.9201 63.7633 37.5305 63.7633 34.5932V31.3557C64.5977 29.0038 65.9376 27.7916 66.41 27.2615V65.6989H38.8432L38.8369 65.6992C38.4892 65.6998 38.1093 65.7673 37.8262 65.8601V21.6147C37.8265 21.345 37.9337 21.0865 38.1244 20.8958C38.315 20.7051 38.5735 20.5978 38.8432 20.5974ZM2.25958 24.1109C2.25978 23.9324 2.33078 23.7612 2.45702 23.635C2.58325 23.5088 2.75441 23.4377 2.93293 23.4375H4.72312V42.874H2.46279C2.3944 42.874 2.32661 42.8768 2.25958 42.8823V24.1109ZM2.46279 51.2048C2.40891 51.2047 2.35724 51.1833 2.31914 51.1452C2.28104 51.1071 2.25962 51.0554 2.25958 51.0015V45.3366C2.25962 45.2827 2.28104 45.2311 2.31914 45.193C2.35724 45.1549 2.40891 45.1334 2.46279 45.1334H6.64527V51.2046H2.46279V51.2048ZM7.77506 53.4643H23.4369C23.6521 53.4643 23.888 53.3965 24.0814 53.2619C24.0833 53.2605 24.0854 53.2596 24.0874 53.2583L29.0351 49.774C29.5565 49.4067 29.8679 48.8069 29.8679 48.1691C29.8679 47.5313 29.5565 46.9314 29.0351 46.5643L24.0874 43.0801C24.0853 43.0786 24.0829 43.0775 24.0808 43.076C23.9059 42.955 23.7003 42.8859 23.4879 42.8765C23.4708 42.8758 23.4541 42.874 23.4368 42.874H6.9827V20.5974H34.5495C34.8192 20.5977 35.0777 20.705 35.2684 20.8957C35.4591 21.0863 35.5663 21.3449 35.5667 21.6145V65.8599C35.2747 65.765 34.8968 65.6998 34.5562 65.699L34.5495 65.6987H6.9827V53.4643H7.77506ZM22.307 51.2048H8.90469V45.1336H22.307V51.2048ZM27.3895 48.1692L24.5667 50.1572V46.1813L27.3895 48.1692ZM71.133 70.6144C71.1328 70.7929 71.0618 70.964 70.9356 71.0903C70.8093 71.2165 70.6382 71.2875 70.4597 71.2877H40.4098C39.4834 71.2877 38.5892 71.5569 37.8262 72.0382V68.6216C38.0317 68.4244 38.203 67.9586 38.8432 67.9586H66.5379C67.7132 67.9586 68.6696 67.0024 68.6696 65.8269V23.4374H70.4598C70.6383 23.4376 70.8095 23.5086 70.9357 23.6348C71.062 23.7611 71.133 23.9322 71.1332 24.1108V70.6144H71.133Z" fill="black"/>
    </g>
    <defs>
        <clipPath id="clip0_3031_3946">
            <rect width="76" height="76" fill="white"/>
        </clipPath>
    </defs>
</svg>
