<svg width="76" height="76" viewBox="0 0 76 76" fill="none" xmlns="http://www.w3.org/2000/svg">
    <g clip-path="url(#clip0_3031_3989)">
        <path d="M35.6232 42.7514H46.3107C47.2555 42.7514 48.1617 42.3761 48.8298 41.708C49.4978 41.0399 49.8732 40.1337 49.8732 39.1889H55.8107L59.9432 46.682C59.0962 47.1123 58.3976 47.7866 57.9378 48.6179C57.478 49.4492 57.278 50.3992 57.3636 51.3454C57.4493 52.2915 57.8167 53.1902 58.4184 53.9254C59.02 54.6606 59.8283 55.1984 60.7388 55.4695C59.0999 61.2014 58.8354 67.2389 59.9669 73.092L60.2994 74.8139H29.3176L32.0607 60.5639C28.9281 61.1966 25.7526 61.5935 22.5607 61.7514C13.0607 61.7514 14.2482 46.3139 14.2482 46.3139H9.70006C8.99135 46.313 8.29724 46.1124 7.6974 45.735C7.09755 45.3575 6.61627 44.8186 6.30878 44.1801C6.0013 43.5416 5.88006 42.8293 5.959 42.125C6.03794 41.4207 6.31385 40.7529 6.75506 40.1983C8.60756 37.8827 13.0369 32.147 14.2482 28.5014C15.9344 23.4545 12.8469 11.8764 22.6913 5.53516C22.6056 5.86075 22.5617 6.19596 22.5607 6.53266C22.5607 7.63496 22.9986 8.69212 23.778 9.47157C24.5575 10.251 25.6146 10.6889 26.7169 10.6889C27.5144 10.6946 28.2956 10.4631 28.9613 10.0239L34.4357 20.1889V23.7514C33.4909 23.7514 32.5847 24.1267 31.9166 24.7948C31.2485 25.4629 30.8732 26.3691 30.8732 27.3139V39.1889C30.8732 40.1337 31.2485 41.0399 31.9166 41.708C32.5847 42.3761 33.4909 42.7514 34.4357 42.7514H35.6232Z" fill="#E8C395"/>
        <path d="M70.0625 28.5013C70.0625 28.8931 70.0506 29.2969 70.015 29.7125C69.434 29.1329 68.6941 28.7386 67.889 28.5796C67.0838 28.4206 66.2496 28.5041 65.4919 28.8194C64.7342 29.1347 64.087 29.6676 63.6323 30.3509C63.1776 31.0341 62.9358 31.8368 62.9375 32.6575C62.9351 32.8565 62.951 33.0552 62.985 33.2513H58.1875V30.8763L68.8275 19.2031C69.6544 22.2331 70.0698 25.3605 70.0625 28.5013Z" fill="#A5E6F8"/>
        <path d="M49.875 33.2508V28.5008H54.625V24.5345C55.1802 24.8032 55.7895 24.9413 56.4062 24.9383C57.3736 24.9345 58.3094 24.5934 59.0523 23.9737C59.7952 23.3541 60.2986 22.4947 60.4759 21.5436C60.6532 20.5926 60.4931 19.6095 60.0234 18.7639C59.5536 17.9182 58.8036 17.2628 57.9025 16.9108L64.4812 10.332C65.5388 11.7057 66.4427 13.191 67.1769 14.7614C67.8538 16.1916 68.4061 17.6775 68.8275 19.2027L58.1875 30.8758V33.2508H62.985C63.1277 34.2391 63.6214 35.1431 64.3759 35.7973C65.1304 36.4514 66.0952 36.8121 67.0938 36.8133C67.6976 36.8145 68.294 36.6806 68.8394 36.4214C68.3496 38.1682 67.7589 39.885 67.07 41.5633C66.3401 43.3771 65.4788 45.1353 64.4931 46.8239C63.767 46.394 62.9382 46.1684 62.0944 46.1708C61.348 46.1722 60.6122 46.347 59.945 46.6814L55.8125 39.1883H49.875V33.2508Z" fill="#0CBDC6"/>
        <path d="M55.2188 11.876C56.3211 11.876 57.3782 11.4381 58.1577 10.6587C58.9371 9.87923 59.375 8.82207 59.375 7.71977C59.3766 6.63515 58.9499 5.59377 58.1875 4.82227C60.6267 6.22803 62.7653 8.1003 64.4812 10.3323L57.9025 16.911C57.427 16.7198 56.9188 16.623 56.4062 16.626C55.4636 16.6273 54.5494 16.949 53.8137 17.5383C53.0779 18.1276 52.5644 18.9494 52.3573 19.869C52.1501 20.7886 52.2618 21.7513 52.6738 22.5991C53.0859 23.4469 53.7739 24.1295 54.625 24.5348V28.501H49.875V27.3135C49.875 26.3687 49.4997 25.4625 48.8316 24.7944C48.1635 24.1264 47.2573 23.751 46.3125 23.751V19.001L52.5825 10.9379V10.926C53.3231 11.5413 54.2559 11.8774 55.2188 11.876Z" fill="#A5E6F8"/>
        <path d="M45.125 1.25875C48.7823 1.40172 52.385 2.19384 55.765 3.59812C55.5839 3.57405 55.4014 3.56215 55.2188 3.5625C54.3635 3.56423 53.5297 3.82974 52.8309 4.32281C52.1322 4.81587 51.6025 5.51249 51.3142 6.31765C51.0259 7.1228 50.993 7.99728 51.22 8.82183C51.447 9.64637 51.9228 10.3808 52.5825 10.925V10.9369L46.3125 19V23.75H40.375V16.625C41.6348 16.625 42.843 16.1246 43.7338 15.2338C44.6246 14.343 45.125 13.1348 45.125 11.875C45.125 10.6152 44.6246 9.40704 43.7338 8.51624C42.843 7.62544 41.6348 7.125 40.375 7.125V1.22312C41.1469 1.19937 41.9306 1.1875 42.75 1.1875C43.5694 1.1875 44.3531 1.21125 45.125 1.25875Z" fill="#0CBDC6"/>
        <path d="M35.6245 1.55711C37.097 1.39086 38.6763 1.27211 40.3745 1.22461V7.12648C39.1147 7.12648 37.9065 7.62693 37.0157 8.51773C36.1249 9.40853 35.6245 10.6167 35.6245 11.8765C35.6245 13.1363 36.1249 14.3444 37.0157 15.2352C37.9065 16.126 39.1147 16.6265 40.3745 16.6265V23.7515H34.437V20.189L28.9626 10.024C29.5713 9.63417 30.0676 9.09209 30.4024 8.45144C30.7372 7.81079 30.8988 7.09379 30.8712 6.37147C30.8436 5.64915 30.6277 4.94658 30.2451 4.33333C29.8624 3.72009 29.3262 3.21746 28.6895 2.87523C30.9579 2.23276 33.2785 1.79167 35.6245 1.55711Z" fill="#A5E6F8"/>
        <path d="M67.0938 28.5C68.0379 28.5037 68.9526 28.8287 69.6874 29.4215C70.4222 30.0143 70.9333 30.8397 71.1365 31.7617C71.3397 32.6837 71.2229 33.6474 70.8054 34.4942C70.3879 35.341 69.6945 36.0204 68.8394 36.4206C68.294 36.6798 67.6976 36.8137 67.0938 36.8125V28.5Z" fill="#A23939"/>
        <path d="M62.9358 32.6562C62.9358 31.5539 63.3737 30.4968 64.1531 29.7173C64.9326 28.9379 65.9897 28.5 67.092 28.5V36.8125C66.0934 36.8113 65.1286 36.4507 64.3742 35.7965C63.6197 35.1423 63.1259 34.2384 62.9833 33.25C62.9493 33.054 62.9334 32.8552 62.9358 32.6562Z" fill="#D84C4C"/>
        <path d="M62.0938 46.1699C62.9376 46.1675 63.7664 46.3932 64.4925 46.8231C65.3915 47.3506 66.0921 48.1591 66.4862 49.1241C66.8803 50.0891 66.946 51.1569 66.6732 52.163C66.4004 53.169 65.8043 54.0574 64.9767 54.6911C64.1492 55.3249 63.1361 55.6688 62.0938 55.6699V46.1699Z" fill="#1A8856"/>
        <path d="M57.3438 50.9199C57.3431 50.042 57.5858 49.181 58.0449 48.4327C58.5039 47.6843 59.1615 47.0778 59.9444 46.6805C60.6116 46.3461 61.3474 46.1713 62.0938 46.1699V55.6699C61.635 55.6704 61.1787 55.6023 60.74 55.468C59.7597 55.1766 58.8997 54.5765 58.2878 53.7571C57.6759 52.9376 57.3448 51.9426 57.3438 50.9199Z" fill="#22B573"/>
        <path d="M60.5625 20.7813C60.5625 21.8836 60.1246 22.9408 59.3452 23.7202C58.5657 24.4997 57.5086 24.9376 56.4062 24.9376V16.6251C56.9188 16.622 57.427 16.7188 57.9025 16.9101C58.6859 17.2099 59.3597 17.7406 59.8347 18.4319C60.3097 19.1232 60.5635 19.9425 60.5625 20.7813Z" fill="#1A8856"/>
        <path d="M52.25 20.7812C52.25 19.6789 52.6879 18.6218 53.4673 17.8423C54.2468 17.0629 55.3039 16.625 56.4062 16.625V24.9375C55.7895 24.9405 55.1802 24.8024 54.625 24.5337C53.9148 24.1969 53.3147 23.6655 52.8943 23.0013C52.4739 22.3371 52.2505 21.5673 52.25 20.7812Z" fill="#22B573"/>
        <path d="M55.7769 3.61001C56.6952 3.72663 57.5459 4.15407 58.1875 4.82126C58.9499 5.59276 59.3766 6.63414 59.375 7.71876C59.375 8.82106 58.9371 9.87822 58.1577 10.6577C57.3782 11.4371 56.3211 11.875 55.2188 11.875V3.56251C55.4014 3.56216 55.5839 3.57406 55.765 3.59813L55.7769 3.61001Z" fill="#A23939"/>
        <path d="M55.2188 11.875C54.1175 11.8716 53.0623 11.4326 52.2836 10.6539C51.5049 9.87515 51.0659 8.82 51.0625 7.71875C51.0625 6.61644 51.5004 5.55929 52.2798 4.77984C53.0593 4.00039 54.1164 3.5625 55.2188 3.5625V11.875Z" fill="#D84C4C"/>
        <path d="M49.875 27.3125V39.1875C49.875 40.1323 49.4997 41.0385 48.8316 41.7066C48.1635 42.3747 47.2573 42.75 46.3125 42.75H34.4375C33.4927 42.75 32.5865 42.3747 31.9184 41.7066C31.2503 41.0385 30.875 40.1323 30.875 39.1875V27.3125C30.875 26.3677 31.2503 25.4615 31.9184 24.7934C32.5865 24.1253 33.4927 23.75 34.4375 23.75H46.3125C47.2573 23.75 48.1635 24.1253 48.8316 24.7934C49.4997 25.4615 49.875 26.3677 49.875 27.3125ZM45.125 38V28.5H35.625V38H45.125Z" fill="#F9DF70"/>
        <path d="M45.125 28.5V38H35.625V28.5H40.375H45.125Z" fill="#1B8ACE"/>
        <path d="M40.375 7.125C41.6348 7.125 42.843 7.62544 43.7338 8.51624C44.6246 9.40704 45.125 10.6152 45.125 11.875C45.125 13.1348 44.6246 14.343 43.7338 15.2338C42.843 16.1246 41.6348 16.625 40.375 16.625V7.125Z" fill="#1A8856"/>
        <path d="M40.375 7.125V16.625C39.1152 16.625 37.907 16.1246 37.0162 15.2338C36.1254 14.343 35.625 13.1348 35.625 11.875C35.625 10.6152 36.1254 9.40704 37.0162 8.51624C37.907 7.62544 39.1152 7.125 40.375 7.125Z" fill="#22B573"/>
        <path d="M28.69 2.87378C29.3267 3.21601 29.8629 3.71864 30.2456 4.33188C30.6283 4.94512 30.8441 5.6477 30.8717 6.37002C30.8993 7.09234 30.7377 7.80933 30.403 8.44999C30.0682 9.09064 29.5719 9.63272 28.9631 10.0225C28.2974 10.4617 27.5162 10.6932 26.7188 10.6875V2.37503C27.4074 2.37237 28.0855 2.54394 28.69 2.87378Z" fill="#A23939"/>
        <path d="M26.7188 2.375V10.6875C25.6164 10.6875 24.5593 10.2496 23.7798 9.47016C23.0004 8.69072 22.5625 7.63356 22.5625 6.53125C22.5635 6.19455 22.6074 5.85935 22.6931 5.53375C22.913 4.63223 23.4294 3.83073 24.1594 3.2579C24.8895 2.68507 25.7908 2.37413 26.7188 2.375Z" fill="#D84C4C"/>
        <path d="M59.2956 65.1133C50.2884 71.7087 35.2107 70.7955 30.1935 70.2694L29.3184 74.8128H60.3002L59.9677 73.0909C59.4665 70.4624 59.2412 67.7886 59.2956 65.1133Z" fill="#AE9270"/>
        <path d="M65.0978 45.8013C64.4076 45.4033 63.6449 45.1468 62.8544 45.0469C62.0639 44.947 61.2614 45.0057 60.4939 45.2195L56.8506 38.6146C56.7481 38.4287 56.5976 38.2738 56.4149 38.1658C56.2322 38.0578 56.0238 38.0008 55.8116 38.0007H51.0616V34.4382H53.4366C53.7515 34.4382 54.0536 34.313 54.2763 34.0903C54.499 33.8676 54.6241 33.5656 54.6241 33.2507C54.6241 32.9357 54.499 32.6337 54.2763 32.411C54.0536 32.1883 53.7515 32.0632 53.4366 32.0632H51.0616V29.6882H54.6241C54.939 29.6882 55.2411 29.563 55.4638 29.3403C55.6865 29.1176 55.8116 28.8156 55.8116 28.5007V26.0603C56.0081 26.0929 56.2064 26.1147 56.4053 26.1257C57.5042 26.1277 58.5769 25.7903 59.4768 25.1595C60.3766 24.5287 61.0596 23.6353 61.4323 22.6016C61.8051 21.5678 61.8494 20.4441 61.5592 19.3842C61.269 18.3243 60.6584 17.38 59.8111 16.6803L65.3199 11.1715C65.5362 10.9475 65.6559 10.6475 65.6532 10.3362C65.6505 10.0248 65.5256 9.72698 65.3054 9.5068C65.0852 9.28663 64.7874 9.16174 64.476 9.15904C64.1647 9.15633 63.8647 9.27602 63.6407 9.49234L57.5572 15.5759C57.1795 15.4877 56.7932 15.4415 56.4053 15.4382C55.2598 15.4392 54.1449 15.8083 53.225 16.491C52.3052 17.1738 51.6291 18.1341 51.2965 19.2303C50.9639 20.3265 50.9923 21.5005 51.3776 22.5793C51.763 23.6581 52.4847 24.5845 53.4366 25.222V27.3132H51.0616C51.0576 26.2631 50.7059 25.244 50.0613 24.4151C49.4168 23.5862 48.5157 22.9943 47.4991 22.7318V19.4068L52.8713 12.4979C53.9995 13.0556 55.2887 13.1959 56.5104 12.8941C57.7322 12.5923 58.8077 11.8677 59.5464 10.8488C60.2851 9.82988 60.6393 8.5824 60.5462 7.32734C60.4532 6.07228 59.9189 4.89067 59.038 3.99184C58.2455 3.17075 57.2079 2.62904 56.0811 2.44809C56.0298 2.43501 55.9779 2.42431 55.9256 2.41602C55.6908 2.38671 55.4544 2.37322 55.2178 2.37565C54.2155 2.3743 53.233 2.65526 52.383 3.18634C51.5329 3.71743 50.8496 4.47718 50.4113 5.37859C49.973 6.28 49.7974 7.28662 49.9046 8.28319C50.0119 9.27977 50.3976 10.226 51.0176 11.0135L45.3734 18.2715C45.2116 18.4801 45.1238 18.7366 45.1241 19.0007V22.5632H41.5616V17.6944C42.9038 17.4219 44.1105 16.6937 44.9773 15.6332C45.844 14.5728 46.3175 13.2453 46.3175 11.8757C46.3175 10.506 45.844 9.17854 44.9773 8.11809C44.1105 7.05764 42.9038 6.32945 41.5616 6.0569V1.18815C41.5613 1.03318 41.5302 0.879809 41.4702 0.736933C41.4102 0.594057 41.3224 0.464517 41.2119 0.355823C41.1015 0.247129 40.9705 0.161445 40.8267 0.103738C40.6829 0.0460305 40.529 0.0174486 40.3741 0.0196493C40.0574 0.0234038 39.755 0.151998 39.5327 0.377477C39.3103 0.602956 39.1859 0.907093 39.1866 1.22377V6.0569C37.8443 6.32945 36.6376 7.05764 35.7709 8.11809C34.9041 9.17854 34.4306 10.506 34.4306 11.8757C34.4306 13.2453 34.9041 14.5728 35.7709 15.6332C36.6376 16.6937 37.8443 17.4219 39.1866 17.6944V22.5632H35.6241V20.1882C35.6241 19.9912 35.5751 19.7974 35.4816 19.6241L30.4703 10.32C30.9746 9.82648 31.3751 9.23712 31.6483 8.5866C31.9216 7.93607 32.0621 7.23749 32.0616 6.5319C32.0601 5.56949 31.7993 4.62526 31.3065 3.79856C30.8137 2.97187 30.1073 2.29326 29.2614 1.83415C28.5815 1.46441 27.8291 1.24761 27.0567 1.19889C26.2843 1.15017 25.5106 1.2707 24.7897 1.55208C24.0687 1.83345 23.4179 2.26887 22.8827 2.82791C22.3475 3.38695 21.9408 4.05612 21.6911 4.78865C14.4474 9.70253 14.0329 17.3382 13.7444 22.9443C13.7441 24.6904 13.5352 26.4301 13.1221 28.1266C11.9857 31.5454 7.643 37.1872 5.82969 39.4542C5.24882 40.1835 4.88538 41.0618 4.78111 41.9884C4.67683 42.9149 4.83594 43.8521 5.24017 44.6923C5.6444 45.5325 6.27736 46.2417 7.0664 46.7384C7.85543 47.2352 8.76855 47.4994 9.70094 47.5007H13.0141C12.9737 50.2628 13.2634 56.7869 16.6134 60.404C17.3655 61.2278 18.2858 61.8805 19.312 62.3177C20.3382 62.7549 21.4464 62.9665 22.5616 62.9382C25.2484 62.8412 27.9242 62.5431 30.5665 62.0463L28.1523 74.5887C28.1192 74.7605 28.1245 74.9375 28.1679 75.1071C28.2112 75.2766 28.2914 75.4344 28.4028 75.5694C28.5142 75.7043 28.6541 75.8129 28.8124 75.8874C28.9707 75.962 29.1435 76.0007 29.3184 76.0007H60.3003C60.4753 76.0007 60.6481 75.962 60.8064 75.8874C60.9647 75.8129 61.1045 75.7043 61.2159 75.5694C61.3274 75.4344 61.4076 75.2766 61.4509 75.1071C61.4942 74.9375 61.4995 74.7605 61.4664 74.5887L61.1339 72.8668C60.1172 67.5479 60.2826 62.0704 61.6184 56.8225C61.7764 56.8356 61.9343 56.8582 62.0934 56.8582C63.3963 56.8574 64.6628 56.4281 65.6976 55.6365C66.7325 54.8449 67.4782 53.7349 67.8198 52.4776C68.1614 51.2202 68.08 49.8855 67.5881 48.679C67.0962 47.4725 66.2212 46.4613 65.0978 45.8013ZM56.4053 17.8132C56.7626 17.8104 57.1171 17.8769 57.4491 18.0091H57.4562L57.4776 18.0186C58.1203 18.271 58.6549 18.7394 58.9895 19.3434C59.3241 19.9474 59.4376 20.6491 59.3107 21.3278C59.1837 22.0065 58.8241 22.6197 58.2939 23.0619C57.7636 23.5041 57.0958 23.7477 56.4053 23.7507C55.9648 23.7537 55.5296 23.6549 55.1335 23.4621C54.5257 23.1726 54.0344 22.6851 53.7401 22.0796C53.4459 21.4741 53.3661 20.7866 53.514 20.1298C53.6618 19.4731 54.0285 18.8861 54.5539 18.4651C55.0793 18.0442 55.7321 17.8143 56.4053 17.8132ZM55.2178 4.75065C55.3104 4.75065 55.3995 4.75065 55.4874 4.76253C55.5335 4.77431 55.5803 4.78303 55.6275 4.78865C56.2767 4.8718 56.8779 5.17431 57.3316 5.64603L57.3399 5.65434C57.8836 6.20393 58.188 6.94627 58.1866 7.7194C58.1866 8.50676 57.8738 9.26188 57.317 9.81862C56.7603 10.3754 56.0052 10.6882 55.2178 10.6882C54.4314 10.685 53.6781 10.3712 53.122 9.81517C52.566 9.2591 52.2522 8.5058 52.2491 7.7194C52.2491 6.93204 52.5618 6.17693 53.1186 5.62018C53.6753 5.06343 54.4305 4.75065 55.2178 4.75065ZM36.8116 11.8757C36.8116 11.1711 37.0205 10.4823 37.4119 9.89643C37.8034 9.31058 38.3598 8.85397 39.0108 8.58433C39.6617 8.31469 40.378 8.24414 41.0691 8.3816C41.7601 8.51906 42.3949 8.85836 42.8931 9.35658C43.3914 9.85481 43.7307 10.4896 43.8681 11.1806C44.0056 11.8717 43.935 12.588 43.6654 13.239C43.3957 13.8899 42.9391 14.4463 42.3533 14.8378C41.7674 15.2292 41.0787 15.4382 40.3741 15.4382C39.4292 15.4382 38.5231 15.0628 37.855 14.3947C37.1869 13.7266 36.8116 12.8205 36.8116 11.8757ZM48.6866 27.3132V39.1882C48.6866 39.818 48.4363 40.4221 47.9909 40.8675C47.5455 41.3129 46.9415 41.5632 46.3116 41.5632H34.4366C33.8067 41.5632 33.2026 41.3129 32.7572 40.8675C32.3118 40.4221 32.0616 39.818 32.0616 39.1882V27.3132C32.0616 26.6833 32.3118 26.0792 32.7572 25.6338C33.2026 25.1884 33.8067 24.9382 34.4366 24.9382H46.3116C46.9415 24.9382 47.5455 25.1884 47.9909 25.6338C48.4363 26.0792 48.6866 26.6833 48.6866 27.3132ZM26.7178 3.56315C27.2066 3.56286 27.6876 3.68535 28.1167 3.9194C28.5737 4.16396 28.9585 4.52414 29.2328 4.96397C29.5071 5.4038 29.6612 5.90788 29.6797 6.42588C29.6982 6.94389 29.5805 7.45768 29.3383 7.91596C29.0961 8.37424 28.738 8.76097 28.2996 9.03753C27.8294 9.34431 27.2792 9.50543 26.7178 9.50065C25.9305 9.50065 25.1753 9.18787 24.6186 8.63112C24.0618 8.07438 23.7491 7.31926 23.7491 6.5319C23.7509 6.29121 23.7836 6.05176 23.8464 5.8194C24.0006 5.1747 24.3682 4.60103 24.8894 4.19147C25.4106 3.78191 26.0549 3.56049 26.7178 3.56315ZM30.7553 73.6257L33.2265 60.7876C33.2634 60.596 33.2525 60.3984 33.1948 60.212C33.1371 60.0257 33.0344 59.8564 32.8958 59.7192C32.7572 59.582 32.5869 59.481 32.3999 59.4252C32.213 59.3694 32.0152 59.3606 31.8241 59.3994C28.7694 60.0147 25.6735 60.4037 22.5616 60.5632C21.7745 60.5907 20.9908 60.4467 20.2649 60.1412C19.539 59.8357 18.8883 59.3759 18.3578 58.7938C14.8274 54.9819 15.4271 46.4889 15.4366 46.4034C15.449 46.24 15.4275 46.0759 15.3735 45.9212C15.3194 45.7665 15.2339 45.6248 15.1223 45.5047C15.0108 45.3847 14.8756 45.2891 14.7254 45.2239C14.5751 45.1586 14.4129 45.1252 14.2491 45.1257H9.70094C9.21589 45.1249 8.74085 44.9876 8.33027 44.7293C7.91969 44.4711 7.59017 44.1024 7.37947 43.6655C7.16877 43.2286 7.08541 42.7412 7.13895 42.2591C7.19249 41.777 7.38076 41.3197 7.68219 40.9397C10.0358 38.0007 14.1647 32.5227 15.3748 28.8759C15.867 26.9787 16.116 25.0266 16.1158 23.0667C16.3699 18.135 16.6965 12.1227 21.5664 7.87615C21.7464 8.58948 22.073 9.25751 22.5254 9.83764C22.9778 10.4178 23.5461 10.8973 24.194 11.2456C24.842 11.594 25.5555 11.8035 26.2889 11.8609C27.0223 11.9182 27.7597 11.8222 28.4539 11.5788L33.2491 20.4874V22.7318C32.2324 22.9943 31.3313 23.5862 30.6868 24.4151C30.0422 25.244 29.6905 26.2631 29.6866 27.3132H24.9366C24.6216 27.3132 24.3196 27.4383 24.0969 27.661C23.8742 27.8837 23.7491 28.1857 23.7491 28.5007C23.7491 28.8156 23.8742 29.1176 24.0969 29.3403C24.3196 29.563 24.6216 29.6882 24.9366 29.6882H29.6866V32.0632H22.5616C22.2466 32.0632 21.9446 32.1883 21.7219 32.411C21.4992 32.6337 21.3741 32.9357 21.3741 33.2507C21.3741 33.5656 21.4992 33.8676 21.7219 34.0903C21.9446 34.313 22.2466 34.4382 22.5616 34.4382H29.6866V36.8132H24.9366C24.6216 36.8132 24.3196 36.9383 24.0969 37.161C23.8742 37.3837 23.7491 37.6857 23.7491 38.0007C23.7491 38.3156 23.8742 38.6176 24.0969 38.8403C24.3196 39.063 24.6216 39.1882 24.9366 39.1882H29.6866C29.6866 40.4479 30.187 41.6561 31.0778 42.5469C31.9686 43.4377 33.1768 43.9382 34.4366 43.9382V47.5007C34.4366 47.8156 34.5617 48.1176 34.7844 48.3403C35.0071 48.563 35.3091 48.6882 35.6241 48.6882C35.939 48.6882 36.2411 48.563 36.4638 48.3403C36.6865 48.1176 36.8116 47.8156 36.8116 47.5007V43.9382H39.1866V49.8757C39.1866 50.1906 39.3117 50.4926 39.5344 50.7153C39.7571 50.938 40.0591 51.0632 40.3741 51.0632C40.689 51.0632 40.9911 50.938 41.2138 50.7153C41.4365 50.4926 41.5616 50.1906 41.5616 49.8757V43.9382H43.9366V47.5007C43.9366 47.8156 44.0617 48.1176 44.2844 48.3403C44.5071 48.563 44.8091 48.6882 45.1241 48.6882C45.439 48.6882 45.7411 48.563 45.9638 48.3403C46.1865 48.1176 46.3116 47.8156 46.3116 47.5007V43.9382C47.3616 43.9342 48.3807 43.5825 49.2096 42.9379C50.0385 42.2934 50.6304 41.3923 50.8929 40.3757H55.1109L58.3789 46.3013C57.6848 46.8544 57.1244 47.5571 56.7395 48.3569C56.3546 49.1567 56.1551 50.0331 56.1559 50.9207C56.1627 52.0002 56.4621 53.0577 57.0223 53.9805C57.5826 54.9034 58.3826 55.657 59.3373 56.1611C57.8972 61.77 57.7144 67.6279 58.8017 73.3157L58.8611 73.6257H30.7553ZM62.0934 54.4832C61.7492 54.4837 61.4069 54.432 61.0781 54.33C60.3959 54.1268 59.7902 53.7239 59.3391 53.1732C58.8881 52.6226 58.6123 51.9494 58.5474 51.2406C58.4825 50.5317 58.6314 49.8197 58.9749 49.1963C59.3185 48.5728 59.8409 48.0666 60.4749 47.7429C60.9775 47.4916 61.5315 47.3599 62.0934 47.3582C62.7264 47.3566 63.3479 47.526 63.8925 47.8486C64.5665 48.2443 65.0916 48.8507 65.387 49.5744C65.6824 50.298 65.7315 51.0987 65.527 51.853C65.3224 52.6074 64.8755 53.2735 64.255 53.7488C63.6346 54.2241 62.875 54.4821 62.0934 54.4832Z" fill="#252525"/>
        <path d="M41.5625 28.5011C41.5625 28.1862 41.4374 27.8841 41.2147 27.6614C40.992 27.4387 40.69 27.3136 40.375 27.3136H35.625C35.3101 27.3136 35.008 27.4387 34.7853 27.6614C34.5626 27.8841 34.4375 28.1862 34.4375 28.5011V38.0011C34.4375 38.3161 34.5626 38.6181 34.7853 38.8408C35.008 39.0635 35.3101 39.1886 35.625 39.1886C35.94 39.1886 36.242 39.0635 36.4647 38.8408C36.6874 38.6181 36.8125 38.3161 36.8125 38.0011V29.6886H40.375C40.69 29.6886 40.992 29.5635 41.2147 29.3408C41.4374 29.1181 41.5625 28.8161 41.5625 28.5011ZM45.125 27.3136C44.8101 27.3136 44.508 27.4387 44.2853 27.6614C44.0626 27.8841 43.9375 28.1862 43.9375 28.5011V36.8136H40.375C40.0601 36.8136 39.758 36.9387 39.5353 37.1614C39.3126 37.3841 39.1875 37.6862 39.1875 38.0011C39.1875 38.3161 39.3126 38.6181 39.5353 38.8408C39.758 39.0635 40.0601 39.1886 40.375 39.1886H45.125C45.44 39.1886 45.742 39.0635 45.9647 38.8408C46.1874 38.6181 46.3125 38.3161 46.3125 38.0011V28.5011C46.3125 28.1862 46.1874 27.8841 45.9647 27.6614C45.742 27.4387 45.44 27.3136 45.125 27.3136ZM70.8522 28.8692C70.1428 28.1605 69.2473 27.6669 68.2693 27.4455C67.2913 27.2241 66.2705 27.2838 65.325 27.6179C64.3795 27.9519 63.5478 28.5466 62.9259 29.3333C62.304 30.12 61.9173 31.0665 61.8106 32.0636H59.375V31.3369L69.7063 20.0034C69.9035 19.7683 70.0021 19.466 69.9814 19.1599C69.9607 18.8538 69.8223 18.5675 69.5952 18.3612C69.3682 18.1548 69.07 18.0444 68.7633 18.053C68.4566 18.0616 68.1651 18.1886 67.95 18.4074L57.31 30.0805C57.1116 30.2981 57.0011 30.5816 57 30.8761V33.2511C57 33.5661 57.1251 33.8681 57.3478 34.0908C57.5705 34.3135 57.8726 34.4386 58.1875 34.4386H62.0671C62.4372 35.4771 63.1183 36.3763 64.0178 37.0138C64.9172 37.6512 65.9913 37.996 67.0938 38.0011C67.8685 38.0021 68.6338 37.8314 69.3346 37.5012C70.2599 37.0738 71.0436 36.3907 71.5934 35.5324C72.1432 34.6742 72.4361 33.6766 72.4375 32.6574C72.4394 31.9521 72.3 31.2536 72.0278 30.603C71.7555 29.9525 71.3558 29.363 70.8522 28.8692ZM68.3288 35.3506C67.9429 35.5338 67.5209 35.628 67.0938 35.6261C66.3728 35.6207 65.678 35.3551 65.1373 34.8781C64.5966 34.4011 64.2464 33.7449 64.1511 33.0302C64.131 32.907 64.1222 32.7822 64.125 32.6574C64.125 31.87 64.4378 31.1149 64.9945 30.5581C65.5513 30.0014 66.3064 29.6886 67.0938 29.6886C67.4806 29.6876 67.8638 29.7634 68.2211 29.9116C68.5785 30.0598 68.9028 30.2775 69.1755 30.5519H69.1814C69.4615 30.8262 69.6838 31.1538 69.8351 31.5154C69.9865 31.877 70.0638 32.2653 70.0625 32.6574C70.0613 33.2251 69.8973 33.7805 69.59 34.2579C69.2827 34.7352 68.845 35.1144 68.3288 35.3506ZM46.6605 6.77817C46.8844 6.99448 47.1844 7.11418 47.4957 7.11147C47.8071 7.10877 48.1049 6.98388 48.3251 6.76371C48.5453 6.54353 48.6702 6.24569 48.6729 5.93434C48.6756 5.62298 48.5559 5.32301 48.3396 5.09905L46.3125 3.07198V1.24798C46.3109 0.933039 46.1843 0.631619 45.9605 0.410033C45.7367 0.188447 45.434 0.0648464 45.1191 0.0664211C44.8041 0.0679958 44.5027 0.194617 44.2811 0.41843C44.0595 0.642243 43.9359 0.944914 43.9375 1.25986V3.56361C43.9376 3.87853 44.0627 4.18052 44.2855 4.40317L46.6605 6.77817ZM35.625 5.93861C35.94 5.93861 36.242 5.8135 36.4647 5.5908C36.6874 5.3681 36.8125 5.06605 36.8125 4.75111V1.54486C36.8109 1.22991 36.6843 0.928494 36.4605 0.706908C36.2367 0.485322 35.934 0.361721 35.6191 0.363296C35.3041 0.364871 35.0027 0.491492 34.7811 0.715305C34.5595 0.939118 34.4359 1.24179 34.4375 1.55673V4.75111C34.4375 5.06605 34.5626 5.3681 34.7853 5.5908C35.008 5.8135 35.3101 5.93861 35.625 5.93861ZM63.2855 18.6532C63.5081 18.8758 63.8101 19.0009 64.125 19.0009C64.4399 19.0009 64.7419 18.8758 64.9646 18.6532L68.0165 15.6013C68.1299 15.4918 68.2203 15.3607 68.2826 15.2158C68.3448 15.071 68.3776 14.9151 68.3789 14.7575C68.3803 14.5998 68.3503 14.4434 68.2906 14.2975C68.2308 14.1515 68.1427 14.0189 68.0312 13.9075C67.9197 13.796 67.7871 13.7078 67.6411 13.6481C67.4952 13.5884 67.3388 13.5583 67.1812 13.5597C67.0235 13.5611 66.8677 13.5938 66.7228 13.656C66.5779 13.7183 66.4469 13.8088 66.3373 13.9222L63.2855 16.974C63.0628 17.1967 62.9378 17.4987 62.9378 17.8136C62.9378 18.1285 63.0628 18.4305 63.2855 18.6532ZM67.07 40.3761H63.5313L60.325 36.1011C60.136 35.8492 59.8547 35.6826 59.543 35.638C59.2312 35.5935 58.9145 35.6746 58.6625 35.8636C58.4106 36.0526 58.244 36.3339 58.1995 36.6457C58.1549 36.9575 58.236 37.2742 58.425 37.5261L61.9875 42.2761C62.0981 42.4236 62.2416 42.5433 62.4065 42.6257C62.5713 42.7082 62.7532 42.7511 62.9375 42.7511H67.07C67.385 42.7511 67.687 42.626 67.9097 42.4033C68.1324 42.1806 68.2575 41.8786 68.2575 41.5636C68.2575 41.2487 68.1324 40.9466 67.9097 40.7239C67.687 40.5012 67.385 40.3761 67.07 40.3761ZM55.6285 60.2002C55.3246 60.1201 55.0013 60.1638 54.7295 60.3216C54.4577 60.4794 54.2596 60.7385 54.1785 61.0422C53.4553 63.9595 53.384 67.0004 53.9695 69.9484C54.0325 70.2067 54.1804 70.4364 54.3895 70.6007C54.5985 70.765 54.8567 70.8543 55.1226 70.8545C55.2178 70.8545 55.3126 70.8433 55.4052 70.8212C55.5568 70.7843 55.6997 70.7179 55.8256 70.6258C55.9515 70.5337 56.0581 70.4176 56.1392 70.2843C56.2202 70.1509 56.2742 70.0029 56.298 69.8487C56.3218 69.6945 56.3151 69.5371 56.278 69.3855C55.79 66.8215 55.8568 64.1827 56.474 61.6466C56.5529 61.3427 56.5082 61.02 56.3498 60.7489C56.1913 60.4779 55.932 60.2806 55.6285 60.2002Z" fill="#252525"/>
    </g>
    <defs>
        <clipPath id="clip0_3031_3989">
            <rect width="76" height="76" fill="white"/>
        </clipPath>
    </defs>
</svg>
