<svg width="75" height="75" viewBox="0 0 75 75" fill="none" xmlns="http://www.w3.org/2000/svg">
    <g clip-path="url(#clip0_3031_3972)">
        <path fill-rule="evenodd" clip-rule="evenodd" d="M51.4863 47.1074C47.6554 52.0249 34.1491 56.9454 39.5613 71.603C40.0609 72.9562 40.9305 73.5285 42.4992 73.5285H53.9668C54.9635 73.5285 55.7104 72.4685 55.4338 71.4361L53.4778 63.4953L59.092 58.004C62.785 54.3919 63.6228 53.1469 65.671 48.3566C68.5186 41.6967 72.2913 31.6847 73.25 29.5712C74.6179 26.4717 70.5879 24.1154 68.5137 27.5788L61.8895 39.0923C61.7641 38.7928 61.5629 38.5208 61.2655 38.2895C60.1986 37.46 58.6437 37.657 57.8099 38.727C57.0108 39.7528 52.2851 46.0821 51.4863 47.1074Z" fill="#FFD0C7"/>
        <path fill-rule="evenodd" clip-rule="evenodd" d="M35.4367 71.603C40.8488 56.9454 27.3426 52.0249 23.5117 47.1074C22.7129 46.0819 17.9872 39.7526 17.1883 38.7271C16.3546 37.6571 14.7996 37.4601 13.7326 38.2896C13.4352 38.5209 13.2339 38.7929 13.1087 39.0924L6.48444 27.5789C4.41016 24.1153 0.380091 26.4717 1.748 29.5712C2.70657 31.6847 6.47946 41.6967 9.32688 48.3565C11.3751 53.1469 12.2128 54.3919 15.9059 58.004L21.5201 63.4953L19.5641 71.436C19.2875 72.4684 20.0345 73.5285 21.031 73.5285H32.4987C34.0675 73.5285 34.9372 72.9561 35.4367 71.603Z" fill="#FFD0C7"/>
        <path fill-rule="evenodd" clip-rule="evenodd" d="M27.8749 6.49214C27.8749 3.7304 25.6154 1.4707 22.8535 1.4707C20.0916 1.4707 17.832 3.73025 17.832 6.49214V9.00286C17.832 10.2864 18.3202 11.4617 19.12 12.3519C20.041 13.377 21.3753 14.0243 22.8535 14.0243C24.3317 14.0243 25.6659 13.377 26.587 12.3519C27.3868 11.4617 27.8749 10.2866 27.8749 9.00286V6.49214Z" fill="#F8E3EE"/>
        <path fill-rule="evenodd" clip-rule="evenodd" d="M26.5873 12.3517C25.6663 13.3768 24.3321 14.0241 22.8539 14.0241C21.3757 14.0241 20.0414 13.3768 19.1207 12.3516C16.1408 13.7617 14.0664 16.8005 14.0664 20.3008V22.8113H31.6413V20.3008C31.6413 16.8006 29.567 13.7617 26.5873 12.3517Z" fill="#FFCD69"/>
        <path fill-rule="evenodd" clip-rule="evenodd" d="M57.1659 6.49214C57.1659 3.7304 54.9064 1.4707 52.1445 1.4707C49.3826 1.4707 47.123 3.73025 47.123 6.49214V9.00286C47.123 10.2864 47.6112 11.4617 48.411 12.3519C49.3321 13.377 50.6663 14.0243 52.1445 14.0243C53.6227 14.0243 54.9569 13.377 55.878 12.3519C56.6778 11.4617 57.1659 10.2866 57.1659 9.00286V6.49214Z" fill="#F8E3EE"/>
        <path fill-rule="evenodd" clip-rule="evenodd" d="M55.8784 12.3517C54.9573 13.3768 53.6231 14.0241 52.1449 14.0241C50.6667 14.0241 49.3324 13.3768 48.4117 12.3516C45.4318 13.7617 43.3574 16.8005 43.3574 20.3008V22.8113H60.9323V20.3008C60.9325 16.8006 58.858 13.7617 55.8784 12.3517Z" fill="#B8ECBC"/>
        <path fill-rule="evenodd" clip-rule="evenodd" d="M42.5214 12.3515C42.5214 9.58977 40.2619 7.33008 37.5 7.33008C34.7382 7.33008 32.4785 9.58962 32.4785 12.3515V14.8622C32.4785 16.1459 32.9667 17.321 33.7665 18.2113C34.6875 19.2365 36.0218 19.8837 37.5 19.8837C38.9782 19.8837 40.3124 19.2365 41.2335 18.2113C42.0333 17.3211 42.5214 16.1459 42.5214 14.8622V12.3515Z" fill="#F8E3EE"/>
        <path fill-rule="evenodd" clip-rule="evenodd" d="M41.2319 18.2111C40.3108 19.2363 38.9766 19.8835 37.4984 19.8835C36.0202 19.8835 34.686 19.2363 33.7652 18.2109C30.7854 19.621 28.7109 22.6599 28.7109 26.1602V28.6706H46.2858V26.1602C46.286 22.66 44.2116 19.621 41.2319 18.2111Z" fill="#FF5D7D"/>
        <path d="M72.8839 24.8303C71.2546 23.9871 68.7994 24.2515 67.2585 26.8247L67.2455 26.8469L61.5533 36.7405C59.909 35.8946 57.8353 36.3115 56.6559 37.8253C56.2484 38.3485 54.9022 40.1404 53.4773 42.0376C52.6961 43.0774 51.9152 44.1171 51.3121 44.9165C50.825 45.5622 50.9536 46.4807 51.5993 46.9676C51.7528 47.0835 51.9277 47.168 52.1138 47.2163C52.3 47.2646 52.4939 47.2757 52.6844 47.2491C52.8749 47.2224 53.0583 47.1585 53.224 47.0609C53.3898 46.9634 53.5348 46.8342 53.6506 46.6806C54.2546 45.8799 55.0369 44.8384 55.8195 43.7968C57.1742 41.9934 58.5749 40.1284 58.9667 39.6256C59.3009 39.1965 59.9425 39.1133 60.3681 39.4444C60.6842 39.69 60.6673 40.2917 60.318 41.2324C59.0749 44.5805 57.5302 47.9263 56.0799 50.4119C55.6723 51.1106 55.9082 52.0074 56.607 52.415C57.3059 52.8226 58.2026 52.5866 58.6101 51.888C60.1414 49.2632 61.7648 45.751 63.0641 42.2518C63.5148 41.0379 63.5966 40.0661 63.4651 39.2914L69.7776 28.3196C70.2878 27.4737 70.9615 27.1335 71.5379 27.4317C71.9336 27.6364 72.2688 28.1628 71.914 28.9725C71.4866 29.9166 70.5667 32.253 69.403 35.209C67.8625 39.1213 65.9458 43.9904 64.3257 47.7792C62.3522 52.3949 61.5922 53.5097 58.0693 56.9553L52.4552 62.4466C52.2731 62.6248 52.1406 62.8474 52.0707 63.0924C52.0009 63.3375 51.9962 63.5965 52.0571 63.8439L54.0129 71.7847L54.0204 71.8136C54.0524 71.9334 53.9839 72.0341 53.9482 72.0624H42.5005C41.413 72.0624 41.1794 71.7523 40.9365 71.0942C38.0633 63.3127 41.0268 58.8465 43.9298 55.8248C44.4901 55.2415 44.4714 54.3144 43.8882 53.754C43.3048 53.1937 42.3777 53.2121 41.8172 53.7956C39.6782 56.0222 38.263 58.2958 37.5023 60.7289C37.1902 59.737 36.7699 58.7702 36.2394 57.826C34.2486 54.2816 31.0126 51.6847 28.4124 49.598C26.9004 48.3846 25.4722 47.2386 24.6677 46.2058C24.2763 45.7034 22.8766 43.8399 21.5229 42.0379C20.0979 40.1405 18.7518 38.3486 18.3442 37.8255C17.1648 36.3117 15.0913 35.8946 13.4468 36.7407L7.75447 26.8469C7.75021 26.8394 7.74586 26.8321 7.74143 26.8247C6.20055 24.2515 3.74519 23.9871 2.11585 24.8303C0.473627 25.6803 -0.640035 27.7843 0.408746 30.1611L0.414898 30.1747C0.697121 30.7968 1.2645 32.2158 1.7273 33.3824C2.02564 34.1343 2.87729 34.5021 3.62876 34.2037C4.38067 33.9054 4.74843 33.054 4.45009 32.3023C3.7386 30.5086 3.33013 29.5115 3.08614 28.9727C2.73156 28.1629 3.06666 27.6366 3.46238 27.4318C4.03899 27.1336 4.71255 27.474 5.2228 28.3199L11.5351 39.2915C11.4036 40.0663 11.4855 41.038 11.9363 42.252C13.2353 45.751 14.8588 49.2632 16.3902 51.888C16.7979 52.5866 17.6947 52.8226 18.3933 52.415C19.0919 52.0074 19.3278 51.1105 18.9202 50.4119C17.47 47.9262 15.9252 44.5804 14.6821 41.2324C14.3328 40.2917 14.3159 39.6902 14.6323 39.4443C15.0574 39.1139 15.6993 39.1966 16.0334 39.6256C16.425 40.1284 17.8261 41.9933 19.1808 43.797C20.6048 45.6926 21.9497 47.483 22.3569 48.0057C23.3718 49.3086 24.9297 50.5589 26.5791 51.8825C31.8502 56.1124 37.8248 60.907 34.0635 71.094C33.8204 71.7522 33.5869 72.0622 32.4995 72.0622H21.0518C21.016 72.0341 20.9475 71.9332 20.9796 71.8134C20.9822 71.8039 20.9847 71.7942 20.987 71.7846L22.9428 63.8438C23.0038 63.5964 22.9991 63.3373 22.9293 63.0923C22.8595 62.8472 22.7269 62.6246 22.5448 62.4464L16.9306 56.9552C13.4079 53.5096 12.6478 52.3948 10.6742 47.7789C10.2147 46.7013 9.7631 45.6203 9.31951 44.536C9.01268 43.7876 8.15723 43.4294 7.40883 43.7365C6.66043 44.0433 6.30249 44.8988 6.60932 45.6472C7.11533 46.8814 7.56407 47.9553 7.98089 48.9303C10.1092 53.9083 11.0767 55.3268 14.8826 59.0491L19.8986 63.9554L18.1458 71.0716C17.8986 72.0155 18.1056 73.0403 18.7013 73.8168C19.2739 74.5632 20.1234 74.9912 21.0317 74.9912H32.4993C34.6845 74.9912 36.0949 74.0484 36.8112 72.1084C37.074 71.3987 37.3043 70.6775 37.5013 69.9468C37.6964 70.6777 37.9257 71.399 38.1886 72.1084C38.9048 74.0484 40.3153 74.9912 42.5003 74.9912H53.9679C54.8763 74.9912 55.7257 74.5632 56.2985 73.8168C56.894 73.0406 57.1013 72.016 56.8542 71.0722L55.1012 63.9555L60.1173 59.0492C63.923 55.3268 64.8906 53.9083 67.0189 48.9305C68.6554 45.1028 70.5809 40.2118 72.1282 36.2818C73.2346 33.472 74.1898 31.0454 74.5849 30.1742L74.5909 30.1606C75.6401 27.7843 74.5263 25.6803 72.8839 24.8303Z" fill="black"/>
        <path d="M6.97256 38.9754C6.97256 38.1665 6.31687 37.5108 5.50798 37.5108H5.50696C4.69807 37.5108 4.04297 38.1665 4.04297 38.9754C4.04297 39.7843 4.6991 40.44 5.50798 40.44C6.31687 40.44 6.97256 39.7842 6.97256 38.9754ZM47.8351 49.0102C47.0263 49.0102 46.3711 49.6659 46.3711 50.4748C46.3711 51.2837 47.0272 51.9394 47.8361 51.9394C48.645 51.9394 49.3007 51.2837 49.3007 50.4748C49.3007 49.6659 48.6448 49.0102 47.8361 49.0102H47.8351ZM14.0661 24.2756H27.4205C27.3052 24.8968 27.2472 25.5273 27.2471 26.1591V28.6696C27.2471 29.4785 27.9028 30.1342 28.7117 30.1342H46.2866C47.0953 30.1342 47.7512 29.4785 47.7512 28.6696V26.1591C47.7512 25.5188 47.6913 24.8891 47.5776 24.2756H60.9323C61.7411 24.2756 62.3969 23.6199 62.3969 22.811V20.3005C62.3969 16.8876 60.7288 13.7698 57.9622 11.8666C58.4028 10.9761 58.6316 9.99592 58.6307 9.00245V6.49188C58.6307 2.91553 55.7212 0.00585938 52.1449 0.00585938C48.5684 0.00585938 45.6589 2.91538 45.6589 6.49188V9.00259C45.658 9.99762 45.8876 10.9793 46.3295 11.8708C45.4346 12.4921 44.6434 13.2507 43.9851 14.1186V12.3503C43.9851 8.77398 41.0756 5.86431 37.4991 5.86431C33.9226 5.86431 31.0131 8.77383 31.0131 12.3503V14.1189C30.3548 13.2508 29.5636 12.4921 28.6686 11.8708C29.1106 10.9793 29.3401 9.99762 29.3393 9.00259V6.49188C29.3393 2.91553 26.4297 0.00585938 22.8532 0.00585938C19.2767 0.00585938 16.3672 2.91538 16.3672 6.49188V9.00259C16.3664 9.99607 16.5952 10.9763 17.0358 11.8667C14.2691 13.7696 12.6012 16.8864 12.6012 20.3006V22.8112C12.6015 23.6199 13.2572 24.2756 14.0661 24.2756ZM44.822 27.2051H30.1763V26.1591C30.1763 23.6813 31.4788 21.3444 33.5518 20.0024C34.6461 20.8446 36.0146 21.3469 37.4991 21.3469C38.9844 21.3469 40.3537 20.844 41.4482 20.001C41.7615 20.2021 42.0593 20.4265 42.339 20.6722C42.3848 20.7188 42.433 20.7628 42.4847 20.803C43.2362 21.4981 43.8327 22.3439 44.2353 23.2851C44.2552 23.3433 44.2788 23.3995 44.3056 23.4541C44.6476 24.3149 44.8228 25.2328 44.8219 26.1589V27.2051H44.822ZM59.4678 20.3006V21.3466H46.555C46.1175 20.5253 45.5696 19.7677 44.9264 19.0951C45.2684 17.0723 46.4651 15.2654 48.1996 14.1456C49.2935 14.9867 50.6614 15.4885 52.1449 15.4885C53.6301 15.4885 54.9993 14.9855 56.094 14.1425C58.1931 15.4886 59.4678 17.7827 59.4678 20.3006ZM48.5879 6.49188C48.5879 4.53066 50.1835 2.93501 52.1447 2.93501C54.1059 2.93501 55.7015 4.53066 55.7015 6.49188V9.00259C55.7015 10.9638 54.1058 12.5595 52.1447 12.5595C50.1834 12.5595 48.5879 10.9638 48.5879 9.00259V6.49188ZM33.9423 12.3503C33.9423 10.3891 35.5379 8.79345 37.4991 8.79345C39.4603 8.79345 41.056 10.3891 41.056 12.3503V14.861C41.056 16.8223 39.4603 18.4179 37.4991 18.4179C35.5379 18.4179 33.9423 16.8223 33.9423 14.861V12.3503ZM19.2967 6.49188C19.2967 4.53066 20.8923 2.93501 22.8535 2.93501C24.8147 2.93501 26.4104 4.53066 26.4104 6.49188V9.00259C26.4104 10.9638 24.8147 12.5595 22.8535 12.5595C20.8923 12.5595 19.2967 10.9638 19.2967 9.00259V6.49188ZM15.5307 20.3006C15.5307 17.7818 16.8051 15.4885 18.9044 14.1427C19.9991 14.9857 21.3683 15.4886 22.8535 15.4886C24.337 15.4886 25.7048 14.9868 26.7988 14.1457C28.5329 15.2654 29.7297 17.0724 30.072 19.0947C29.4285 19.7674 28.8804 20.5251 28.4428 21.3468H15.5308V20.3006H15.5307Z" fill="black"/>
    </g>
    <defs>
        <clipPath id="clip0_3031_3972">
            <rect width="75" height="75" fill="white"/>
        </clipPath>
    </defs>
</svg>
