<svg width="58" height="38" viewBox="0 0 58 38" fill="none" xmlns="http://www.w3.org/2000/svg">
    <path d="M44.8333 14.25V3.16667C44.8333 2.32681 44.4997 1.52136 43.9058 0.927496C43.312 0.333631 42.5065 0 41.6667 0H3.66667C2.82681 0 2.02136 0.333631 1.4275 0.927496C0.83363 1.52136 0.5 2.32681 0.5 3.16667V34.8333C0.5 35.6732 0.83363 36.4786 1.4275 37.0725C2.02136 37.6664 2.82681 38 3.66667 38H41.6667C42.5065 38 43.312 37.6664 43.9058 37.0725C44.4997 36.4786 44.8333 35.6732 44.8333 34.8333V23.75L57.5 36.4167V1.58333L44.8333 14.25Z" fill="#B8B8B8"/>
</svg>
