<svg width="1440" height="163" viewBox="0 0 1440 163" fill="none" xmlns="http://www.w3.org/2000/svg">
    <g clip-path="url(#clip0_3031_3744)">
        <g opacity="0.14">
            <path d="M1674.26 157.415L1689 155.904C1669.52 135.041 1587.95 127.625 1520.35 132.518C1493.92 134.426 1468.26 137.589 1443.42 140.65C1408.34 144.967 1375.24 149.039 1339.7 150.013C1267.44 151.985 1198.68 140.522 1132.16 129.431C1064.33 118.122 994.189 106.429 918.257 108.222C863.353 109.528 813.426 117.802 765.158 125.819C747.409 128.765 729.044 131.813 710.832 134.439C680.158 138.857 575.096 151.754 510.854 132.146C484.077 123.975 471.769 112.346 458.689 100.038C445.609 87.7174 432.105 74.974 402.705 65.932C343.44 47.7198 245.863 53.2142 180.117 68.058C143.501 76.3188 112.326 86.9618 82.1919 97.2461C59.4662 105.007 35.9303 113.038 10.4652 119.89C-41.661 133.927 -126.39 146.042 -193.641 134.016C-249.086 124.103 -269.072 103.573 -290.254 81.826C-299.861 71.9643 -309.816 61.7568 -323.359 52.6123C-356.116 30.5195 -419.277 13.1526 -496.637 4.96867C-573.997 -3.22807 -655.794 -1.2045 -721.039 10.5143L-713.708 15.0225C-652.167 3.9697 -574.769 2.0742 -501.344 9.8483C-427.958 17.6224 -368.116 34.0287 -337.21 54.8792C-324.131 63.6907 -314.369 73.7189 -304.954 83.4013C-283.772 105.148 -261.857 127.638 -200.972 138.524C-127.123 151.729 -38.3042 139.613 20.1884 123.86C46.3865 116.803 70.2311 108.67 93.2654 100.807C122.859 90.7015 153.494 80.2507 188.798 72.2845C249.49 58.5805 338.888 53.2911 392.21 69.6846C418.833 77.8685 431.102 89.4592 444.143 101.729C457.262 114.088 470.805 126.87 500.398 135.912C548.357 150.563 629.344 151.767 716.967 139.126C735.564 136.45 754.123 133.376 772.064 130.392C818.982 122.605 867.52 114.562 919.376 113.332C991.025 111.629 1059.28 123.002 1125.26 134.003C1193.67 145.415 1264.43 157.21 1340.98 155.11C1378.63 154.073 1414.29 149.692 1448.78 145.44C1473.13 142.443 1498.28 139.344 1523.63 137.513C1584.4 133.12 1657.4 139.357 1674.26 157.415Z" fill="#F7F7F7"/>
            <path d="M1668.24 156.237L1682.9 154.623C1661.57 133.35 1578.34 126.19 1510.2 131.57C1483.85 133.619 1458.31 136.962 1433.66 140.202C1398.39 144.825 1365.09 149.18 1328.98 150.217C1257.37 152.292 1189.15 140.957 1123.17 130.007C1057.23 119.057 989.058 107.748 915.556 109.08C861.231 110.066 811.883 117.622 764.232 124.923C746.831 127.587 728.812 130.34 710.948 132.722C680.737 136.731 577.141 148.347 512.321 129.303C485.004 121.285 471.075 109.746 457.571 98.5905C443.449 86.9101 428.826 74.8456 398.924 66.4183C337.036 48.9874 239.458 55.8906 174.985 69.6842C138.1 77.5735 106.77 87.7939 76.4819 97.6684C53.9878 105.007 30.7605 112.589 5.52686 119.095C-49.6475 133.247 -132.216 144.351 -198.464 133.068C-253.831 123.629 -274.666 103.726 -296.697 82.6581C-306.536 73.2574 -316.684 63.5238 -330.226 54.7507C-363.717 33.0422 -427.032 15.9571 -503.968 7.86277C-578.704 -0.000983953 -657.182 1.7024 -719.263 12.5375L-712.087 17.0713C-653.633 6.8766 -579.475 5.30129 -508.636 12.7424C-435.598 20.4268 -375.562 36.5898 -343.962 57.0817C-330.921 65.5474 -320.928 75.1017 -311.243 84.3359C-289.173 105.43 -266.371 127.241 -205.486 137.615C-132.833 149.999 -43.9757 138.255 14.9799 123.13C40.908 116.431 64.4824 108.734 87.2853 101.306C116.995 91.6105 147.746 81.5823 183.32 73.9747C245.092 60.7574 335.531 55.263 388.931 70.2989C415.939 77.9065 429.212 88.8697 443.256 100.473C457.416 112.179 472.078 124.282 502.096 133.106C550.325 147.271 630.54 148.898 716.697 137.448C734.947 135.028 753.12 132.236 770.714 129.546C817.091 122.438 865.051 115.099 916.444 114.164C985.817 112.909 1052.18 123.911 1116.31 134.554C1184.21 145.824 1254.43 157.479 1330.37 155.289C1368.72 154.175 1404.64 149.474 1439.37 144.928C1463.52 141.764 1488.52 138.486 1513.79 136.526C1575.18 131.685 1649.76 137.717 1668.32 156.211L1668.24 156.237Z" fill="#EFF4F7"/>
            <path d="M1300.12 155.827C1306.56 155.827 1313.04 155.737 1319.6 155.532C1358.76 154.341 1395.03 149.308 1430.14 144.454C1454.03 141.137 1478.72 137.717 1503.84 135.604C1564.53 130.481 1642.31 136.475 1662.22 155.071L1676.77 153.355C1653.66 131.749 1568.74 124.833 1500.02 130.635C1473.82 132.85 1448.59 136.347 1424.2 139.728C1388.63 144.659 1355.02 149.321 1318.21 150.435C1247.26 152.586 1179.54 141.406 1114.07 130.583C1050.06 120.004 983.811 109.041 912.778 109.951C858.993 110.617 810.301 117.443 763.19 124.052C746.136 126.446 728.542 128.906 711.026 131.032C681.278 134.643 579.109 144.979 513.671 126.472C485.891 118.621 470.921 107.735 456.413 97.22C441.211 86.18 425.469 74.7558 394.988 66.9304C333.371 51.1005 235.021 58.1317 169.7 71.349C132.737 78.8285 101.523 88.5493 71.3119 97.9628C48.8949 104.943 25.7448 112.153 0.51123 118.352C-55.049 131.992 -137.811 142.802 -203.364 132.171C-258.731 123.206 -280.338 103.931 -303.256 83.5288C-313.288 74.5893 -323.667 65.3423 -337.171 56.9406C-370.392 36.2567 -431.778 19.6711 -505.588 11.4359C-579.514 3.18791 -656.797 4.34057 -717.604 14.6121L-710.621 19.1844C-591.205 -0.974504 -416.344 18.544 -350.791 59.3612C-337.789 67.4683 -327.564 76.5488 -317.725 85.3347C-294.768 105.788 -271.039 126.933 -210.155 136.795C-138.389 148.424 -49.5702 137.025 9.6554 122.489C35.5835 116.124 59.1194 108.798 81.8451 101.715C111.477 92.494 142.112 82.9525 177.686 75.7419C238.648 63.4084 329.705 56.6589 385.497 71.0032C412.968 78.0601 427.244 88.4085 442.369 99.3716C457.571 110.399 473.274 121.797 503.64 130.391C552.1 144.082 631.582 146.132 716.273 135.86C734.137 133.695 751.963 131.198 769.171 128.79C817.091 122.066 862.388 115.727 913.357 115.086C980.531 114.254 1044.89 124.897 1107.2 135.181C1168.78 145.35 1232.25 155.84 1300.16 155.84L1300.12 155.827Z" fill="#E7F1F8"/>
            <path d="M1288.7 156.071C1295.37 156.071 1302.12 155.968 1308.88 155.751C1348.73 154.483 1385.27 149.129 1420.61 143.955C1444.3 140.484 1468.84 136.898 1493.84 134.644C1555.08 129.124 1634.56 134.9 1656.13 153.894L1670.56 152.088C1645.59 130.123 1559.01 123.45 1489.79 129.7C1463.67 132.057 1438.63 135.72 1414.4 139.268C1378.6 144.506 1344.8 149.462 1307.41 150.653C1237.03 152.895 1169.86 141.842 1104.85 131.148C1042.77 120.927 978.562 110.361 909.922 110.822C856.639 111.168 808.564 117.277 762.032 123.169C745.364 125.282 728.156 127.459 710.986 129.342C673.444 133.453 579.146 141.112 514.943 123.655C486.739 115.984 470.766 105.789 455.332 95.9272C438.973 85.4892 422.073 74.6925 390.936 67.4563C329.396 53.1504 232.783 59.9384 164.297 73.0147C127.218 80.0973 95.9271 89.357 65.6777 98.3222C43.415 104.918 20.4193 111.732 -4.65991 117.597C-60.7988 130.712 -143.792 141.189 -208.419 131.263C-263.786 122.759 -286.28 104.111 -310.086 84.3621C-320.311 75.8964 -330.844 67.1362 -344.31 59.1059C-377.762 39.1263 -438.222 22.9377 -510.257 14.677C-582.486 6.39057 -657.53 7.12059 -716.1 16.6621L-709.31 21.26C-594.601 2.58676 -423.753 22.1821 -357.814 61.5905C-344.85 69.3262 -334.471 77.9328 -324.44 86.2576C-300.556 106.071 -275.863 126.55 -214.94 135.912C-126.082 149.552 -24.762 128.548 4.17566 121.785C29.9879 115.753 53.3311 108.837 75.9023 102.152C105.573 93.3657 136.208 84.2853 171.937 77.4717C234.094 65.5993 326.348 58.7217 382.024 71.67C410.074 78.1761 425.353 87.961 441.558 98.3094C457.724 108.632 474.431 119.301 505.105 127.638C575.25 146.709 675.798 138.602 715.77 134.234C733.249 132.326 750.65 130.11 767.472 127.984C814.853 121.978 859.571 116.304 910.154 115.971C974.935 115.535 1037.48 125.82 1097.9 135.771C1158.75 145.786 1221.52 156.109 1288.58 156.109L1288.7 156.071Z" fill="#DFEEF8"/>
            <path d="M1276.43 156.313C1283.64 156.313 1290.9 156.198 1298.19 155.954C1338.74 154.61 1375.51 148.936 1411.08 143.454C1434.62 139.83 1459 136.064 1483.93 133.669C1545.74 127.74 1626.84 133.324 1650.11 152.701L1664.46 150.806C1637.99 128.764 1547.9 122.207 1479.65 128.751C1453.56 131.262 1428.64 135.091 1404.56 138.805C1368.56 144.351 1334.61 149.589 1296.64 150.857C1225.11 153.252 1159.83 142.776 1090.72 131.684C1032.19 122.296 971.656 112.588 907.531 111.666C855.443 110.923 808.487 116.469 763.113 121.835C746.136 123.846 728.581 125.921 711.102 127.624C674.101 131.223 581.115 137.742 516.333 120.798C487.82 113.344 470.92 103.828 454.561 94.6453C436.195 84.3353 418.871 74.5888 387.001 67.9418C326.039 55.224 228.616 62.1528 159.089 74.6529C121.856 81.3512 90.5643 90.137 60.2764 98.6412C38.168 104.853 15.3267 111.269 -9.59827 116.802C-37.1083 122.911 -133.142 141.93 -213.242 130.314C-268.648 122.271 -292.029 104.238 -316.761 85.1293C-327.101 77.1375 -337.828 68.8639 -351.139 61.2307C-384.784 41.9683 -444.357 26.164 -514.617 17.8904C-585.148 9.57838 -657.916 9.86014 -714.287 18.6716L-707.727 23.3079C-597.687 6.10757 -430.891 25.7798 -364.527 63.7922C-351.679 71.1564 -341.146 79.2892 -330.96 87.1401C-306.112 106.313 -280.454 126.152 -219.415 135.001C-199.275 137.922 -178.362 139.1 -157.72 139.1C-88.9259 139.1 -23.4498 126.036 -0.994141 121.054C24.6638 115.355 47.8524 108.849 70.2694 102.547C101.329 93.8256 130.653 85.5904 166.458 79.1483C232.05 67.3526 323.146 60.6544 378.821 72.2707C407.527 78.2518 423.926 87.4731 441.327 97.2452C458.38 106.838 476.052 116.764 506.841 124.82C577.256 143.237 676.223 136.346 715.501 132.542C733.404 130.801 751.19 128.7 768.36 126.664C814.352 121.221 857.835 116.085 906.913 116.776C967.875 117.647 1026.95 127.125 1084.09 136.282C1145.51 146.131 1208.87 156.3 1276.5 156.3L1276.43 156.313Z" fill="#D7EBF8"/>
            <path d="M1264.81 156.571C1272.34 156.571 1279.9 156.443 1287.54 156.187C1328.75 154.752 1365.71 148.771 1401.48 142.982C1424.9 139.191 1449.13 135.272 1474.05 132.736C1536.4 126.397 1619.16 131.789 1644.17 151.538L1658.4 149.552C1630.08 127.152 1538.33 120.838 1469.54 127.831C1443.45 130.482 1418.68 134.491 1394.72 138.372C1358.57 144.225 1324.42 149.745 1285.92 151.089C1214.38 153.587 1145.98 142.701 1079.84 132.173C1023.78 123.259 965.829 114.038 904.906 112.565C853.513 111.322 807.328 116.189 762.649 120.902C745.865 122.67 728.502 124.501 711.256 125.961C674.833 129.035 583.081 134.427 517.721 117.995C489.015 110.784 471.266 101.986 454.097 93.4944C434.419 83.748 415.822 74.5522 383.026 68.4815C318.746 56.5706 219.394 65.2669 153.84 76.3325C116.492 82.6337 85.1233 90.9585 54.7968 99.0144C32.8428 104.829 10.1555 110.848 -14.615 116.061C-42.4723 121.914 -139.432 140.165 -218.181 129.419C-273.703 121.85 -298.011 104.394 -323.707 85.9252C-334.163 78.4073 -344.967 70.646 -358.162 63.4098C-429.85 24.091 -598.807 3.75284 -712.628 20.7355L-706.301 25.4102C-600.929 9.66987 -438.146 29.4317 -371.358 66.0609C-358.625 73.0538 -347.976 80.687 -337.713 88.0769C-311.901 106.635 -285.162 125.82 -224.046 134.158C-140.783 145.518 -44.0928 128.318 -6.35815 120.39C19.1455 115.036 42.1412 108.927 64.4039 103.023C95.5022 94.7752 124.903 86.9754 160.824 80.9047C222.982 70.4026 316.547 62.0266 375.502 72.9513C405.057 78.4201 422.651 87.1291 441.287 96.3377C459.19 105.188 477.671 114.345 508.422 122.081C579.107 139.857 676.492 134.184 715.075 130.918C732.785 129.419 750.341 127.562 767.356 125.782C812.614 121.005 855.365 116.509 903.787 117.675C961.817 119.084 1018.42 128.087 1073.17 136.796C1134.4 146.543 1197.52 156.571 1264.81 156.571Z" fill="#CFE8F8"/>
            <path d="M1254.59 156.788C1261.96 156.788 1269.37 156.66 1276.81 156.391C1318.68 154.88 1355.83 148.579 1391.75 142.482C1415.06 138.525 1439.17 134.439 1464.1 131.775C1526.95 125.039 1611.37 130.226 1638.11 150.359L1652.23 148.297C1622.02 125.551 1528.61 119.48 1459.35 126.909C1433.27 129.701 1408.61 133.889 1384.73 137.936C1348.46 144.083 1314.16 149.898 1275.15 151.32C1206.48 153.804 1140.65 143.11 1076.99 132.762C1020.81 123.63 962.744 114.191 901.705 113.448C849.772 112.808 803.356 116.727 758.483 120.518C743.127 121.811 727.231 123.156 711.373 124.296C675.49 126.87 584.973 131.122 519.111 115.203C490.444 108.274 471.924 100.218 454.021 92.4311C432.877 83.2226 412.891 74.5263 379.015 69.032C315.969 58.786 218.662 66.9571 148.594 78.0356C111.13 83.9526 79.6843 91.8035 49.2806 99.3983C27.5195 104.829 4.98682 110.451 -19.6294 115.331C-55.7821 122.503 -147.919 138.141 -223.119 128.535C-278.833 121.427 -304.067 104.56 -330.766 86.7062C-341.261 79.6877 -352.142 72.4131 -365.144 65.5996C-437.218 27.7921 -602.008 7.38984 -710.929 22.8228L-704.872 27.5359C-604.13 13.2684 -445.359 33.0943 -378.185 68.3403C-365.607 74.9362 -354.92 82.0827 -344.579 88.9859C-316.49 107.762 -289.945 125.487 -228.636 133.312C-147.109 143.725 -49.7631 127.28 -11.6813 119.724C13.6295 114.703 36.4709 109.004 58.5792 103.484C89.7546 95.697 119.194 88.3583 155.269 82.659C222.057 72.1057 314.156 64.1907 372.263 73.6426C402.859 78.5991 420.878 86.45 441.752 95.5433C460.31 103.625 479.525 111.988 510.006 119.352C580.922 136.489 676.725 132.032 714.614 129.316C730.742 128.164 746.792 126.806 762.264 125.5C808.102 121.632 851.431 117.982 901.126 118.584C958.886 119.288 1015.49 128.484 1070.2 137.385C1129.12 146.965 1189.88 156.84 1254.59 156.84V156.788Z" fill="#C7E6F9"/>
            <path d="M1243.25 157.031C1250.81 157.031 1258.45 156.891 1266.13 156.609C1308.61 155.008 1345.92 148.399 1381.99 141.996C1405.22 137.884 1429.22 133.619 1454.14 130.815C1517.54 123.668 1603.58 128.663 1632.09 149.168L1646.1 147.029C1613.99 123.937 1518.92 118.11 1449.2 125.961C1423.12 128.906 1398.54 133.261 1374.74 137.474C1338.32 143.929 1303.94 150.026 1264.39 151.511C1196.25 154.086 1130.81 143.481 1067.54 133.235C1013.4 124.462 957.42 115.407 898.966 114.293C847.341 113.307 801.427 116.496 757.056 119.583C742.201 120.607 726.883 121.683 711.527 122.579C676.223 124.641 586.903 127.766 520.462 112.346C492.065 105.751 473.004 98.4631 454.561 91.4062C431.759 82.6844 410.19 74.4364 375.002 69.5183C297.565 58.6576 178.111 74.526 143.347 79.649C105.805 85.1818 74.2441 92.5589 43.7633 99.6926C22.1565 104.739 -0.18335 109.964 -24.6066 114.524C-70.1351 123.015 -157.064 136.014 -228.019 127.574C-283.965 120.927 -310.201 104.623 -337.981 87.3719C-348.476 80.8529 -359.357 74.1034 -372.089 67.6997C-444.51 31.3907 -605.172 10.9372 -709.154 24.8076L-703.405 29.5592C-607.255 16.7518 -452.497 36.6545 -384.938 70.5301C-372.591 76.7289 -361.903 83.3631 -351.563 89.7797C-322.355 107.928 -294.729 125.064 -233.189 132.39C-156.446 141.509 -64.8105 127.907 -17.0057 118.981C8.07361 114.293 30.7606 109.004 52.676 103.881C83.9672 96.5676 113.484 89.6644 149.636 84.3365C182.972 79.4185 297.295 64.1776 369.022 74.2443C400.892 78.7013 420.376 86.1424 442.909 94.7617C461.082 101.716 481.686 109.593 511.626 116.534C582.774 133.056 676.995 129.79 714.189 127.613C729.777 126.703 745.249 125.628 760.219 124.59C805.632 121.44 848.537 118.455 898.117 119.403C953.484 120.453 1008.04 129.291 1060.82 137.833C1119.16 147.285 1179.31 157.019 1243.28 157.019L1243.25 157.031Z" fill="#BFE3F9"/>
            <path d="M1231.9 157.262C1239.7 157.262 1247.53 157.122 1255.4 156.814C1298.46 155.124 1335.92 148.195 1372.15 141.496C1395.3 137.219 1419.22 132.787 1444.15 129.842C1508.31 122.273 1596.67 127.754 1625.99 147.977L1639.88 145.761C1605.89 122.311 1509.12 116.74 1438.94 125.026C1412.82 128.113 1388.28 132.647 1364.59 137.027C1328.05 143.776 1293.56 150.154 1253.55 151.73C1185.87 154.381 1120.82 143.866 1057.89 133.71C1005.84 125.308 951.978 116.612 896.109 115.164C844.716 113.832 799.265 116.291 755.28 118.661C741.043 119.429 726.304 120.223 711.565 120.889C676.801 122.439 588.677 124.437 521.696 109.516C493.954 103.33 474.585 96.837 455.795 90.5358C431.025 82.2365 407.643 74.3984 370.796 70.0439C300.574 61.7319 194.778 73.5403 137.983 81.3144C100.326 86.4758 68.6487 93.3662 38.052 100.039C16.6382 104.701 -5.50879 109.529 -29.7006 113.756C-86.1482 123.643 -167.289 133.902 -233.074 126.653C-289.367 120.454 -316.684 104.714 -345.583 88.0383C-356.001 82.0188 -366.804 75.8072 -379.228 69.8518C-451.958 35.0412 -608.453 14.5493 -707.573 26.8445L-702.172 31.6472C-610.613 20.2871 -459.829 40.2794 -391.922 72.7719C-379.846 78.548 -369.235 84.6699 -358.972 90.5998C-328.568 108.146 -299.823 124.706 -237.974 131.519C-167.019 139.332 -81.6338 128.638 -22.5239 118.289C2.32373 113.948 24.7793 109.055 46.5017 104.317C77.9087 97.4774 107.579 91.0224 143.886 86.0532C198.675 78.548 300.304 67.1238 365.664 74.8723C399.193 78.8298 420.375 85.9251 444.876 94.1346C463.28 100.308 484.115 107.301 513.13 113.756C584.471 129.662 677.11 127.588 713.648 125.961C728.619 125.295 743.435 124.488 757.788 123.72C802.853 121.286 845.411 118.981 894.952 120.275C947.927 121.645 1000.4 130.123 1051.18 138.32C1108.97 147.657 1168.55 157.275 1231.86 157.275L1231.9 157.262Z" fill="#B7E0F9"/>
            <path d="M1220.6 157.504C1228.58 157.504 1236.61 157.35 1244.71 157.017C1288.35 155.25 1325.97 148.001 1362.31 141.008C1385.39 136.564 1409.27 131.966 1434.23 128.892C1498.9 120.926 1588.95 126.216 1620.01 146.797L1633.83 144.505C1597.94 120.721 1499.52 115.381 1428.87 124.09C1402.67 127.317 1378.21 132.03 1354.6 136.577C1317.98 143.634 1283.37 150.294 1242.86 151.933C1175.65 154.661 1110.94 144.236 1048.32 134.156C998.357 126.113 946.693 117.788 893.448 116.021C842.132 114.317 796.99 116.047 753.352 117.711C739.809 118.224 725.842 118.762 711.797 119.197C677.574 120.247 590.645 121.118 523.124 106.671C496.617 100.998 476.4 95.0679 458.535 89.8169C430.254 81.5049 405.792 74.3327 366.784 70.5674C315.699 65.6109 236.989 69.7733 132.775 82.9649C95.002 87.7421 63.1707 94.1586 32.3811 100.37C11.1602 104.648 -10.7552 109.066 -34.677 112.973C-118.249 126.625 -186.657 130.916 -238.012 125.716C-294.768 119.978 -323.204 104.763 -353.299 88.6514C-363.562 83.157 -374.173 77.4706 -386.211 71.989C-459.211 38.6769 -611.538 18.121 -705.759 28.8664L-700.743 33.7076C-613.699 23.7947 -466.927 43.8511 -398.673 74.9987C-386.983 80.3266 -376.526 85.9363 -366.417 91.341C-334.74 108.298 -304.8 124.32 -242.488 130.609C-187.236 136.193 -115.008 131.8 -27.8091 117.558C-3.27002 113.549 18.954 109.066 40.4451 104.738C72.0063 98.3723 101.831 92.3528 138.293 87.7421C239.266 74.9603 314.696 70.8363 362.463 75.4726C398.152 78.9178 421.38 85.7441 448.311 93.6463C466.561 99.0126 487.241 105.083 514.751 110.962C586.285 126.267 677.342 125.37 713.186 124.282C727.385 123.846 741.468 123.308 755.088 122.796C799.922 121.08 842.248 119.466 891.905 121.105C942.411 122.783 992.839 130.89 1041.57 138.741C1098.87 147.975 1157.94 157.479 1220.6 157.479V157.504Z" fill="#AFDDF9"/>
            <path d="M1209.33 157.748C1217.51 157.748 1225.77 157.582 1234.06 157.236C1278.28 155.379 1315.97 147.822 1352.47 140.522C1375.51 135.912 1399.31 131.134 1424.32 127.933C1489.45 119.569 1581.24 124.679 1614.03 145.607L1627.73 143.237C1589.92 119.108 1489.83 114.024 1418.76 123.143C1392.49 126.511 1368.1 131.403 1344.49 136.129C1307.79 143.481 1273.11 150.422 1232.13 152.139C1165.38 154.943 1100.91 144.582 1038.6 134.567C990.793 126.882 941.367 118.929 890.746 116.88C839.314 114.792 794.326 115.778 750.842 116.726C738.187 117.008 725.146 117.29 711.989 117.494C640.764 118.622 572.432 113.652 524.512 103.829C500.05 98.8084 480.488 93.7751 463.241 89.3438C431.796 81.2623 404.672 74.2694 362.77 71.0932C299.416 66.252 208.32 75.2172 127.604 84.6178C89.6376 89.0364 57.6133 94.979 26.6694 100.717C5.71863 104.597 -15.9268 108.619 -39.5785 112.205C-126.005 125.32 -192.523 129.444 -242.913 124.808C-300.248 119.531 -328.569 105.481 -361.326 89.2157C-371.319 84.2592 -381.659 79.1363 -393.157 74.1414C-466.427 42.3277 -614.51 21.7206 -703.908 30.9035L-699.355 35.796C-616.864 27.3174 -474.028 47.4635 -405.427 77.2536C-394.199 82.1204 -384.013 87.1793 -374.174 92.0717C-341.108 108.478 -309.894 123.962 -247.042 129.751C-192.986 134.72 -123.034 130.52 -33.1736 116.88C-8.98181 113.204 12.9337 109.144 34.1545 105.212C65.9474 99.3207 95.9653 93.7495 132.658 89.4718C206.7 80.8524 299.377 71.5415 359.259 76.1137C397.842 79.0338 422.497 85.3863 453.711 93.4165C471.267 97.9375 491.176 103.048 516.332 108.222C585.474 122.4 669.007 123.347 712.683 122.643C725.956 122.425 739.074 122.144 751.807 121.862C796.564 120.888 838.813 119.953 888.817 121.99C936.853 123.937 982.999 131.352 1031.81 139.203C1088.64 148.335 1147.21 157.748 1209.29 157.748H1209.33Z" fill="#A7DAFA"/>
            <path d="M1198.03 157.992C1206.4 157.992 1214.85 157.825 1223.34 157.454C1268.13 155.507 1305.94 147.643 1342.48 140.048C1365.48 135.271 1389.25 130.328 1414.32 126.985C1479.92 118.225 1573.4 123.143 1607.94 144.429L1621.52 141.995C1581.78 117.52 1480.03 112.679 1408.54 122.233C1382.18 125.755 1357.84 130.814 1334.26 135.707C1297.49 143.353 1262.73 150.576 1221.29 152.369C1154.89 155.251 1090.72 144.954 1028.64 134.989C983.039 127.664 935.851 120.094 887.93 117.776C835.997 115.266 792.899 115.484 747.332 115.714C735.719 115.778 724.028 115.83 712.105 115.842C670.86 115.919 591.879 114.024 525.786 101.024C504.565 96.849 486.662 92.8018 470.882 89.2414C433.726 80.8397 404.402 74.2055 358.565 71.6696C293.783 68.0579 200.026 78.0349 124.711 86.0523L122.28 86.3085C84.0824 90.3684 51.8265 95.8244 20.574 101.114C-0.0681152 104.597 -21.4048 108.209 -44.6321 111.462C-105.787 120.03 -184.188 129.188 -247.967 123.911C-306.073 119.095 -335.667 105.494 -369.968 89.7409C-379.536 85.3351 -389.452 80.7885 -400.294 76.3059C-473.757 45.9779 -617.674 25.3195 -702.21 32.9656L-698.159 37.9092C-620.143 30.8652 -481.242 51.0753 -412.332 79.5205C-401.722 83.9007 -391.96 88.3961 -382.507 92.7378C-347.975 108.619 -315.334 123.616 -251.748 128.88C-183.532 134.528 -102.044 125.064 -38.6902 116.188C-14.9613 112.858 6.64539 109.208 27.519 105.686C59.6205 100.256 89.9471 95.1328 126.91 91.2009L129.341 90.9448C203.074 83.0938 294.864 73.3345 355.942 76.7413C398.422 79.0851 425.16 85.1302 462.123 93.4934C478.097 97.1051 496.192 101.203 517.838 105.456C587.134 119.083 669.162 121.055 712.067 120.991C724.066 120.991 735.796 120.914 747.448 120.863C792.398 120.632 834.878 120.415 885.615 122.861C931.182 125.064 975.206 132.133 1021.81 139.613C1078.22 148.668 1136.37 158.004 1197.87 158.004L1198.03 157.992Z" fill="#9FD7FA"/>
            <path d="M1186.76 158.235C1195.32 158.235 1203.93 158.055 1212.65 157.658C1257.98 155.622 1295.87 147.451 1332.53 139.562C1355.48 134.618 1379.25 129.495 1404.37 126.011C1470.46 116.854 1565.61 121.593 1601.92 143.224L1615.38 140.727C1575.02 116.7 1470.62 111.283 1398.39 121.285C1371.96 124.948 1347.61 130.187 1324.08 135.258C1287.23 143.199 1252.43 150.691 1210.53 152.574C1144.47 155.545 1080.5 145.274 1018.61 135.348C975.245 128.393 930.411 121.196 885.191 118.647C831.984 115.65 788.269 115.125 741.969 114.561C732.208 114.446 722.33 114.331 712.298 114.177C671.747 113.588 593.731 110.745 527.136 98.2064C511.008 95.171 496.501 92.251 483.691 89.6895C438.51 80.609 405.83 74.0516 354.475 72.233C296.986 70.1838 217.504 78.0475 147.359 85.002C137.019 86.0266 126.872 87.0255 117.071 87.9733C78.5651 91.6874 47.3511 96.4518 14.3236 101.498C-5.89417 104.584 -26.8064 107.774 -49.532 110.694C-119.561 119.697 -192.677 127.42 -252.867 122.989C-311.977 118.634 -342.998 105.43 -378.957 90.1377C-387.947 86.3211 -397.246 82.3636 -407.239 78.4446C-480.895 49.6023 -620.529 28.8927 -700.281 34.989L-696.808 39.9839C-623.229 34.3614 -488.226 54.6612 -419.007 81.7617C-409.207 85.6039 -399.985 89.5102 -391.111 93.3012C-354.92 108.696 -320.735 123.245 -256.185 127.996C-192.021 132.722 -116.243 124.782 -43.9375 115.484C-20.7874 112.512 0.356445 109.285 20.8057 106.16C53.3315 101.203 84.0054 96.5158 121.431 92.9041C131.27 91.9564 141.456 90.9446 151.835 89.92C220.591 83.1065 298.529 75.3964 352.893 77.3303C400.853 79.0209 430.639 85.002 475.782 94.0696C488.669 96.6567 503.292 99.5896 519.574 102.663C588.986 115.727 669.741 118.698 711.681 119.3C721.751 119.441 731.629 119.569 741.468 119.684C787.227 120.235 830.48 120.76 882.683 123.706C925.704 126.127 967.605 132.85 1011.94 139.971C1068 148.962 1125.72 158.235 1186.76 158.235Z" fill="#97D4FA"/>
            <path d="M1175.53 158.477C1184.29 158.477 1193.09 158.285 1201.96 157.876C1247.84 155.749 1285.8 147.271 1322.53 139.087C1345.49 133.964 1369.22 128.675 1394.42 125.063C1460.93 115.521 1557.78 120.068 1595.9 142.046L1609.29 139.484C1567.08 115.137 1460.93 109.937 1388.32 120.363C1361.81 124.166 1337.47 129.597 1313.93 134.835C1277.04 143.07 1242.17 150.831 1199.8 152.804C1134.02 155.852 1070.2 145.606 1008.5 135.693C967.451 129.097 924.971 122.284 882.529 119.53C826.313 115.893 780.63 114.535 732.285 113.114C725.803 112.921 719.244 112.729 712.569 112.524C672.635 111.321 595.661 107.478 528.526 95.3881C520.346 93.9153 512.591 92.5064 505.221 91.1488C445.687 80.2882 409.766 73.7308 350.425 72.7958C299.147 71.9761 232.012 78.3542 167.037 84.5402C147.746 86.3717 129.496 88.1135 111.863 89.6376C72.8551 93.0187 41.1011 97.3348 7.53345 101.907C-12.1056 104.584 -32.4391 107.35 -54.4702 109.925C-113.194 116.789 -193.564 126.203 -257.844 122.066C-318.227 118.173 -350.907 105.314 -388.719 90.4316C-396.86 87.217 -405.31 83.8998 -414.261 80.5827C-488.033 53.2261 -623.384 32.4653 -698.351 37.0247L-695.573 42.058C-626.432 37.8444 -495.286 58.2338 -425.797 84.0023C-417 87.2682 -408.628 90.5597 -400.525 93.736C-362.443 108.721 -326.522 122.873 -260.776 127.099C-192.406 131.505 -109.722 121.823 -49.3386 114.766C-26.9603 112.153 -6.43384 109.361 13.3981 106.659C46.5027 102.15 77.7552 97.8984 115.799 94.6069C133.624 93.0572 151.913 91.3153 171.32 89.4711C235.06 83.4004 300.961 77.1375 349.692 77.9188C405.483 78.7897 440.247 85.1294 497.813 95.6443C505.221 96.989 512.977 98.4107 521.195 99.8963C590.761 112.422 670.089 116.379 711.18 117.635C717.816 117.84 724.414 118.032 730.896 118.224C778.855 119.645 824.152 120.977 879.558 124.563C920.032 127.189 959.735 133.554 1001.75 140.304C1057.51 149.256 1114.88 158.477 1175.49 158.477H1175.53Z" fill="#8FD1FA"/>
            <path d="M1164.27 158.721C1173.18 158.721 1182.17 158.516 1191.27 158.081C1237.69 155.852 1275.73 147.079 1312.5 138.601C1335.42 133.311 1359.15 127.843 1384.46 124.09C1451.44 114.164 1549.98 118.519 1589.88 140.829L1603.15 138.217C1559.05 113.55 1451.21 108.58 1378.17 119.415C1351.55 123.36 1327.24 128.97 1303.71 134.387C1266.74 142.904 1231.86 150.96 1189.07 153.009C1123.52 156.147 1059.82 145.901 998.202 135.988C959.503 129.764 919.531 123.322 879.867 120.414C814.777 115.637 762.959 113.217 712.839 110.873C673.561 109.041 597.552 104.226 529.953 92.571C455.796 79.802 413.894 73.1293 346.412 73.3855C300.729 73.5264 241.735 79.0592 184.709 84.4127C158.549 86.8717 131.502 89.4076 106.693 91.3159C66.7976 94.3896 34.3103 98.2831 -0.144653 102.394C-18.9348 104.636 -38.3809 106.967 -59.3704 109.182L-71.7941 110.501C-130.287 116.713 -203.055 124.449 -262.782 121.17C-324.786 117.763 -359.395 105.173 -399.406 90.5986C-406.429 88.0372 -413.721 85.386 -421.283 82.7349C-495.132 56.8639 -626.238 36.0519 -696.344 39.0616L-694.377 44.1461C-629.518 41.3413 -502.27 61.8204 -432.511 86.2569C-425.026 88.8825 -417.811 91.508 -410.827 94.0566C-368.848 109.336 -332.618 122.528 -265.329 126.229C-201.936 129.712 -127.2 121.772 -67.1255 115.381L-54.7402 114.062C-33.4807 111.821 -13.9189 109.477 5.02551 107.223C39.0175 103.163 71.119 99.3205 110.127 96.3236C135.283 94.3896 162.485 91.8282 188.837 89.3563C244.899 84.0925 302.851 78.6493 346.489 78.5213C410.576 78.2907 448.89 84.3998 522.777 97.1304C592.42 109.131 670.359 114.075 710.64 115.957C760.451 118.288 811.999 120.696 876.471 125.435C914.36 128.214 951.786 134.246 991.412 140.624C1046.89 149.551 1104.04 158.747 1164.23 158.747L1164.27 158.721Z" fill="#87CEFB"/>
            <path d="M1153.04 158.977C1162.14 158.977 1171.33 158.759 1180.59 158.311C1227.5 155.993 1265.62 146.912 1302.47 138.139C1325.39 132.683 1349.12 127.035 1374.51 123.155C1441.91 112.832 1542.15 117.007 1583.86 139.663L1597.02 136.987C1551.03 112.012 1441.49 107.261 1368.02 118.493C1341.29 122.591 1316.98 128.367 1293.44 133.977C1256.44 142.788 1221.48 151.1 1178.27 153.239C1112.87 156.467 1049.21 146.195 987.63 136.244C951.401 130.391 913.936 124.346 877.089 121.298C815.895 116.251 768.361 112.755 712.993 109.22C674.371 106.761 599.365 100.959 531.227 89.7529C457.224 77.573 412.39 72.4116 342.245 73.9742C301.732 74.8579 252.654 79.5198 200.721 84.4378C167.423 87.6012 132.968 90.8671 101.407 92.9932C60.0068 95.7852 26.1306 99.2816 -9.71338 102.97C-27.0759 104.763 -45.0559 106.607 -64.3477 108.426C-72.4888 109.195 -80.9385 110.014 -89.5812 110.847C-147.071 116.444 -212.199 122.783 -267.798 120.247C-331.924 117.327 -366.996 105.506 -411.406 90.547C-416.923 88.6771 -422.557 86.7816 -428.383 84.8605C-502.193 60.4623 -628.939 39.599 -694.338 41.0975L-693.296 46.2077C-632.72 44.8245 -509.253 65.3804 -439.302 88.4978C-433.514 90.4061 -427.919 92.2888 -422.441 94.1458C-377.8 109.182 -339.255 122.168 -269.92 125.332C-211.08 128.009 -144.254 121.502 -85.2599 115.765C-76.6558 114.932 -68.2832 114.113 -60.1807 113.357C-40.7346 111.526 -22.6389 109.668 -5.19922 107.875C30.259 104.225 63.7881 100.767 104.455 98.0265C136.595 95.862 171.32 92.5577 204.926 89.3815C256.049 84.5275 304.356 79.9552 343.248 79.0971C409.804 77.5987 452.902 82.5935 524.359 94.3508C594.118 105.826 670.667 111.756 710.061 114.266C765.12 117.776 812.461 121.259 873.346 126.28C908.612 129.187 943.684 134.861 980.84 140.854C1036.13 149.781 1093.04 158.977 1152.96 158.977H1153.04Z" fill="#7FCBFB"/>
            <path d="M1141.81 159.221C1151.11 159.221 1160.45 159.003 1169.86 158.516C1217.28 156.096 1255.44 146.721 1292.36 137.666C1315.28 132.031 1339.01 126.216 1364.51 122.195C1432.38 111.488 1534.28 115.483 1577.8 138.46L1590.88 135.732C1542.96 110.437 1431.73 105.916 1357.88 117.558C1331.02 121.797 1306.72 127.766 1283.18 133.542C1246.14 142.635 1211.14 151.229 1167.51 153.457C1102.18 156.787 1038.48 146.452 976.904 136.449C943.221 130.98 908.38 125.32 874.427 122.195C856.987 120.594 840.743 119.069 825.233 117.609C785.685 113.908 751.577 110.706 713.264 107.594C675.259 104.507 601.294 97.7323 532.616 86.9485C454.909 74.7558 407.682 71.7461 338.194 74.5893C302.542 76.0238 260.255 80.1606 215.498 84.5407C175.564 88.447 134.241 92.4813 96.1982 94.697C51.5571 97.2969 15.0187 100.46 -23.7191 103.816C-38.2651 105.084 -53.3126 106.377 -69.2861 107.697C-81.3242 108.695 -93.7096 109.797 -106.828 110.975C-160.382 115.778 -221.074 121.234 -272.775 119.377C-339.679 116.969 -377.414 105.186 -425.141 90.2528C-428.537 89.1898 -431.971 88.114 -435.443 87.0381C-509.176 64.1257 -631.563 43.224 -692.216 43.1855V48.3085C-635.807 48.3469 -516.121 68.9925 -445.977 90.7779C-442.504 91.8537 -439.07 92.9296 -435.713 93.9798C-387.831 108.952 -346.47 121.874 -274.396 124.461C-219.8 126.421 -157.604 120.837 -102.738 115.919C-89.6969 114.753 -77.4274 113.652 -65.5051 112.666C-49.4543 111.347 -34.3682 110.04 -19.7837 108.772C18.6069 105.442 54.8754 102.305 98.8605 99.7431C137.753 97.4762 179.5 93.4034 219.858 89.4587C263.998 85.1426 305.706 81.0699 340.084 79.6739C406.216 76.9587 451.397 79.866 526.018 91.572C595.893 102.548 671.015 109.438 709.598 112.563C747.641 115.65 781.672 118.839 821.027 122.54C836.576 124 852.82 125.524 870.298 127.125C902.901 130.122 935.543 135.425 970.152 141.047C1025.33 149.999 1082.08 159.221 1141.85 159.221H1141.81Z" fill="#78C9FB"/>
            <path d="M1130.62 159.465C1140.07 159.465 1149.6 159.234 1159.21 158.722C1207.13 156.199 1245.37 146.529 1282.33 137.18C1305.25 131.378 1328.98 125.384 1354.6 121.222C1422.89 110.131 1526.49 113.934 1571.82 137.257L1584.79 134.478C1534.97 108.876 1422.04 104.572 1347.81 116.624C1320.8 121.004 1296.49 127.165 1272.95 133.107C1235.87 142.482 1200.88 151.345 1156.78 153.663C1091.42 157.095 1027.64 146.657 965.945 136.565C933.458 131.25 902.784 126.23 871.724 123.066C842.169 120.056 816.357 117.149 791.432 114.344C765.195 111.399 740.425 108.607 713.493 105.943C676.183 102.241 603.222 94.4672 534.003 84.106C450.509 71.6059 399.347 71.3242 334.18 75.1664C303.197 76.9851 267.237 80.6608 229.156 84.567C183.048 89.293 135.32 94.1854 90.988 96.3499C37.1255 98.9754 -5.23914 101.998 -54.2787 105.494L-74.1877 106.916C-89.9684 108.043 -106.328 109.401 -123.652 110.848C-175.778 115.202 -229.641 119.698 -277.715 118.443C-348.285 116.598 -389.376 104.636 -441.348 89.4851L-442.505 89.1521C-516.007 67.7381 -633.957 46.8108 -689.98 45.2227L-691.292 50.3328C-638.856 51.8057 -522.913 72.5537 -452.692 93.0071L-451.534 93.3401C-397.401 109.106 -354.651 121.568 -278.95 123.553C-228.367 124.885 -170.724 120.069 -119.909 115.83C-102.739 114.396 -86.4958 113.038 -70.9852 111.937L-51.0762 110.515C-2.30676 107.031 39.7878 104.034 93.1873 101.422C138.677 99.2059 186.984 94.2495 233.67 89.4723C271.289 85.6173 306.785 81.9799 336.842 80.2253C400.389 76.4728 447.306 76.7673 527.598 88.7935C597.666 99.2828 671.322 107.121 709.018 110.861C735.679 113.512 760.334 116.278 786.455 119.211C811.495 122.029 837.424 124.936 867.171 127.971C897.035 131.02 927.169 135.95 959.077 141.163C1014.17 150.179 1070.93 159.465 1130.54 159.465H1130.62Z" fill="#70C6FB"/>
            <path d="M1119.39 159.708C1129.04 159.708 1138.72 159.465 1148.52 158.94C1196.95 156.314 1235.22 146.35 1272.22 136.719C1295.18 130.738 1318.87 124.565 1344.64 120.274C1421.77 107.403 1523.05 114.639 1565.84 136.066L1578.73 133.235C1531.85 109.746 1421.5 101.716 1337.74 115.689C1310.61 120.21 1286.27 126.55 1262.73 132.685C1225.61 142.341 1190.58 151.473 1146.09 153.881C1080.62 157.428 1016.64 146.85 954.757 136.629C925.163 131.737 897.19 127.113 869.102 123.963C835.881 120.236 807.484 116.445 780.051 112.795C757.788 109.836 736.722 107.031 713.765 104.316C677.226 100 605.461 91.2782 535.393 81.3012C453.866 69.6849 400.39 70.4021 330.206 75.794C303.661 77.8176 273.604 81.0963 241.734 84.5671C192.309 89.959 136.286 96.0554 85.8186 98.0533C25.5898 100.435 -20.6331 102.715 -79.0485 106.186C-98.4945 107.339 -118.789 108.927 -140.242 110.617C-188.394 114.383 -238.167 118.289 -282.692 117.559C-352.451 116.419 -394.082 106.417 -449.565 91.3166C-522.604 71.4395 -636.078 50.4738 -687.625 47.3359L-690.403 52.3693C-641.788 55.3278 -529.472 76.1654 -459.327 95.2613C-403.227 110.541 -357.737 121.44 -283.425 122.669C-236.7 123.425 -185.847 119.455 -136.692 115.599C-115.433 113.935 -95.3693 112.359 -76.3091 111.232C-18.241 107.774 27.7505 105.507 87.6321 103.138C139.643 101.089 196.438 94.8899 246.519 89.4339C278.003 86.0015 307.789 82.7613 333.64 80.7889C400.621 75.6531 451.667 74.9615 529.258 86.0143C599.75 96.0554 671.824 104.828 708.556 109.157C731.243 111.834 752.116 114.613 774.263 117.559C801.928 121.235 830.518 125.039 864.124 128.817C891.21 131.865 918.72 136.412 947.85 141.214C1003.02 150.333 1059.78 159.708 1119.43 159.708H1119.39Z" fill="#68C3FC"/>
            <path d="M1108.16 159.963C1117.96 159.963 1127.84 159.707 1137.8 159.156C1186.68 156.428 1224.99 146.17 1262.03 136.257C1284.99 130.109 1308.72 123.757 1334.61 119.325C1412.2 106.031 1515.3 113.152 1559.74 134.886L1572.52 132.005C1523.9 108.247 1411.74 100.357 1327.55 114.779C1300.27 119.453 1275.92 125.972 1252.39 132.286C1215.27 142.225 1180.2 151.625 1135.29 154.123C1069.5 157.786 1005.26 147.028 943.104 136.615C916.52 132.171 891.44 127.97 866.4 124.884C831.675 120.593 802.39 116.059 774.07 111.679C753.89 108.554 734.83 105.596 713.956 102.727C663.875 95.8492 598.476 86.8712 536.743 78.5079C456.528 67.6472 400.89 69.4019 326.193 76.4331C303.93 78.5207 279.275 81.4024 253.193 84.4506C198.752 90.8159 137.057 98.0392 80.609 99.7554C68.8025 100.114 57.536 100.447 46.6169 100.767C1.70581 102.086 -37.1091 103.213 -83.9495 105.468C-106.675 106.556 -130.404 108.439 -155.483 110.437C-200.047 113.972 -246.116 117.635 -287.284 116.687C-358.895 115.035 -403.613 106.928 -456.666 93.4798C-527.505 75.5238 -638.587 54.1482 -685.234 49.4863L-689.671 54.3916C-644.413 58.9126 -535.723 79.8911 -466.041 97.5526C-410.635 111.589 -363.834 120.055 -288.365 121.797C-244.842 122.809 -197.616 119.043 -151.895 115.419C-127.163 113.459 -103.781 111.602 -81.7502 110.539C-35.3344 108.311 3.28772 107.184 47.9674 105.865C58.8865 105.544 70.1914 105.211 81.998 104.853C140.375 103.085 203.034 95.7467 258.324 89.279C284.175 86.2564 308.599 83.4004 330.398 81.3512C403.398 74.4864 454.444 72.8855 530.917 83.2467C592.65 91.6099 658.01 100.575 708.092 107.453C728.657 110.27 747.563 113.203 767.588 116.315C796.178 120.747 825.733 125.319 861.037 129.674C885.267 132.658 909.999 136.807 936.159 141.187C991.487 150.447 1048.44 159.976 1108.24 159.976L1108.16 159.963Z" fill="#60C0FC"/>
            <path d="M1097.71 160.183C1107.47 160.183 1117.31 159.926 1127.15 159.363C1176.5 156.533 1214.85 145.979 1251.93 135.772C1274.88 129.445 1298.65 122.913 1324.66 118.341C1402.71 104.624 1507.62 111.643 1553.73 133.658L1566.38 130.738C1516.03 106.699 1402.02 98.9504 1317.4 113.82C1290.01 118.635 1265.62 125.346 1242.05 131.827C1204.89 142.047 1169.78 151.704 1124.48 154.304C1058.28 158.108 993.571 147.081 931.027 136.438C907.646 132.455 885.576 128.702 863.66 125.743C828.279 120.966 798.802 115.728 770.288 110.669C752.27 107.467 733.634 104.163 714.111 101.076C670.28 94.1732 604.148 84.1578 538.016 75.6665C450.624 64.4344 388.544 69.6342 322.103 77.0241C303.93 79.0348 284.253 81.5195 263.456 84.1578C204.462 91.6245 137.558 100.09 75.2845 101.409C53.485 101.87 33.4215 102.152 14.014 102.421C-19.9008 102.895 -51.9636 103.33 -88.9266 104.688C-114.662 105.636 -141.477 107.672 -169.836 109.837C-211.159 112.987 -253.871 116.24 -292.339 115.754C-358.355 114.921 -404.809 109.452 -463.842 95.582C-530.977 79.8161 -639.435 58.0435 -682.765 51.627L-689.054 56.3017C-650.779 61.9625 -545.755 82.6081 -472.755 99.7572C-411.021 114.268 -362.252 119.98 -292.917 120.864C-252.443 121.376 -208.69 118.046 -166.364 114.819C-138.429 112.693 -112.038 110.682 -87.1904 109.773C-50.7676 108.441 -18.9749 107.992 14.7085 107.531C34.1931 107.262 54.3723 106.981 76.3263 106.52C140.915 105.149 208.976 96.5298 269.012 88.935C289.654 86.3223 309.177 83.8504 327.08 81.8653C392.904 74.5522 449.776 69.8007 532.499 80.4308C598.168 88.8709 663.914 98.8351 707.552 105.7C726.728 108.722 744.399 111.86 763.035 115.177C791.895 120.313 821.759 125.615 857.873 130.482C879.132 133.351 900.932 137.065 924.005 140.984C977.289 150.052 1036.67 160.17 1097.71 160.17V160.183Z" fill="#58BDFC"/>
            <path d="M1086.48 160.439C1096.44 160.439 1106.43 160.17 1116.46 159.581C1166.31 156.635 1204.66 145.8 1241.78 135.311C1264.77 128.817 1288.54 122.093 1314.7 117.393C1393.22 103.254 1499.94 110.157 1547.75 132.467L1560.32 129.496C1508.24 105.188 1392.41 97.58 1307.37 112.885C1279.82 117.841 1255.4 124.745 1231.82 131.404C1194.63 141.906 1159.52 151.832 1113.8 154.522C1046.93 158.466 981.649 147.119 918.527 136.143C898.541 132.672 879.673 129.381 861.038 126.64C825.464 121.402 796.063 115.485 767.666 109.773C750.573 106.34 732.94 102.78 714.343 99.4627C671.438 91.8167 606.232 80.9816 539.444 72.8489C452.4 62.2443 387.773 68.7377 318.246 77.6388C312.265 78.4073 306.092 79.1885 299.764 80.0082C231.819 88.7301 147.282 99.5779 69.4208 103.126C37.2808 104.586 9.30774 104.24 -20.3629 103.881C-43.6288 103.599 -67.6663 103.305 -93.7487 103.958C-124.191 104.727 -157.45 107.032 -189.59 109.26C-225.897 111.783 -263.477 114.383 -297.624 114.857C-361.402 115.728 -409.979 110.925 -470.902 97.7337C-527.311 85.5026 -605.057 69.4165 -651.511 59.7981C-663.163 57.3903 -672.964 55.3539 -680.179 53.8555L-688.358 58.1972C-681.182 59.6957 -671.343 61.732 -659.691 64.1398C-613.275 73.7454 -535.645 89.8187 -479.352 102.011C-426.068 113.551 -374.713 121.018 -297.006 119.967C-261.548 119.481 -223.389 116.83 -186.426 114.268C-153.283 111.976 -121.992 109.798 -92.5526 109.055C-67.319 108.415 -43.7446 108.71 -20.9032 108.991C8.11157 109.35 38.0911 109.709 71.5428 108.197C151.179 104.573 236.68 93.6097 305.359 84.7854C311.686 83.9785 317.821 83.1845 323.802 82.416C392.75 73.5917 452.014 67.6491 534.159 77.6517C600.136 85.6947 664.609 96.4017 707.09 103.971C725.301 107.211 742.008 110.58 759.679 114.14C788.501 119.942 818.326 125.948 854.787 131.315C872.96 133.991 891.634 137.232 911.389 140.664C965.097 150.001 1024.94 160.413 1086.56 160.413L1086.48 160.439Z" fill="#50BAFC"/>
            <path d="M1075.21 160.693C1085.36 160.693 1095.51 160.411 1105.73 159.784C1156.01 156.723 1194.4 145.606 1231.55 134.848C1254.59 128.175 1278.39 121.272 1304.67 116.431C1383.65 101.869 1492.19 108.669 1541.65 131.262L1554.15 128.252C1500.33 103.662 1382.65 96.2079 1297.18 111.961C1269.48 117.071 1245.02 124.154 1221.41 130.993C1184.21 141.777 1149.06 151.946 1102.96 154.751C1035.16 158.875 966.138 146.541 905.254 135.668C888.933 132.747 873.5 129.994 858.298 127.56C822.762 121.874 793.67 115.304 765.504 108.938C749.184 105.25 732.284 101.433 714.459 97.8728C672.364 89.4584 608.045 77.8036 540.717 70.0551C453.403 60.0013 389.123 67.468 314.194 78.2775L313.615 78.3671C244.705 88.2929 150.291 101.869 64.1344 104.814C32.4187 105.903 4.75452 105.096 -24.569 104.251C-48.0663 103.572 -72.3739 102.868 -98.765 103.239C-132.989 103.713 -170.26 106.274 -206.258 108.734C-238.63 110.949 -272.082 113.242 -302.756 113.985C-369.891 115.585 -419.085 111.641 -478.195 99.8964C-552.391 85.1551 -647.537 64.8297 -677.787 56.1719L-687.857 60.0525C-656.952 68.8896 -560.841 89.4455 -486.104 104.289C-424.795 116.469 -371.357 120.76 -301.637 119.095C-269.96 118.339 -235.968 116.008 -203.133 113.754C-167.714 111.321 -131.098 108.81 -98.109 108.362C-72.7211 108.016 -48.9152 108.695 -25.9194 109.361C2.82532 110.194 32.5345 111.052 65.7163 109.925C154.265 106.902 249.914 93.1341 319.75 83.0803L320.328 82.9906C392.132 72.6294 453.596 65.4573 535.624 74.9091C601.718 82.5167 664.995 93.9922 706.472 102.279C723.911 105.762 740.618 109.54 756.785 113.19C785.375 119.658 814.968 126.331 851.546 132.184C866.439 134.566 881.718 137.294 897.884 140.189C952.171 149.897 1012.75 160.706 1075.18 160.706L1075.21 160.693Z" fill="#48B7FD"/>
            <path d="M1063.95 160.949C1074.29 160.949 1084.67 160.655 1095.08 160.002C1145.82 156.825 1184.25 145.414 1221.41 134.387C1244.48 127.535 1268.32 120.465 1294.75 115.483C1374.2 100.511 1484.51 107.184 1535.67 130.071L1548.05 127.023C1492.49 102.163 1373 94.8503 1287.11 111.039C1259.26 116.29 1234.8 123.552 1211.11 130.583C1173.87 141.636 1138.72 152.074 1092.23 154.981C1023.05 159.31 953.021 146.349 891.21 134.925C878.863 132.645 867.172 130.481 855.674 128.483C820.332 122.348 791.626 115.124 763.846 108.144C748.104 104.187 731.86 100.101 714.69 96.2847C673.368 87.1146 609.936 74.6274 542.145 67.2503C454.329 57.6959 387.966 66.469 310.375 78.9178C233.285 91.2514 143.964 104.584 59.0803 106.518C25.8214 107.273 -3.15466 106.006 -33.8285 104.674C-55.8597 103.713 -78.6625 102.714 -103.279 102.522C-142.325 102.215 -184.536 105.25 -225.396 108.183C-252.906 110.155 -281.341 112.204 -307.617 113.101C-377.183 115.483 -428.615 112.281 -485.216 102.048C-554.435 89.5224 -649.505 68.5694 -675.24 58.5156L-687.008 61.8327C-659.768 72.4757 -564.506 93.5439 -492.625 106.543C-433.052 117.314 -378.996 120.696 -306.073 118.198C-278.949 117.276 -250.089 115.201 -222.154 113.19C-182.182 110.322 -140.898 107.338 -103.665 107.632C-79.8586 107.824 -57.4802 108.798 -35.8734 109.745C-5.77832 111.064 25.3198 112.422 60.1221 111.628C147.745 109.63 238.725 96.0798 317.088 83.5413C391.516 71.6048 455.024 63.1775 537.361 72.1299C603.454 79.3149 665.612 91.5588 706.125 100.55C722.947 104.289 738.998 108.324 754.547 112.23C782.829 119.338 812.075 126.69 848.537 133.016C859.88 134.989 871.455 137.128 883.725 139.394C938.86 149.589 1000.36 160.962 1063.99 160.962L1063.95 160.949Z" fill="#40B4FD"/>
            <path d="M1052.57 161.206C1063.1 161.206 1073.71 160.885 1084.36 160.207C1135.52 156.915 1173.95 145.222 1211.14 133.913C1234.25 126.894 1258.1 119.633 1284.68 114.51C1364.55 99.1151 1476.71 105.685 1529.57 128.854L1541.88 125.767C1484.55 100.652 1363.24 93.4671 1276.97 110.091C1248.96 115.496 1224.42 122.937 1200.73 130.148C1163.49 141.469 1128.3 152.163 1081.43 155.186C1010.32 159.758 938.899 145.952 875.892 133.772C868.059 132.261 860.381 130.775 852.935 129.366C817.939 122.77 789.658 114.919 762.302 107.325C747.1 103.111 731.397 98.7437 714.767 94.6582C674.255 84.7196 611.634 71.3999 543.457 64.4198C454.792 55.3394 386.499 65.406 306.4 79.5198L293.552 81.7867C224.024 94.0818 137.482 109.387 54.4115 108.17C26.3613 107.76 0.587524 106.351 -24.376 104.981C-50.9987 103.521 -78.5087 102.01 -108.565 101.753C-150.621 101.382 -196.034 104.571 -239.865 107.658C-265.291 109.451 -289.329 111.141 -312.749 112.179C-385.594 115.432 -437.682 113.114 -492.509 104.161C-560.493 93.0572 -651.396 72.5525 -673.08 60.8594L-686.237 63.5489C-662.816 76.1642 -570.679 97.1044 -499.338 108.759C-441.502 118.198 -386.868 120.67 -310.704 117.263C-286.705 116.187 -261.278 114.407 -236.701 112.678C-193.719 109.656 -149.309 106.543 -108.99 106.889C-80.0133 107.145 -54.2396 108.554 -26.9225 110.053C-1.53467 111.449 24.7408 112.883 53.7169 113.306C140.993 114.574 229.58 98.9102 300.767 86.3205L313.576 84.0536C390.435 70.5034 455.834 60.821 538.827 69.3251C604.959 76.1002 665.959 89.0869 705.546 98.7949C721.828 102.791 737.339 107.094 752.386 111.269C780.243 119.005 809.065 127.01 845.295 133.836C852.703 135.232 860.343 136.705 868.098 138.216C924.391 149.102 987.128 161.231 1052.53 161.231L1052.57 161.206Z" fill="#38B1FD"/>
            <path d="M1041.88 161.449C1052.45 161.449 1063.06 161.129 1073.67 160.424C1125.26 157.005 1163.72 145.042 1200.92 133.465C1224.07 126.267 1247.95 118.826 1274.69 113.562C1355.02 97.7575 1468.96 104.212 1523.52 127.663L1535.75 124.525C1476.67 99.1407 1353.52 92.0966 1266.82 109.156C1238.61 114.702 1214.08 122.335 1190.35 129.725C1153.11 141.316 1117.93 152.266 1070.62 155.404C996.735 160.296 920.34 144.645 858.915 132.069L850.234 130.288C815.663 123.231 787.844 114.753 760.952 106.556C746.213 102.074 731.011 97.4245 714.844 93.07C657.046 77.4962 599.827 66.9173 544.73 61.615C447.808 52.2912 367.208 67.7369 302.464 80.1601L298.259 80.967C226.262 94.7606 136.594 111.923 49.1255 109.886C20.8052 109.22 -5.35449 107.337 -30.6266 105.506C-56.8634 103.61 -83.9875 101.638 -113.504 101.049C-159.766 100.127 -209.229 103.739 -257.073 107.235C-278.217 108.785 -298.164 110.245 -317.765 111.321C-382.083 114.881 -437.682 115.393 -499.724 106.338C-566.744 96.5536 -654.251 76.0617 -671.035 63.2671L-685.195 65.3035C-666.521 79.5582 -575.734 100.844 -505.975 111.013C-436.525 121.144 -373.286 119.569 -315.257 116.367C-295.232 115.265 -274.165 113.716 -253.755 112.23C-206.953 108.81 -158.569 105.263 -114.43 106.159C-86.071 106.736 -60.7218 108.567 -33.9062 110.514C-8.09387 112.384 18.606 114.318 48.045 114.996C140.26 117.135 232.127 99.5506 305.937 85.4112L310.142 84.6043C389.277 69.4275 456.49 58.4772 540.409 66.5458C593.461 71.656 648.867 81.9147 705.083 97.0531C720.863 101.305 735.911 105.89 750.495 110.334C777.928 118.698 806.287 127.343 842.131 134.656L850.812 136.423C906.025 147.732 972.968 161.449 1041.84 161.449H1041.88Z" fill="#30AEFD"/>
            <path d="M1030.26 161.732C1041.14 161.732 1052.03 161.386 1062.98 160.643C1114.99 157.096 1153.46 144.852 1190.66 133.018C1213.84 125.641 1237.8 118.02 1264.7 112.615C1345.49 96.4012 1461.24 102.741 1517.5 126.46L1529.61 123.297C1468.8 97.6435 1343.83 90.7531 1256.71 108.235C1228.35 113.935 1203.74 121.76 1179.97 129.316C1142.7 141.176 1107.51 152.37 1059.86 155.623C988.054 160.528 915.633 146.248 847.571 131.212C813.502 123.681 786.185 114.588 759.756 105.802C745.441 101.037 730.664 96.1194 714.96 91.496C658.281 74.8079 601.486 63.8191 546.119 58.8242C447.693 49.9615 365.008 67.0594 298.606 80.8018C229.773 95.0308 135.475 114.524 43.9166 111.591C15.442 110.681 -10.9491 108.299 -36.4528 106.007C-62.3809 103.676 -89.1963 101.255 -118.404 100.333C-168.987 98.7449 -222.657 102.882 -274.59 106.903C-291.297 108.197 -307.116 109.414 -322.781 110.451C-389.839 114.882 -446.827 116.24 -506.978 108.504C-573.342 99.9617 -656.798 79.8284 -669.144 65.6506L-683.96 67.0722C-669.993 83.1071 -582.409 104.291 -512.534 113.281C-448.91 121.465 -389.453 120.082 -319.771 115.471C-303.836 114.421 -287.168 113.128 -271.079 111.885C-220.38 107.966 -167.945 103.919 -119.87 105.43C-91.9744 106.314 -66.9723 108.555 -40.504 110.95C-14.3829 113.307 12.6639 115.74 42.4119 116.688C49.2025 116.906 55.9547 117.008 62.7454 117.008C152.606 117.008 240.962 98.745 306.747 85.1435C385.187 68.9165 457.03 56.0962 542.029 63.7679C595.081 68.5451 649.793 79.1624 704.658 95.3254C720.015 99.8464 734.638 104.713 748.759 109.426C775.69 118.392 803.586 127.677 838.929 135.489C899.698 148.924 964.016 161.757 1030.15 161.757L1030.26 161.732Z" fill="#28ACFE"/>
            <path d="M1019.73 161.961C1030.57 161.961 1041.45 161.616 1052.33 160.847C1104.73 157.159 1143.24 144.646 1180.43 132.543C1203.66 124.986 1227.66 117.187 1254.74 111.641C1335.96 95.017 1453.53 101.241 1511.48 125.242L1523.52 122.041C1460.93 96.1312 1334.15 89.3689 1246.64 107.286C1218.09 113.127 1193.47 121.144 1169.63 128.893C1132.36 141.021 1097.13 152.471 1049.13 155.839C977.174 160.898 902.206 145.824 844.948 132.133C811.458 124.115 784.642 114.42 758.676 105.032C744.747 99.999 730.355 94.7864 715.076 89.8812C659.555 72.0789 603.184 60.6803 547.508 55.9928C454.87 48.193 378.243 62.896 294.787 81.4027C213.26 99.4868 126.331 116.828 38.7084 113.268C10.1566 112.102 -16.3888 109.233 -42.0854 106.467C-67.782 103.688 -94.366 100.819 -123.304 99.5892C-178.439 97.2326 -236.391 102.035 -292.453 106.685C-304.684 107.696 -316.221 108.657 -327.757 109.541C-386.558 114.062 -449.372 117.865 -514.193 110.629C-579.939 103.291 -659.382 83.4903 -667.369 67.9677L-682.571 68.8258C-673.465 86.5897 -589.083 107.671 -519.093 115.483C-450.453 123.142 -385.208 119.21 -324.285 114.523C-312.594 113.626 -300.44 112.614 -288.711 111.641C-234.038 107.107 -177.513 102.42 -125.271 104.661C-97.7614 105.839 -73.0293 108.503 -46.8698 111.334C-20.5172 114.177 6.76135 117.123 36.8179 118.352C45.3062 118.698 53.756 118.864 62.2058 118.864C146.009 118.864 227.073 102.573 303.352 85.6675C383.683 67.8396 457.185 53.6874 543.689 60.962C596.741 65.419 650.758 76.395 704.35 93.5697C719.321 98.3725 733.558 103.521 747.294 108.49C773.762 118.058 801.118 127.958 835.881 136.282C887.352 148.603 952.828 161.961 1019.69 161.961H1019.73Z" fill="#20A9FE"/>
            <path d="M1008.89 162.206C1020.12 162.206 1031 161.822 1041.61 161.053C1094.31 157.237 1132.74 144.481 1169.9 132.134C1193.24 124.386 1217.36 116.368 1244.71 110.695C1326.28 93.6096 1445.65 99.7188 1505.42 124.04L1517.38 120.8C1452.95 94.5702 1324.31 87.9488 1236.49 106.353C1207.67 112.334 1182.94 120.556 1158.98 128.51C1121.75 140.869 1086.6 152.549 1038.33 156.046C982.73 160.08 916.752 152.332 842.247 133.044C809.374 124.54 783.06 114.23 757.595 104.265C744.014 98.9503 730.008 93.4688 715.115 88.2817C660.751 69.378 604.805 57.5696 548.82 53.1894C446.651 45.1976 356.636 66.4835 290.928 82.0317C213.646 100.308 123.669 119.417 33.4611 114.972C4.87073 113.564 -21.7904 110.208 -47.6028 106.955C-73.1064 103.74 -99.4976 100.423 -128.242 98.8735C-188.124 95.6332 -250.475 101.256 -310.781 106.699C-318.189 107.365 -325.52 108.031 -332.812 108.671C-398.751 114.46 -458.439 118.776 -521.485 112.795C-586.614 106.622 -662.122 87.1291 -665.749 70.2745L-681.143 70.6331C-676.976 90.1004 -595.874 111.066 -525.729 117.713C-459.018 124.027 -394.545 119.378 -328.876 113.615C-321.584 112.974 -314.215 112.308 -306.768 111.642C-248.044 106.34 -187.352 100.871 -130.75 103.932C-103.549 105.405 -79.0483 108.492 -53.1202 111.745C-26.5748 115.088 0.896606 118.546 31.146 120.031C127.026 124.77 220.128 105.047 299.841 86.2069C381.947 66.7909 457.069 51.2683 545.232 58.1715C598.246 62.3211 651.607 73.6429 703.887 91.8166C718.472 96.8883 732.362 102.319 745.75 107.583C771.717 117.752 798.532 128.254 832.679 137.091C897.19 153.792 956.262 162.206 1008.81 162.206H1008.89Z" fill="#18A6FE"/>
            <path d="M997.739 162.474C1008.74 162.474 1019.81 162.102 1030.96 161.27C1084.09 157.3 1122.56 144.274 1159.71 131.672C1183.09 123.757 1207.25 115.56 1234.72 109.733C1316.75 92.2508 1437.94 98.2574 1499.36 122.835L1511.25 119.569C1445.08 93.096 1314.62 86.6155 1226.38 105.417C1197.41 111.552 1172.64 119.953 1148.64 128.086C1111.37 140.714 1076.18 152.638 1027.53 156.275C953.021 161.833 877.783 144.697 839.547 133.99C807.407 124.987 781.594 114.075 756.592 103.534C743.358 97.95 729.661 92.1611 715.115 86.7051C661.908 66.6871 606.387 54.4689 550.132 50.3961C453.789 43.4161 370.719 61.6794 287.07 82.6836C210.289 101.946 120.621 122.054 28.1752 116.7C-0.415161 115.035 -27.1921 111.193 -53.043 107.466C-78.3923 103.816 -104.59 100.05 -133.181 98.1806C-198.078 93.9413 -267.953 100.883 -329.609 107.005L-337.828 107.825C-396.243 113.614 -462.491 120.171 -528.738 114.997C-593.25 109.963 -664.861 90.7523 -664.167 72.5786L-679.6 72.5145C-680.41 93.6468 -602.626 114.497 -532.288 119.979C-462.028 125.46 -393.696 118.698 -333.429 112.73L-325.211 111.91C-262.358 105.673 -197.384 99.218 -136.19 103.214C-109.259 104.969 -83.8326 108.631 -59.2164 112.179C-32.5166 116.021 -4.92944 119.992 25.4744 121.759C124.016 127.471 216.964 106.71 296.33 86.7948C377.008 66.5463 456.876 48.9104 546.814 55.4294C599.789 59.2716 652.494 70.9392 703.501 90.1247C717.739 95.4782 731.281 101.203 744.4 106.736C769.865 117.481 796.179 128.598 829.515 137.948C864.356 147.72 928.597 162.525 997.623 162.525L997.739 162.474Z" fill="#10A3FE"/>
            <path d="M986.049 162.769C997.276 162.769 1008.7 162.371 1020.27 161.475C1073.79 157.351 1112.29 144.057 1149.49 131.198C1172.91 123.104 1197.1 114.741 1224.73 108.772C1307.22 90.9061 1430.22 96.7975 1493.34 121.631L1505.15 118.327C1472.01 105.289 1423.43 96.6566 1368.41 94.0439C1313.47 91.4312 1259.49 95.1454 1216.31 104.482C1187.18 110.77 1162.37 119.351 1138.38 127.651C1101.07 140.535 1065.84 152.715 1016.8 156.493C938.437 162.525 864.896 143.417 836.923 134.925C805.594 125.409 780.206 113.908 755.705 102.779C742.78 96.9128 729.391 90.8421 715.231 85.1043C663.144 63.9849 608.085 51.3568 551.56 47.5914C453.134 41.0084 365.086 61.6283 283.328 83.2985C201.222 105.058 112.866 124.372 23.0054 118.391C-5.58496 116.483 -31.2043 112.333 -58.3285 107.94C-83.5234 103.854 -109.606 99.6279 -138.042 97.4507C-208.109 92.0844 -282.769 100.307 -342.727 106.928L-343.846 107.056C-406.544 113.972 -471.326 121.119 -535.915 117.149C-599.809 113.229 -667.522 94.2873 -662.545 74.8072L-677.94 74.3717C-683.766 97.1433 -609.262 117.853 -538.77 122.182C-470.284 126.383 -403.573 119.031 -339.023 111.91L-337.904 111.782C-279.759 105.366 -207.415 97.3995 -141.553 102.433C-114.853 104.482 -89.5812 108.568 -65.1578 112.525C-38.3423 116.867 -10.6394 121.362 19.8801 123.386C115.992 129.789 207.859 109.81 292.897 87.2816C371.8 66.3543 456.529 46.4516 548.435 52.5863C601.372 56.1212 653.421 68.1473 703.193 88.3318C717.083 93.9671 730.356 99.9866 743.166 105.788C768.129 117.11 793.942 128.816 826.429 138.678C852.164 146.49 914.36 162.743 985.971 162.743L986.049 162.769Z" fill="#08A0FF"/>
            <path d="M975.321 162.999C986.973 162.999 998.471 162.563 1009.62 161.679C1063.52 157.402 1102.03 143.839 1139.26 130.724C1162.72 122.463 1186.95 113.933 1214.77 107.811C1297.72 89.5608 1422.54 95.3242 1487.32 120.414L1499.05 117.084C1465.1 103.931 1415.71 95.2729 1360.04 92.6986C1304.36 90.1244 1249.73 93.9794 1206.24 103.547C1176.96 109.989 1152.11 118.749 1128.03 127.215C1090.69 140.368 1055.42 152.778 1005.99 156.71C951.322 161.065 887.081 153.265 834.221 135.86C803.74 125.831 778.854 113.741 754.778 102.048C742.122 95.9005 729.043 89.5352 715.191 83.5029C663.567 60.9747 610.476 48.3081 552.871 44.7733C452.129 38.6001 358.95 61.7431 279.468 83.9128C197.594 106.761 109.238 126.958 17.6794 120.081C-10.9109 117.929 -36.5688 113.306 -63.693 108.413C-88.7723 103.892 -114.7 99.2176 -143.021 96.733C-211.738 90.7007 -284.738 98.3851 -347.783 106.044L-355.307 106.953C-416.577 114.433 -479.97 122.156 -543.247 119.3C-581.213 117.596 -618.716 110.386 -641.094 100.511C-657.724 93.1725 -664.631 85.0398 -661.081 76.9967L-676.36 76.2539C-680.527 85.6802 -672.617 95.1321 -653.441 103.585C-628.671 114.522 -587.232 122.489 -545.331 124.371C-478.195 127.394 -413.028 119.441 -349.982 111.756L-342.497 110.847C-278.873 103.098 -211.352 96.0158 -146.995 101.677C-120.449 104.008 -95.3701 108.529 -71.0625 112.909C-44.1698 117.75 -16.3896 122.758 14.2842 125.063C112.402 132.427 204.501 111.513 289.423 87.819C369.676 65.4188 455.949 44.0177 550.093 49.7938C603.724 53.0853 653.728 65.1115 702.922 86.5895C716.503 92.5193 729.506 98.8206 742.045 104.917C766.507 116.802 791.818 129.097 823.341 139.484C869.486 154.674 924.198 162.999 975.282 162.999H975.321Z" fill="#009DFF"/>
        </g>
    </g>
    <defs>
        <clipPath id="clip0_3031_3744">
            <rect width="2410" height="163" fill="white" transform="matrix(-1 0 0 1 1689 0)"/>
        </clipPath>
    </defs>
</svg>
