<svg width="29" height="28" viewBox="0 0 29 28" fill="none" xmlns="http://www.w3.org/2000/svg">
    <path d="M20.2678 13.9991C20.2678 15.2193 19.906 16.412 19.2281 17.4265C18.5503 18.441 17.5868 19.2317 16.4596 19.6986C15.3323 20.1655 14.0919 20.2877 12.8952 20.0497C11.6985 19.8116 10.5993 19.2241 9.73657 18.3613C8.87381 17.4986 8.28626 16.3994 8.04823 15.2027C7.81019 14.006 7.93236 12.7656 8.39928 11.6383C8.8662 10.5111 9.65691 9.54762 10.6714 8.86975C11.6859 8.19189 12.8786 7.83008 14.0988 7.83008C15.7349 7.83008 17.304 8.48003 18.4609 9.63696C19.6179 10.7939 20.2678 12.363 20.2678 13.9991Z" stroke="#8D8D91" stroke-width="1.5" stroke-linecap="round" stroke-linejoin="round"/>
    <path d="M20.269 13.9989V16.6428C20.269 17.5777 20.6404 18.4744 21.3015 19.1355C21.9626 19.7966 22.8592 20.168 23.7942 20.168C24.7291 20.168 25.6257 19.7966 26.2868 19.1355C26.9479 18.4744 27.3193 17.5777 27.3193 16.6428V13.9989C27.3192 11.0213 26.3137 8.13095 24.4658 5.79614C22.6178 3.46133 20.0357 1.81885 17.1377 1.1348C14.2397 0.450743 11.1957 0.765197 8.49874 2.02721C5.80179 3.28923 3.60995 5.42487 2.27832 8.08813C0.946684 10.7514 0.553279 13.7863 1.16184 16.701C1.77039 19.6158 3.34526 22.2397 5.63129 24.1477C7.91732 26.0556 10.7806 27.1358 13.7572 27.2133C16.7338 27.2908 19.6494 26.3609 22.0316 24.5745" stroke="#8D8D91" stroke-width="1.5" stroke-linecap="round" stroke-linejoin="round"/>
</svg>
