<svg width="27" height="26" viewBox="0 0 27 26" fill="none" xmlns="http://www.w3.org/2000/svg">
    <path fill-rule="evenodd" clip-rule="evenodd" d="M11.6718 13.052V19.4115C11.6718 19.5017 11.7447 19.578 11.8384 19.578H14.2011C14.2913 19.578 14.3676 19.5051 14.3676 19.4115V12.9479H16.0815C16.1682 12.9479 16.2376 12.882 16.248 12.7952L16.4111 10.8489C16.418 10.7517 16.3417 10.6685 16.2446 10.6685H14.3676V9.28763C14.3676 8.96498 14.6313 8.7013 14.9539 8.7013H16.2723C16.3625 8.7013 16.4388 8.62844 16.4388 8.53477V6.58841C16.4388 6.4982 16.366 6.42188 16.2723 6.42188H14.0415C12.7335 6.42188 11.6718 7.48352 11.6718 8.7915V10.6685H10.4922C10.402 10.6685 10.3257 10.7413 10.3257 10.835V12.7814C10.3257 12.8716 10.3985 12.9479 10.4922 12.9479H11.6718V13.052Z" fill="#767676"/>
    <path d="M13.3823 0C6.21446 0 0.382324 5.83213 0.382324 13C0.382324 20.1679 6.21446 26 13.3823 26C20.5502 26 26.3823 20.1679 26.3823 13C26.3823 5.83213 20.5502 0 13.3823 0ZM24.7135 13C24.7135 19.2485 19.6308 24.3312 13.3823 24.3312C7.13386 24.3312 2.04765 19.2485 2.04765 13C2.04765 6.75153 7.13386 1.6688 13.3823 1.6688C19.6308 1.6688 24.7135 6.75153 24.7135 13.0035V13Z" fill="#767676"/>
</svg>
