<svg width="27" height="26" viewBox="0 0 27 26" fill="none" xmlns="http://www.w3.org/2000/svg">
    <path d="M17.9466 9.41601C17.9466 9.84622 17.5996 10.1932 17.1694 10.1932C16.7392 10.1932 16.3922 9.84622 16.3922 9.41601C16.3922 8.9858 16.7427 8.63885 17.1694 8.63885C17.5962 8.63885 17.9466 8.9858 17.9466 9.41601ZM16.9786 12.9063C16.9786 14.7104 15.511 16.1779 13.7069 16.1779C11.9028 16.1779 10.4352 14.7104 10.4352 12.9063C10.4352 11.1022 11.9028 9.63458 13.7069 9.63458C15.511 9.63458 16.9786 11.1022 16.9786 12.9063ZM15.8024 12.9063C15.8024 11.7509 14.8622 10.8107 13.7069 10.8107C12.5516 10.8107 11.6114 11.7509 11.6114 12.9063C11.6114 14.0616 12.5516 15.0018 13.7069 15.0018C14.8622 15.0018 15.8024 14.0616 15.8024 12.9063ZM20.3266 10.2799C20.3266 8.0768 18.5398 6.29004 16.3367 6.29004H10.8932C8.69008 6.29004 6.90332 8.0768 6.90332 10.2799V15.7235C6.90332 17.9265 8.69008 19.7133 10.8932 19.7133H16.3367C18.5398 19.7133 20.3266 17.9265 20.3266 15.7235V10.2799ZM19.0151 15.6645C19.0151 17.1771 17.787 18.4053 16.2743 18.4053H10.9487C9.43601 18.4053 8.20783 17.1771 8.20783 15.6645V10.3389C8.20783 8.8262 9.43601 7.59802 10.9487 7.59802H16.2743C17.787 7.59802 19.0151 8.8262 19.0151 10.3389V15.6645Z" fill="#767676"/>
    <path d="M13.6138 0C6.4459 0 0.61377 5.83213 0.61377 13C0.61377 20.1679 6.4459 26 13.6138 26C20.7816 26 26.6138 20.1679 26.6138 13C26.6138 5.83213 20.7816 0 13.6138 0ZM13.6138 24.3312C7.3653 24.3312 2.28257 19.2485 2.28257 13C2.28257 6.75153 7.3653 1.6688 13.6138 1.6688C19.8622 1.6688 24.9484 6.75153 24.9484 13C24.9484 19.2485 19.8657 24.3312 13.6138 24.3312Z" fill="#767676"/>
</svg>
