<svg width="26" height="26" viewBox="0 0 26 26" fill="none" xmlns="http://www.w3.org/2000/svg">
    <path d="M7.20655 9.66631H9.69414V17.653H7.20655V9.66631ZM8.44861 5.69727C9.24311 5.69727 9.88843 6.34258 9.88843 7.13708C9.88843 7.93159 9.24311 8.5769 8.44861 8.5769C7.65411 8.5769 7.00879 7.93159 7.00879 7.13708C7.00879 6.34258 7.65411 5.69727 8.44861 5.69727ZM11.2484 17.6564H13.7291V13.7047C13.7291 12.6639 13.9269 11.6543 15.2175 11.6543C16.5081 11.6543 16.5081 12.8443 16.5081 13.7741V17.6564H18.9888V13.2745C18.9888 11.1235 18.5239 9.46855 16.012 9.46855C14.8012 9.46855 13.9928 10.1312 13.6597 10.7592H13.6285V9.66631H11.245V17.653L11.2484 17.6564Z" fill="#767676"/>
    <path d="M13 0C5.83213 0 0 5.83213 0 13C0 20.1679 5.83213 26 13 26C20.1679 26 26 20.1679 26 13C26 5.83213 20.1679 0 13 0ZM13 24.3312C6.75153 24.3312 1.6688 19.2485 1.6688 12.9965C1.6688 6.7446 6.75153 1.6688 13 1.6688C19.2485 1.6688 24.3312 6.75153 24.3312 13C24.3312 19.2485 19.2485 24.3347 13 24.3347V24.3312Z" fill="#767676"/>
</svg>
