<svg width="86" height="85" viewBox="0 0 86 85" fill="none" xmlns="http://www.w3.org/2000/svg">
    <circle opacity="0.1" cx="42.9554" cy="42.7171" r="42.1975" fill="#0CBDC6"/>
    <path d="M58.9852 52.8453H26.915V24.151C26.915 22.7526 28.0485 21.6191 29.4469 21.6191H56.4533C57.8517 21.6191 58.9852 22.7526 58.9852 24.151V52.8453Z" fill="white"/>
    <path d="M59.8915 39.6513L59.8919 39.651C60.0453 39.5512 60.2245 39.498 60.409 39.498H60.4132C60.9378 39.498 61.3628 39.923 61.3628 40.4476V59.8525C61.3628 61.4314 59.9807 62.8166 58.143 62.8166H27.7608C25.923 62.8166 24.541 61.4314 24.541 59.8525V40.4476C24.541 39.923 24.9659 39.498 25.4905 39.498H25.4948C25.6799 39.498 25.8594 39.5515 26.0109 39.6504L26.0123 39.6513L40.567 49.1119C41.2925 49.5836 42.1232 49.8187 42.9519 49.8187C43.7806 49.8187 44.6112 49.5836 45.3367 49.1119L59.8915 39.6513Z" fill="#F87E7E" stroke="black" stroke-width="2"/>
    <path d="M44.6417 31.7469H33.6703C32.7378 31.7469 31.9824 30.9916 31.9824 30.059C31.9824 29.1264 32.7378 28.3711 33.6703 28.3711H44.6417C45.5742 28.3711 46.3296 29.1264 46.3296 30.059C46.3296 30.9916 45.5742 31.7469 44.6417 31.7469Z" fill="#222223"/>
    <path d="M52.2371 31.7469H50.5492C49.6167 31.7469 48.8613 30.9916 48.8613 30.059C48.8613 29.1264 49.6167 28.3711 50.5492 28.3711H52.2371C53.1697 28.3711 53.925 29.1264 53.925 30.059C53.925 30.9916 53.1697 31.7469 52.2371 31.7469Z" fill="#222223"/>
    <path d="M38.734 37.6551H33.6703C32.7378 37.6551 31.9824 36.8998 31.9824 35.9672C31.9824 35.0346 32.7378 34.2793 33.6703 34.2793H38.734C39.6666 34.2793 40.4219 35.0346 40.4219 35.9672C40.4219 36.8998 39.6666 37.6551 38.734 37.6551Z" fill="#222223"/>
    <path d="M52.2371 37.6551H44.6415C43.7089 37.6551 42.9536 36.8998 42.9536 35.9672C42.9536 35.0346 43.7089 34.2793 44.6415 34.2793H52.2371C53.1696 34.2793 53.925 35.0346 53.925 35.9672C53.925 36.8998 53.1696 37.6551 52.2371 37.6551Z" fill="#222223"/>
</svg>
