<svg width="25" height="28" viewBox="0 0 25 28" fill="none" xmlns="http://www.w3.org/2000/svg">
    <path d="M12.4736 12.1112C15.6022 12.1112 18.1385 9.5749 18.1385 6.44622C18.1385 3.31754 15.6022 0.78125 12.4736 0.78125C9.34489 0.78125 6.80859 3.31754 6.80859 6.44622C6.80859 9.5749 9.34489 12.1112 12.4736 12.1112Z" stroke="#8D8D91" stroke-width="1.5" stroke-linecap="round" stroke-linejoin="round"/>
    <path d="M3.49465 27.2167C2.19672 27.2167 1.12004 26.1534 1.38737 24.8833C1.83669 22.7485 2.89694 20.7712 4.46299 19.2052C6.58777 17.0804 9.46958 15.8867 12.4745 15.8867C15.4794 15.8867 18.3612 17.0804 20.4859 19.2052C22.052 20.7712 23.1123 22.7485 23.5616 24.8833C23.8289 26.1534 22.7522 27.2167 21.4543 27.2167H3.49465Z" stroke="#8D8D91" stroke-width="1.5" stroke-linecap="round" stroke-linejoin="round"/>
</svg>
