<svg width="86" height="85" viewBox="0 0 86 85" fill="none" xmlns="http://www.w3.org/2000/svg">
    <circle opacity="0.1" cx="42.9554" cy="42.7171" r="42.1975" fill="#0CBDC6"/>
    <path d="M43.2927 51.7958C42.6357 51.1798 41.609 51.0976 40.7877 51.5904L40.0485 52.0422L37.913 53.3974C37.0916 53.9313 36.0239 53.7259 35.5311 52.9867L32.4511 48.1819L29.4121 43.4181C28.9193 42.6789 29.2068 41.6112 30.0281 41.0773L32.1636 39.7221L32.9028 39.2703C33.7241 38.7365 34.0937 37.7509 33.8063 36.9295L30.5209 28.059C30.1513 27.0324 28.9193 26.5806 27.8105 27.1145L27.5641 27.2377L23.5806 29.3732C21.6915 30.3177 20.4595 32.2479 20.5827 34.2191C20.8291 38.1615 22.1022 45.3072 26.4142 52.0422C30.7262 58.7772 36.7631 63.0071 40.2538 64.8961C42.0197 65.8407 44.2784 65.5532 45.921 64.2391L49.5349 61.4876L49.7403 61.3233C50.6848 60.5841 50.808 59.27 49.9867 58.4897L43.2927 51.7958Z" fill="#5ACAED"/>
    <path d="M31.0958 29.6196L30.5209 28.059C30.1513 27.0324 28.9193 26.5806 27.8105 27.1145L27.5641 27.2377L23.5806 29.3732C21.6915 30.3177 20.4595 32.2479 20.5827 34.2191C20.7059 36.3546 21.1576 39.3935 22.1843 42.8021C23.252 38.7365 25.6339 33.4388 31.0958 29.6196Z" fill="#5ACAED"/>
    <path d="M25.8078 52.4276L25.8077 52.4274C20.9862 44.9318 20.0519 37.2259 19.8492 34.2662C19.6997 32.0216 21.0512 29.78 23.2257 28.7118L23.2324 28.7085L23.239 28.705L27.51 26.4463L27.51 26.4464L27.5157 26.4433C27.8675 26.2513 28.3091 26.1758 28.7547 26.1758C29.8677 26.1758 30.826 26.8335 31.202 27.822L34.4442 36.6457C34.8538 37.8106 34.377 39.1694 33.2534 39.8716L33.2534 39.8716L33.2481 39.875L30.3734 41.7231L30.3733 41.723L30.3664 41.7276C30.2474 41.807 30.1475 41.9112 30.0729 42.0082C30.0048 42.0967 29.9364 42.207 29.8922 42.326C29.8225 42.4886 29.8324 42.6437 29.8609 42.7577C29.8852 42.8546 29.9286 42.9407 29.9465 42.9761C29.9479 42.9788 29.9491 42.9812 29.9501 42.9833L29.962 43.0071L29.9764 43.0295L36.1364 52.6392L36.1364 52.6392L36.1414 52.6467C36.2534 52.8147 36.4079 52.9086 36.5294 52.9592C36.6491 53.0091 36.7759 53.0336 36.8859 53.0336H36.8881C36.9935 53.0336 37.2654 53.0336 37.5224 52.8069L40.3595 50.983C40.8483 50.6688 41.3692 50.5285 41.9372 50.5285C42.669 50.5285 43.3215 50.8058 43.8012 51.2855L43.8023 51.2866L50.4952 57.9384C50.4952 57.9385 50.4953 57.9385 50.4953 57.9386C51.0054 58.4488 51.2467 59.0895 51.2116 59.8619C51.1771 60.6221 50.7935 61.3885 50.1721 61.8718L50.1721 61.8718L50.1668 61.8761L49.9646 62.0378L46.3541 64.8277L46.351 64.8302C45.2869 65.6662 43.9167 66.1607 42.5121 66.1607C41.6092 66.1607 40.7041 65.9347 39.9132 65.521C37.8877 64.4269 30.8315 60.2467 25.8078 52.4276ZM28.1859 27.7476L28.1522 27.7588L28.1204 27.7747L27.874 27.8979L27.8739 27.8978L27.8649 27.9026L23.8858 29.9947C22.2609 30.8092 21.1792 32.4566 21.274 34.1633L21.2741 34.1649C21.441 37.0022 22.3558 44.4072 26.9779 51.6526L26.9792 51.6546C31.802 59.1382 38.568 63.1706 40.5442 64.223C41.1292 64.5618 41.7933 64.6966 42.471 64.6966C43.5259 64.6966 44.5815 64.3315 45.4122 63.6422L49.2247 60.6906L49.2247 60.6907L49.2309 60.6857C49.5214 60.4533 49.7471 60.1158 49.7471 59.6793C49.7471 59.6752 49.7471 59.6708 49.7471 59.666C49.7477 59.5374 49.7492 59.1667 49.4149 58.8937L42.7835 52.3033C42.7833 52.3031 42.7832 52.3029 42.783 52.3027C42.569 52.089 42.274 51.9981 42.0119 51.9831C41.7414 51.9676 41.4413 52.028 41.1794 52.1917L41.1793 52.1917L41.174 52.1952L38.2993 54.0432L38.2993 54.0431L38.2923 54.0477C37.8879 54.3174 37.411 54.4566 36.8859 54.4566C36.0638 54.4566 35.3237 54.045 34.9268 53.4165L34.925 53.4137L28.7649 43.804L28.765 43.8039L28.76 43.7965C28.4299 43.3013 28.3258 42.703 28.4625 42.0879L28.4625 42.0879L28.4637 42.0824C28.5988 41.4403 29.008 40.8531 29.6006 40.4694C29.6008 40.4693 29.601 40.4692 29.6012 40.469L32.4723 38.6233C32.9466 38.3252 33.2676 37.7283 33.0431 37.1251L29.8425 28.3028C29.745 28.0182 29.5321 27.8478 29.3312 27.7565C29.135 27.6673 28.9261 27.6398 28.7547 27.6398C28.5491 27.6398 28.3229 27.7019 28.1859 27.7476Z" fill="black" stroke="black"/>
    <path d="M65.304 32.5355C65.2219 39.3115 59.5136 44.6503 52.7786 44.6503H41.9369C41.3209 44.6503 40.8691 44.1574 40.8691 43.5414V32.5765C40.8691 25.8005 46.2079 20.0922 52.9018 19.969C59.801 19.9279 65.4272 25.5541 65.304 32.5355Z" fill="white"/>
    <path d="M52.8153 45.8805H41.9326C40.6595 45.8805 39.6328 44.8538 39.6328 43.5397V32.6159C39.6328 25.1006 45.5875 18.8995 52.8975 18.7763C56.5524 18.7352 60.0021 20.1315 62.5893 22.7187C65.2176 25.347 66.6138 28.8377 66.5728 32.5337C66.4496 39.8847 60.2485 45.8805 52.8153 45.8805ZM42.0558 43.4165H52.7743C58.8932 43.4165 63.9856 38.5295 64.0677 32.4927C64.1088 29.4537 62.9589 26.579 60.8234 24.4435C58.6879 22.308 55.8954 21.1992 52.8975 21.2403C46.9427 21.3224 42.0558 26.4558 42.0558 32.6159V43.4165Z" fill="white"/>
    <path d="M52.8229 36.436H47.361C46.6629 36.436 46.129 35.9021 46.129 35.2039C46.129 34.5058 46.6629 33.9719 47.361 33.9719H52.7819C53.48 33.9719 54.0139 34.5058 54.0139 35.2039C54.0139 35.9021 53.48 36.436 52.8229 36.436ZM57.751 36.436H57.6688C56.9707 36.436 56.4368 35.9021 56.4368 35.2039C56.4368 34.5058 56.9707 33.9719 57.6688 33.9719H57.751C58.4491 33.9719 58.983 34.5058 58.983 35.2039C58.983 35.9021 58.408 36.436 57.751 36.436ZM58.1616 32.3293H47.2789C46.5807 32.3293 46.0469 31.7954 46.0469 31.0972C46.0469 30.3991 46.5807 29.8652 47.2789 29.8652H58.1616C58.8598 29.8652 59.3937 30.3991 59.3937 31.0972C59.3937 31.7954 58.8187 32.3293 58.1616 32.3293Z" fill="#222223"/>
</svg>
