<svg width="27" height="26" viewBox="0 0 27 26" fill="none" xmlns="http://www.w3.org/2000/svg">
    <path d="M20.7075 11.2858C20.7075 9.61002 19.3475 8.25 17.6718 8.25H9.8551C8.17936 8.25 6.81934 9.61002 6.81934 11.2858V14.7136C6.81934 16.3893 8.17936 17.7493 9.8551 17.7493H17.6718C19.3475 17.7493 20.7075 16.3893 20.7075 14.7136V11.2858ZM16.4089 13.0899L12.9151 14.8142C12.7798 14.887 12.3011 14.7899 12.3011 14.6338V11.0984C12.3011 10.9423 12.7833 10.8417 12.9186 10.9215L16.2597 12.736C16.3985 12.8158 16.5511 13.017 16.4123 13.0933L16.4089 13.0899Z" fill="#767676"/>
    <path d="M13.7617 0C6.59385 0 0.761719 5.83213 0.761719 13C0.761719 20.1679 6.59385 26 13.7617 26C20.9296 26 26.7617 20.1679 26.7617 13C26.7617 5.83213 20.9296 0 13.7617 0ZM13.7617 24.3312C7.51325 24.3312 2.42705 19.2485 2.42705 12.9965C2.42705 6.7446 7.51325 1.6688 13.7617 1.6688C20.0102 1.6688 25.0964 6.75153 25.0964 13C25.0964 19.2485 20.0137 24.3347 13.7617 24.3347V24.3312Z" fill="#767676"/>
</svg>
