<svg width="34" height="26" viewBox="0 0 34 26" fill="none" xmlns="http://www.w3.org/2000/svg">
    <g clip-path="url(#clip0_3031_3844)">
        <mask id="mask0_3031_3844" style="mask-type:luminance" maskUnits="userSpaceOnUse" x="0" y="0" width="34" height="26">
            <path d="M0 0H34V26H0V0Z" fill="white"/>
        </mask>
        <g mask="url(#mask0_3031_3844)">
            <path d="M0 0H34V26H0V0Z" fill="white"/>
            <path fill-rule="evenodd" clip-rule="evenodd" d="M0 0V26H34V0H0Z" fill="#2E42A5"/>
            <mask id="mask1_3031_3844" style="mask-type:luminance" maskUnits="userSpaceOnUse" x="0" y="0" width="34" height="26">
                <path fill-rule="evenodd" clip-rule="evenodd" d="M0 0V26H34V0H0Z" fill="white"/>
            </mask>
            <g mask="url(#mask1_3031_3844)">
                <path d="M-3.78516 24.1418L3.69697 27.369L34.1695 3.50752L38.1167 -1.28732L30.116 -2.36523L17.6869 7.91668L7.68241 14.8457L-3.78516 24.1418Z" fill="white"/>
                <path d="M-2.76172 26.4028L1.05159 28.2748L36.6995 -1.73242H31.3477L-2.76172 26.4028Z" fill="#F50100"/>
                <path d="M37.7866 24.1418L30.3045 27.369L-0.168047 3.50752L-4.11523 -1.28732L3.88539 -2.36523L16.3145 7.91668L26.319 14.8457L37.7866 24.1418Z" fill="white"/>
                <path d="M37.5311 25.7642L33.7188 27.6362L18.54 14.7878L14.0392 13.3535L-4.49609 -1.27148H0.856781L19.3804 13.0069L24.3008 14.7272L37.5311 25.7642Z" fill="#F50100"/>
                <path fill-rule="evenodd" clip-rule="evenodd" d="M21.0137 -2.16602H12.9854V8.66732H-2.0957V17.334H12.9854V28.1673H21.0137V17.334H36.1543V8.66732H21.0137V-2.16602Z" fill="#F50100"/>
                <mask id="mask2_3031_3844" style="mask-type:luminance" maskUnits="userSpaceOnUse" x="-3" y="-3" width="40" height="32">
                    <path fill-rule="evenodd" clip-rule="evenodd" d="M21.0137 -2.16602H12.9854V8.66732H-2.0957V17.334H12.9854V28.1673H21.0137V17.334H36.1543V8.66732H21.0137V-2.16602Z" fill="white"/>
                </mask>
                <g mask="url(#mask2_3031_3844)">
                    <path d="M12.9854 -2.16536V-4.33203H10.8604V-2.16536H12.9854ZM21.0137 -2.16536H23.1387V-4.33203H21.0137V-2.16536ZM12.9854 8.66797V10.8346H15.1104V8.66797H12.9854ZM-2.0957 8.66797V6.5013H-4.2207V8.66797H-2.0957ZM-2.0957 17.3346H-4.2207V19.5013H-2.0957V17.3346ZM12.9854 17.3346H15.1104V15.168H12.9854V17.3346ZM12.9854 28.168H10.8604V30.3346H12.9854V28.168ZM21.0137 28.168V30.3346H23.1387V28.168H21.0137ZM21.0137 17.3346V15.168H18.8887V17.3346H21.0137ZM36.1543 17.3346V19.5013H38.2793V17.3346H36.1543ZM36.1543 8.66797H38.2793V6.5013H36.1543V8.66797ZM21.0137 8.66797H18.8887V10.8346H21.0137V8.66797ZM12.9854 0.00130224H21.0137V-4.33203H12.9854V0.00130224ZM15.1104 8.66797V-2.16536H10.8604V8.66797H15.1104ZM-2.0957 10.8346H12.9854V6.5013H-2.0957V10.8346ZM0.0292969 17.3346V8.66797H-4.2207V17.3346H0.0292969ZM12.9854 15.168H-2.0957V19.5013H12.9854V15.168ZM15.1104 28.168V17.3346H10.8604V28.168H15.1104ZM21.0137 26.0013H12.9854V30.3346H21.0137V26.0013ZM18.8887 17.3346V28.168H23.1387V17.3346H18.8887ZM36.1543 15.168H21.0137V19.5013H36.1543V15.168ZM34.0293 8.66797V17.3346H38.2793V8.66797H34.0293ZM21.0137 10.8346H36.1543V6.5013H21.0137V10.8346ZM18.8887 -2.16536V8.66797H23.1387V-2.16536H18.8887Z" fill="white"/>
                </g>
            </g>
        </g>
    </g>
    <defs>
        <clipPath id="clip0_3031_3844">
            <rect width="34" height="26" rx="5" fill="white"/>
        </clipPath>
    </defs>
</svg>
