<svg width="210" height="42" viewBox="0 0 210 42" fill="none" xmlns="http://www.w3.org/2000/svg">
    <g clip-path="url(#clip0_3031_3781)">
        <path d="M95.2207 1.8341V5.36068C95.2207 5.5259 95.2207 5.68543 95.2207 5.85065C95.2207 5.85065 95.2207 5.85065 95.2207 5.85634C95.2207 5.96459 95.2664 6.07854 95.3464 6.1526C95.4264 6.22666 95.5407 6.28364 95.6436 6.27794C95.7464 6.27224 95.8664 6.23806 95.9407 6.1526C96.015 6.06714 96.0665 5.97029 96.0665 5.85634V2.32976C96.0665 2.16454 96.0665 2.00501 96.0665 1.83979C96.0665 1.83979 96.0665 1.83979 96.0665 1.8341C96.0665 1.72585 96.0207 1.61191 95.9407 1.53784C95.8607 1.46378 95.7464 1.4068 95.6436 1.4125C95.5407 1.4182 95.4207 1.45238 95.3464 1.53784C95.2721 1.6233 95.2207 1.72015 95.2207 1.8341Z" fill="#231F20"/>
        <path d="M101.786 8.3457H98.2486C98.0828 8.3457 97.9228 8.3457 97.7571 8.3457C97.7571 8.3457 97.7571 8.3457 97.7514 8.3457C97.6428 8.3457 97.5285 8.39128 97.4542 8.47104C97.38 8.5508 97.3228 8.66475 97.3285 8.7673C97.3342 8.86985 97.3685 8.98949 97.4542 9.06355C97.54 9.13762 97.6371 9.18889 97.7514 9.18889H101.289C101.454 9.18889 101.614 9.18889 101.78 9.18889C101.78 9.18889 101.78 9.18889 101.786 9.18889C101.894 9.18889 102.009 9.14332 102.083 9.06355C102.157 8.98379 102.214 8.86985 102.209 8.7673C102.203 8.66475 102.169 8.54511 102.083 8.47104C101.997 8.39698 101.9 8.3457 101.786 8.3457Z" fill="#231F20"/>
        <path d="M93.5867 8.3457H90.0494C89.8836 8.3457 89.7236 8.3457 89.5579 8.3457C89.5579 8.3457 89.5579 8.3457 89.5522 8.3457C89.4436 8.3457 89.3293 8.39128 89.255 8.47104C89.1807 8.5508 89.1236 8.66475 89.1293 8.7673C89.135 8.86985 89.1693 8.98949 89.255 9.06355C89.3407 9.13762 89.4379 9.18889 89.5522 9.18889H93.0895C93.2552 9.18889 93.4153 9.18889 93.581 9.18889C93.581 9.18889 93.581 9.18889 93.5867 9.18889C93.6953 9.18889 93.8096 9.14332 93.8838 9.06355C93.9581 8.98379 94.0153 8.86985 94.0096 8.7673C94.0039 8.66475 93.9696 8.54511 93.8838 8.47104C93.7981 8.39698 93.701 8.3457 93.5867 8.3457Z" fill="#231F20"/>
        <path d="M93.8041 6.31696C93.6955 6.2372 93.5926 6.15744 93.4841 6.07768L92.7126 5.50226L91.7811 4.8072L90.9696 4.20329C90.8382 4.10644 90.7125 4.00389 90.5753 3.91273C90.5239 3.88425 90.4725 3.86715 90.4153 3.86146C90.3582 3.85006 90.301 3.85006 90.2439 3.86715C90.1467 3.89564 90.0382 3.9697 89.9924 4.06086C89.941 4.15771 89.9124 4.27735 89.9524 4.3856L89.9924 4.48815C90.0324 4.55082 90.0782 4.6021 90.1467 4.64198C90.2553 4.72174 90.3582 4.8015 90.4668 4.88126L91.2382 5.45668L92.1697 6.15174L92.9812 6.75565C93.1126 6.8525 93.2383 6.95505 93.3755 7.04621C93.4269 7.0747 93.4783 7.09179 93.5355 7.09748C93.5926 7.10888 93.6498 7.10888 93.7069 7.09179C93.8041 7.0633 93.9127 6.98924 93.9584 6.89808C94.0098 6.80123 94.0384 6.68159 93.9984 6.57334L93.9584 6.47079C93.9184 6.40812 93.8727 6.35684 93.8041 6.31696Z" fill="#231F20"/>
        <path d="M97.9643 7.04665C98.0728 6.96689 98.1757 6.88713 98.2843 6.80737L99.0558 6.23195L99.9872 5.53689L100.799 4.93298C100.93 4.83613 101.062 4.73927 101.193 4.64242C101.244 4.61394 101.284 4.57975 101.313 4.53417C101.353 4.49429 101.376 4.44302 101.387 4.39174C101.416 4.28919 101.404 4.15816 101.347 4.067C101.29 3.97585 101.204 3.89608 101.096 3.8733C100.987 3.85051 100.856 3.85051 100.77 3.91318C100.662 3.99294 100.559 4.0727 100.45 4.15246L99.6786 4.72788L98.7472 5.42294L97.9357 6.02685C97.8043 6.1237 97.6728 6.22056 97.5414 6.31741C97.4899 6.34589 97.45 6.38008 97.4214 6.42566C97.3814 6.46554 97.3585 6.51681 97.3471 6.56809C97.3185 6.67064 97.3299 6.80167 97.3871 6.89283C97.4442 6.98398 97.53 7.06375 97.6385 7.08653C97.7471 7.10932 97.8785 7.10932 97.9643 7.04665Z" fill="#231F20"/>
        <path d="M97.4673 34.1336C97.4673 34.1336 97.4435 34.0978 97.4375 34.0918C97.4435 34.1037 97.4494 34.1097 97.4613 34.1217C97.4613 34.1217 97.4673 34.1336 97.4733 34.1336H97.4673Z" fill="#231F20"/>
        <path d="M101.084 29.7168C101.084 29.7168 101.107 29.7051 101.137 29.6934C101.125 29.6934 101.119 29.6992 101.107 29.7051C101.102 29.7051 101.09 29.7109 101.084 29.7168Z" fill="#231F20"/>
        <path d="M105.627 28.8496C105.551 28.8965 105.586 28.8672 105.627 28.8496V28.8496Z" fill="#231F20"/>
        <path d="M99.9016 28.4193C99.842 28.3595 99.8718 28.3894 99.9016 28.4193V28.4193Z" fill="#231F20"/>
        <path d="M98.7514 34.9404C98.7514 34.9404 98.7628 34.9404 98.7742 34.9461C98.7114 34.9176 98.7114 34.9176 98.7285 34.929C98.7342 34.929 98.7399 34.929 98.7456 34.9347C98.7456 34.9347 98.7514 34.9347 98.7571 34.9347L98.7514 34.9404Z" fill="#231F20"/>
        <path d="M94.4609 26.0261C94.4609 26.0261 94.4669 26.0022 94.4729 25.9902C94.4729 26.0022 94.4669 26.0141 94.4609 26.0201C94.4609 26.0201 94.4609 26.0201 94.4609 26.0261Z" fill="#231F20"/>
        <path d="M94.4492 26.0863C94.4492 26.0863 94.4607 26.0407 94.4607 26.0293C94.4607 26.0464 94.4492 26.0578 94.4492 26.0749V26.0863Z" fill="#231F20"/>
        <path d="M94.9222 10.7731C94.9222 10.7731 94.8765 10.7731 94.8594 10.7617C94.8937 10.7788 94.9222 10.7788 94.9222 10.7731Z" fill="#231F20"/>
        <path d="M88.9805 23.8887C88.9919 23.9001 88.9976 23.9115 89.0033 23.9342C89.0033 23.9342 89.0033 23.9058 88.9805 23.8887Z" fill="#231F20"/>
        <path d="M118.17 32.4738C118.09 32.3998 117.982 32.3428 117.873 32.3485C117.73 32.3599 117.587 32.3485 117.45 32.3371C117.21 32.2972 116.982 32.2288 116.759 32.1434C116.45 32.0066 116.159 31.8357 115.879 31.642C115.81 31.5964 115.747 31.5452 115.684 31.4996C115.416 31.2888 115.159 31.0552 114.919 30.8102C114.776 30.6678 114.639 30.514 114.507 30.3601C114.507 29.2834 114.13 28.2351 113.616 27.2893C112.913 25.9961 111.953 24.8452 110.935 23.7855C109.975 22.7885 108.941 21.8713 107.861 21.011C107.152 20.447 106.427 19.8886 105.655 19.3987C105.581 19.3531 105.512 19.3075 105.432 19.2676C105.135 19.1138 104.844 18.96 104.564 18.7777C104.478 18.7207 104.387 18.658 104.301 18.5954C104.255 18.5612 104.215 18.5327 104.169 18.4985C104.152 18.4871 104.118 18.47 104.107 18.4472C104.158 18.4871 104.164 18.4928 104.129 18.4643C104.112 18.4529 104.101 18.4415 104.084 18.4301C103.907 18.2877 103.729 18.1453 103.558 17.9915C103.181 17.661 102.826 17.3078 102.484 16.9489C102.129 16.5728 101.786 16.1854 101.455 15.7866C101.289 15.5872 101.124 15.3878 100.964 15.1884C100.889 15.0916 100.809 14.9947 100.735 14.9036C100.695 14.858 100.661 14.8067 100.621 14.7611C100.621 14.7611 100.626 14.7725 100.632 14.7725C100.626 14.7611 100.621 14.7554 100.615 14.7497C100.592 14.7155 100.564 14.6871 100.541 14.6529C99.9978 13.9464 99.4777 13.2229 98.9749 12.4879C98.6548 12.0264 98.352 11.5593 98.0205 11.1035C97.7176 10.6876 97.3405 10.3629 96.8547 10.1748C96.6661 10.1008 96.4604 10.0666 96.2547 10.0495C96.0775 10.0381 95.9175 10.0723 95.7918 10.209C95.769 10.1919 95.7404 10.1748 95.7118 10.1635C95.3861 9.98114 94.9918 9.87859 94.6146 9.91278C94.4089 9.92987 94.2317 9.99254 94.1289 10.1919C93.9689 10.511 93.8089 10.83 93.6488 11.1491C92.9517 12.5278 92.2431 13.9008 91.5173 15.2625C91.2259 15.8151 90.9287 16.3677 90.6315 16.9147C90.5458 16.6583 90.4658 16.3962 90.3744 16.1399C90.1687 15.5416 89.9572 14.9548 89.7229 14.368C89.5972 14.0547 89.4715 13.747 89.3343 13.4394C89.2143 13.1716 89.1 12.8981 88.9572 12.6361C88.8829 12.4993 88.7972 12.3626 88.7057 12.2372C88.5971 12.0834 88.5 11.9296 88.38 11.7815C88.18 11.5308 87.9285 11.32 87.6542 11.1605C87.4942 11.0636 87.3228 10.9952 87.1342 10.9611C86.9399 10.9269 86.7513 10.9098 86.557 10.9212C86.1741 10.9326 85.8141 11.0864 85.477 11.2687C85.3341 11.3428 85.2712 11.4738 85.2084 11.6106C85.2198 11.5878 85.2312 11.565 85.237 11.5365C85.237 11.5479 85.2255 11.5593 85.2198 11.565C85.197 11.6162 85.1798 11.6618 85.1684 11.7245C85.1627 11.7815 85.1684 11.8384 85.1741 11.8954C85.1855 11.941 85.197 11.9809 85.2084 12.0264C85.2312 12.1062 85.2484 12.186 85.2712 12.2657C85.317 12.431 85.357 12.5962 85.4027 12.7614C85.4884 13.0861 85.6084 13.4109 85.717 13.7299C85.9341 14.368 86.1684 15.0004 86.3799 15.6442C86.597 16.288 86.7742 16.9432 86.9342 17.5983C87.0942 18.2649 87.2542 18.9372 87.3971 19.6095C87.5399 20.2817 87.6714 20.954 87.7799 21.6263C87.7914 21.7117 87.8085 21.7972 87.82 21.8827C87.82 21.9055 87.8314 21.9225 87.8428 21.9453C87.7171 22.7657 87.9342 23.6146 88.2657 24.3667C88.3971 24.6686 88.5571 24.9649 88.7343 25.2383C88.7686 25.2896 88.7972 25.3466 88.8372 25.3922C88.9514 25.8365 89.0829 26.2809 89.2086 26.7196C89.5686 28.0186 89.9286 29.3119 90.2944 30.6108C90.3115 30.6678 90.323 30.7248 90.3401 30.7817C90.3744 30.9071 90.4544 31.0039 90.5287 31.1065C90.8773 31.568 91.2716 31.9839 91.7059 32.3713C92.4431 33.0208 93.2602 33.5848 94.1117 34.0804C94.2946 34.1887 94.4832 34.3083 94.6775 34.3938C94.8032 34.5134 94.9518 34.616 95.0946 34.7185C95.3289 34.8837 95.5747 35.0319 95.8261 35.1629C96.7062 35.613 97.6719 35.8694 98.6491 35.9776C98.8034 35.9947 98.9577 36.0118 99.112 36.0118C99.1349 36.0118 99.1577 36.0118 99.1806 36.0061C99.8606 36.2511 100.552 36.4619 101.244 36.6613C101.941 36.8607 102.649 37.043 103.352 37.2139C103.804 37.3222 104.255 37.4304 104.707 37.5273C104.735 37.533 104.764 37.5387 104.798 37.5444C105.261 38.0172 105.729 38.4844 106.192 38.9573C106.975 39.7492 107.752 40.5354 108.535 41.3273C108.713 41.5096 108.895 41.6919 109.073 41.8743C109.227 42.0338 109.518 42.0395 109.673 41.8743C109.793 41.7432 109.827 41.5609 109.758 41.4071C109.924 41.4071 110.09 41.4071 110.25 41.4071C110.747 41.4071 111.244 41.4071 111.741 41.4071C112.021 41.4071 112.301 41.4071 112.581 41.4071C112.73 41.4071 112.873 41.276 112.861 41.1279C112.856 40.9741 112.736 40.8487 112.581 40.8487C112.084 40.8487 111.593 40.8487 111.096 40.8487C110.598 40.8487 110.101 40.8487 109.604 40.8487C109.484 40.8487 109.364 40.8487 109.244 40.8487C108.947 40.5468 108.644 40.2448 108.347 39.9429C108.753 39.9429 109.158 39.9429 109.564 39.9429C110.21 39.9429 110.855 39.9429 111.496 39.9429C111.856 39.9429 112.216 39.9429 112.581 39.9429C112.73 39.9429 112.873 39.8119 112.861 39.6637C112.856 39.5099 112.736 39.3789 112.581 39.3846C111.941 39.3846 111.296 39.3846 110.655 39.3846C110.01 39.3846 109.364 39.3846 108.724 39.3846C108.415 39.3846 108.101 39.3846 107.792 39.3846C107.558 39.151 107.33 38.9117 107.095 38.6781C107.701 38.6781 108.307 38.6781 108.913 38.6781C109.695 38.6781 110.478 38.6781 111.261 38.6781C111.701 38.6781 112.141 38.6781 112.581 38.6781C112.73 38.6781 112.873 38.5471 112.861 38.3989C112.856 38.2451 112.736 38.1141 112.581 38.1198C111.798 38.1198 111.016 38.1198 110.233 38.1198C109.45 38.1198 108.667 38.1198 107.878 38.1198C107.438 38.1198 106.992 38.1198 106.552 38.1198C106.547 38.1198 106.541 38.1198 106.535 38.1198C106.375 37.9603 106.215 37.795 106.055 37.6355C105.981 37.5614 105.907 37.4874 105.832 37.4133H112.284C112.381 37.4133 112.473 37.4133 112.57 37.4133C112.57 37.4133 112.576 37.4133 112.581 37.4133C112.73 37.4133 112.873 37.2823 112.861 37.1342C112.856 36.9803 112.736 36.855 112.581 36.855H105.529C105.438 36.855 105.352 36.855 105.261 36.855C105.221 36.8208 105.175 36.798 105.112 36.7809C105.061 36.7638 105.004 36.7581 104.947 36.7467C104.061 36.553 103.181 36.3422 102.306 36.1087C101.106 35.7896 99.9006 35.4421 98.752 34.9749C98.7577 34.9749 98.7691 34.9806 98.7748 34.9863C98.7634 34.9806 98.7463 34.9749 98.7291 34.9692C98.7234 34.9692 98.712 34.9635 98.7063 34.9578C98.6834 34.9464 98.6605 34.9407 98.6377 34.9293C98.5748 34.9008 98.5177 34.878 98.4548 34.8496C98.3462 34.7983 98.2434 34.747 98.1348 34.69C98.0434 34.6388 97.9519 34.5875 97.8605 34.5305C97.8205 34.5077 97.7862 34.4792 97.7462 34.4565C97.7291 34.4451 97.7176 34.4337 97.7005 34.428C97.6433 34.3824 97.5919 34.3311 97.5405 34.2798C97.5119 34.2514 97.4833 34.2172 97.4605 34.1887C97.4548 34.183 97.449 34.1716 97.4433 34.1659C97.4433 34.1716 97.4548 34.183 97.4605 34.1887C97.449 34.1773 97.4433 34.1659 97.4319 34.1545C97.4319 34.1488 97.4205 34.1431 97.4205 34.1374C97.409 34.1203 97.3919 34.0975 97.4148 34.126C97.2948 33.9608 97.1862 33.7899 97.0833 33.6133C96.809 33.1347 96.5747 32.6276 96.3576 32.1206C96.3461 32.0921 96.3347 32.0636 96.3176 32.0294C96.3118 32.0123 96.3061 32.0009 96.3004 31.9839C96.2661 31.9098 96.2376 31.83 96.209 31.756C96.1461 31.6078 96.089 31.4597 96.0318 31.3116C95.9118 31.0096 95.7975 30.702 95.689 30.3943C95.2889 29.2948 94.9232 28.1781 94.626 27.0501C94.5746 26.8563 94.5289 26.6683 94.4832 26.4689C94.466 26.3949 94.4546 26.3265 94.4375 26.2524C94.4375 26.2353 94.4317 26.2126 94.426 26.1955C94.426 26.2069 94.426 26.2183 94.426 26.2353C94.426 26.224 94.426 26.2069 94.426 26.1955C94.426 26.1898 94.426 26.1841 94.426 26.1784C94.426 26.167 94.426 26.1556 94.426 26.1442C94.426 26.1499 94.426 26.1613 94.4146 26.1727C94.4146 26.1613 94.4146 26.1442 94.4203 26.1328C94.4203 26.1328 94.4203 26.1271 94.4203 26.1214C94.4203 26.11 94.4203 26.1043 94.4203 26.0929C94.4203 26.0701 94.4317 26.053 94.4317 26.0587C94.4317 26.0473 94.4432 26.0359 94.4489 26.0246C94.4489 26.0246 94.4489 26.0245 94.4489 26.0189C94.4489 26.0189 94.4489 26.0189 94.4489 26.0246C94.4489 26.0246 94.4489 26.0189 94.4546 26.0132C94.4775 25.9676 94.5003 25.9277 94.5232 25.8821C94.5803 25.7796 94.6432 25.6827 94.706 25.5859C94.7803 25.4719 94.8603 25.358 94.9461 25.2497C94.9632 25.2269 94.9861 25.1985 95.0032 25.1757C95.0089 25.1643 95.0203 25.1529 95.0261 25.1415C95.0775 25.0731 95.1346 25.0104 95.1861 24.9421C95.4204 24.6572 95.6718 24.3837 95.929 24.1217C96.2261 23.8197 96.5347 23.5292 96.8547 23.25C97.0262 23.1019 97.2033 22.9537 97.3805 22.817C97.4148 22.7885 97.4548 22.76 97.4948 22.7316C97.4948 22.7316 97.4948 22.7316 97.5005 22.7316C97.5291 22.7145 97.5519 22.6917 97.5805 22.6746C97.6776 22.6005 97.7748 22.5321 97.8719 22.4638C98.1977 22.2302 98.5348 22.0137 98.8834 21.8143C99.4377 21.8941 99.9978 21.9795 100.552 22.0593C101.541 22.2017 102.529 22.3498 103.518 22.4923C103.712 22.5208 103.907 22.5492 104.095 22.5777C104.112 22.6005 104.124 22.6176 104.135 22.6404C104.158 22.6803 104.181 22.7145 104.198 22.7543C104.198 22.7543 104.198 22.7543 104.198 22.76C104.204 22.7828 104.215 22.7999 104.221 22.8227C104.227 22.8455 104.232 22.8683 104.238 22.8911C104.238 22.9025 104.244 22.9196 104.249 22.9423C104.249 22.9537 104.249 22.9708 104.249 22.9708C104.249 23.005 104.249 23.0392 104.249 23.0734C104.249 23.0734 104.249 23.0791 104.249 23.0848C104.249 23.1076 104.238 23.1304 104.232 23.1588C104.221 23.193 104.209 23.2215 104.204 23.2557C104.198 23.2728 104.187 23.2899 104.181 23.3013C104.164 23.3412 104.141 23.3753 104.118 23.4095C104.107 23.4266 104.095 23.4437 104.084 23.4608C104.049 23.5178 104.078 23.4722 104.089 23.4608C104.038 23.5463 103.941 23.626 103.867 23.6944C103.832 23.7229 103.781 23.7514 103.752 23.7912C103.707 23.8254 103.655 23.8539 103.604 23.8824C103.552 23.9109 103.507 23.9337 103.455 23.9622C103.432 23.9735 103.409 23.9849 103.387 23.9906C103.381 23.9906 103.375 23.9906 103.364 23.9963C103.112 24.0932 102.855 24.1616 102.592 24.2071C102.524 24.2185 102.455 24.2299 102.386 24.2413C102.364 24.2413 102.341 24.247 102.318 24.2527C102.301 24.2527 102.284 24.2527 102.266 24.2584C102.124 24.2755 101.981 24.2869 101.838 24.2983C101.324 24.3325 100.804 24.3325 100.289 24.304C100.021 24.2926 99.752 24.2698 99.4834 24.2413C99.3406 24.2242 99.1863 24.3325 99.1177 24.4521C99.0434 24.5775 99.0377 24.7484 99.1177 24.8794C99.1234 24.8908 99.1291 24.9022 99.1349 24.9136C99.1349 24.9136 99.1349 24.9193 99.1406 24.925C99.1577 24.9706 99.1749 25.0161 99.1863 25.0674C99.192 25.0959 99.2034 25.1301 99.2091 25.1586C99.2091 25.17 99.2091 25.1757 99.2091 25.1871C99.2149 25.2668 99.2206 25.3523 99.2149 25.432C99.2149 25.4719 99.2149 25.5118 99.2034 25.5517C99.2034 25.5802 99.192 25.6087 99.1863 25.6314C99.1634 25.7454 99.1291 25.8593 99.0891 25.9676C99.0891 25.9733 99.0891 25.979 99.0834 25.9847C99.072 26.0132 99.0606 26.0359 99.0491 26.0644C99.0148 26.1328 98.9806 26.2012 98.9406 26.2695C98.8948 26.3493 98.8434 26.4234 98.792 26.4974C98.7691 26.5259 98.752 26.5544 98.7291 26.5886C98.7291 26.5886 98.7234 26.5943 98.7177 26.6C98.6948 26.6228 98.6777 26.6512 98.6548 26.674C98.5062 26.8506 98.3405 27.0159 98.1691 27.1697C97.9062 27.409 98.1062 27.916 98.4663 27.8932C98.5348 27.8932 98.5977 27.8932 98.6663 27.8932C98.7005 27.8932 98.7348 27.8932 98.7691 27.8989C98.7806 27.8989 98.792 27.8989 98.8034 27.8989C98.8891 27.9103 98.9691 27.9274 99.0549 27.9502C99.1577 27.9787 99.2549 28.0129 99.3577 28.0528C99.1977 27.9958 99.3634 28.0528 99.4092 28.0813C99.4606 28.1097 99.512 28.1382 99.5635 28.1667C99.5863 28.1838 99.6149 28.2009 99.6377 28.218C99.6835 28.2579 99.7292 28.2977 99.7749 28.3433C99.8149 28.3889 99.8492 28.4345 99.8949 28.4801C99.8892 28.4744 99.8835 28.4687 99.8777 28.463C99.8835 28.4687 99.8892 28.4801 99.8949 28.4858C99.9178 28.5199 99.9349 28.5484 99.9578 28.5826C99.9806 28.6168 99.9978 28.651 100.015 28.6852C100.021 28.6966 100.026 28.7136 100.038 28.725C100.061 28.8048 100.095 28.8846 100.118 28.9643C100.129 29.0156 100.141 29.0669 100.152 29.1181C100.152 29.1409 100.158 29.158 100.163 29.1808C100.163 29.1808 100.163 29.1865 100.163 29.1922C100.169 29.3062 100.181 29.4144 100.186 29.5284C100.186 29.836 100.552 30.0753 100.826 29.893C100.884 29.8531 100.946 29.8189 101.009 29.7904C101.026 29.779 101.049 29.7733 101.066 29.7619C101.055 29.7619 101.066 29.7619 101.089 29.7505C101.089 29.7505 101.095 29.7505 101.101 29.7505C101.118 29.7448 101.135 29.7334 101.152 29.7278C101.141 29.7278 101.129 29.7391 101.124 29.7448C101.124 29.7448 101.124 29.7448 101.129 29.7448C101.215 29.7107 101.301 29.6822 101.392 29.6594C101.438 29.648 101.484 29.6366 101.529 29.6309C101.529 29.6309 101.535 29.6309 101.541 29.6309C101.558 29.6309 101.569 29.6309 101.586 29.6309C101.684 29.6252 101.775 29.6309 101.866 29.6309H101.878C101.906 29.6309 101.929 29.6423 101.958 29.648C101.986 29.6537 102.009 29.6651 102.038 29.6708C102.044 29.6708 102.055 29.6765 102.061 29.6822C102.106 29.705 102.152 29.7278 102.192 29.7562C102.215 29.7733 102.244 29.7904 102.266 29.8075C102.146 29.7334 102.249 29.7961 102.284 29.8246C102.335 29.8759 102.381 29.9272 102.432 29.9784C102.444 29.9955 102.455 30.0069 102.461 30.024C102.489 30.0639 102.512 30.1038 102.535 30.1437C102.558 30.1892 102.581 30.2291 102.604 30.2747C102.615 30.2918 102.621 30.3146 102.632 30.3317C102.632 30.3317 102.632 30.3374 102.632 30.3431C102.678 30.457 102.712 30.5709 102.746 30.6849C102.844 31.0324 103.335 31.1008 103.524 30.7874C103.592 30.6621 103.678 30.5482 103.764 30.4342C103.781 30.4057 103.804 30.3829 103.821 30.3544C103.821 30.3487 103.832 30.3431 103.838 30.3374C103.889 30.2747 103.941 30.212 103.992 30.1493C104.118 30.0012 104.249 29.8588 104.387 29.7278C104.461 29.6537 104.541 29.5796 104.621 29.5113C104.655 29.4771 104.695 29.4486 104.735 29.4201C104.752 29.4087 104.769 29.3973 104.781 29.3802C104.787 29.3802 104.792 29.3688 104.804 29.3631C104.987 29.2264 105.181 29.1011 105.387 28.9985C105.438 28.97 105.495 28.9472 105.547 28.9187C105.569 28.9074 105.598 28.9017 105.621 28.8846C105.615 28.8846 105.609 28.8903 105.604 28.896C105.615 28.896 105.621 28.8846 105.632 28.8846C105.747 28.839 105.861 28.8048 105.981 28.7706C106.038 28.7535 106.095 28.7421 106.152 28.7307C106.181 28.725 106.215 28.7193 106.244 28.7136C106.261 28.7136 106.301 28.7079 106.318 28.7023C106.307 28.7023 106.29 28.7023 106.255 28.7023C106.381 28.6909 106.507 28.6795 106.632 28.6795C106.707 28.6795 106.781 28.6795 106.855 28.6909C106.89 28.6909 106.924 28.6966 106.958 28.7023C106.97 28.7023 106.981 28.7022 106.998 28.7079C107.158 28.7364 107.318 28.7763 107.472 28.8276C107.552 28.8561 107.632 28.8846 107.712 28.913C107.73 28.9187 107.747 28.9301 107.77 28.9358C107.81 28.9529 107.855 28.9757 107.895 28.9985C108.078 29.0897 108.255 29.1979 108.427 29.3119C108.61 29.4372 108.907 29.3517 109.01 29.158C109.124 28.9472 109.055 28.7136 108.855 28.5769C108.261 28.1781 107.592 27.9046 106.872 27.8477C106.29 27.7964 105.718 27.9274 105.187 28.1553C104.421 28.4858 103.781 29.0612 103.261 29.705C103.015 29.2777 102.655 28.9301 102.152 28.8105C101.752 28.7136 101.352 28.7649 100.969 28.896C100.924 28.6852 100.855 28.4744 100.764 28.275C100.615 27.973 100.386 27.7166 100.118 27.5172C99.8892 27.3463 99.6263 27.2267 99.352 27.1469C99.6435 26.788 99.8835 26.3778 99.9978 25.9277C100.066 25.6713 100.089 25.3922 100.066 25.1244C100.283 25.1358 100.501 25.1472 100.718 25.1529C101.529 25.17 102.369 25.1358 103.158 24.9364C103.524 24.8452 103.901 24.7085 104.204 24.492C104.678 24.1559 105.067 23.6773 105.107 23.0791C105.135 22.7315 105.004 22.3669 104.792 22.0935C104.684 21.951 104.569 21.7915 104.381 21.763C103.998 21.706 103.615 21.6491 103.232 21.5978C103.089 21.575 102.946 21.5579 102.804 21.5351C102.889 21.4668 102.969 21.387 103.049 21.3129C103.209 21.1534 103.358 20.9711 103.455 20.7717C103.621 20.4413 103.684 20.0595 103.558 19.7063C103.467 19.4442 103.307 19.2164 103.101 19.0283C102.998 18.9372 102.884 18.8403 102.764 18.7777C102.615 18.6979 102.466 18.7207 102.306 18.7321C102.072 18.7435 101.832 18.7549 101.598 18.7606C100.878 18.7891 100.158 18.8176 99.4377 18.8403C99.2606 18.846 99.0834 18.8517 98.9006 18.8574C98.7291 18.658 98.5634 18.4529 98.3977 18.2478C98.352 18.1909 98.312 18.1396 98.2662 18.0826C98.2434 18.0541 98.2205 18.0256 98.1977 17.9971C98.1862 17.9801 98.1691 17.963 98.1577 17.9459C98.0491 17.8034 97.9405 17.6667 97.8376 17.5243C97.6148 17.2223 97.3976 16.9204 97.1919 16.607H98.4262C98.5748 16.607 98.7177 16.476 98.7063 16.3279C98.7005 16.174 98.5805 16.0487 98.4262 16.0487H96.8319C96.729 15.8835 96.6319 15.7183 96.5347 15.5473C96.4947 15.479 96.4604 15.4106 96.4204 15.3422H98.4262C98.5748 15.3422 98.7177 15.2112 98.7063 15.0631C98.7005 14.9092 98.5805 14.7839 98.4262 14.7839H96.2833C96.2376 14.7839 96.1976 14.7953 96.1575 14.8181C96.1575 14.8067 96.1461 14.7953 96.1404 14.7839C96.209 14.5503 96.2776 14.3167 96.3404 14.0831H98.432C98.5805 14.0831 98.7234 13.9521 98.712 13.804C98.7063 13.6502 98.5863 13.5248 98.432 13.5248H96.489C96.5176 13.4052 96.5461 13.2855 96.5747 13.1659C96.6033 13.052 96.6261 12.9323 96.649 12.8127H98.1005C98.7863 13.804 99.4892 14.7839 100.243 15.7297C101.198 16.9318 102.226 18.1168 103.438 19.0739C103.724 19.3018 104.021 19.5183 104.329 19.712C104.541 19.8431 104.758 19.9513 104.975 20.0595C105.112 20.1279 105.244 20.2191 105.369 20.3045C105.609 20.4641 105.85 20.635 106.084 20.8002C106.238 20.9084 106.387 21.0224 106.541 21.1363C106.621 21.199 106.707 21.2617 106.787 21.3243C106.798 21.3357 106.815 21.3471 106.827 21.3585C106.872 21.3927 106.918 21.4269 106.964 21.4668C107.764 22.0935 108.541 22.7486 109.284 23.4437C110.113 24.2185 110.901 25.0389 111.604 25.922C111.644 25.9733 111.684 26.0246 111.73 26.0758C111.73 26.0758 111.73 26.0758 111.736 26.0815C111.736 26.0815 111.736 26.0872 111.741 26.0929C111.764 26.1214 111.787 26.1499 111.81 26.1784C111.896 26.2866 111.976 26.4006 112.056 26.5088C112.216 26.731 112.37 26.9589 112.513 27.1925C112.656 27.4204 112.787 27.6483 112.913 27.8818C112.97 27.9958 113.027 28.1097 113.084 28.2237C113.107 28.275 113.136 28.3319 113.158 28.3832C113.17 28.4117 113.181 28.4345 113.193 28.463C113.193 28.463 113.193 28.4744 113.198 28.4744C113.376 28.913 113.524 29.3688 113.599 29.836C113.599 29.8645 113.604 29.893 113.61 29.9272C113.61 29.9272 113.61 29.9158 113.61 29.9101C113.616 29.967 113.621 30.0297 113.627 30.0867C113.639 30.1949 113.638 30.3089 113.638 30.4228C113.638 30.4228 113.638 30.4285 113.638 30.4342C113.627 30.4684 113.621 30.5083 113.621 30.5482C113.621 30.5709 113.627 30.5994 113.633 30.6222C113.633 30.6678 113.633 30.7134 113.621 30.759C113.621 30.8102 113.61 30.8615 113.604 30.9128C113.621 30.7362 113.604 30.9413 113.587 30.9868C113.547 31.2033 113.484 31.4198 113.41 31.6249C113.404 31.6477 113.393 31.6648 113.387 31.6876C113.364 31.7446 113.336 31.7958 113.307 31.8528C113.256 31.9554 113.198 32.0579 113.136 32.1605C113.073 32.263 112.998 32.3599 112.93 32.4567C112.93 32.4567 112.93 32.4624 112.924 32.4681C112.907 32.4909 112.884 32.5137 112.867 32.5365C112.821 32.5878 112.781 32.639 112.736 32.6903C112.547 32.8954 112.341 33.0834 112.124 33.26C112.101 33.2771 112.078 33.2999 112.05 33.317C112.078 33.2999 112.09 33.2885 112.096 33.2885C112.084 33.2942 112.038 33.3284 112.021 33.3398C111.964 33.3854 111.907 33.4253 111.844 33.4651C111.713 33.5563 111.576 33.6418 111.438 33.7272C111.25 33.8412 111.158 34.1089 111.284 34.3083C111.404 34.4963 111.661 34.5818 111.867 34.4622C112.987 33.7842 113.999 32.7929 114.341 31.511C114.393 31.5623 114.444 31.6078 114.496 31.6591C114.776 31.9269 115.079 32.1719 115.393 32.3998C115.736 32.6447 116.101 32.8441 116.49 33.0037C116.667 33.0777 116.85 33.1347 117.039 33.1746C117.256 33.2202 117.484 33.2486 117.707 33.2486C117.753 33.2486 117.804 33.2486 117.85 33.2486C117.964 33.2429 118.067 33.2088 118.147 33.1233C118.222 33.0492 118.279 32.9296 118.273 32.827C118.273 32.7188 118.233 32.6049 118.147 32.5308L118.17 32.4738ZM101.884 29.5739C101.786 29.5682 101.844 29.5682 101.884 29.5739V29.5739ZM101.621 29.5682C101.621 29.5682 101.592 29.5682 101.564 29.5739C101.581 29.5739 101.609 29.5625 101.621 29.5682ZM100.066 28.7023C100.095 28.7649 100.072 28.725 100.061 28.6909C100.061 28.6909 100.061 28.6966 100.066 28.7023ZM94.6832 10.7617C94.6832 10.7617 94.6489 10.7674 94.5746 10.7731C94.6089 10.7731 94.6489 10.7674 94.6832 10.7617ZM88.1171 18.8688C88.0657 18.6352 88.0143 18.396 87.9571 18.1624C88.5229 18.1624 89.0829 18.1624 89.6486 18.1624C89.7458 18.1624 89.8429 18.1624 89.9401 18.1624C89.8029 18.396 89.6715 18.6352 89.5286 18.8688C89.0772 18.8688 88.6257 18.8688 88.1743 18.8688C88.1571 18.8688 88.1343 18.8688 88.1171 18.8688ZM87.3171 15.724C87.3056 15.6898 87.2942 15.6556 87.2828 15.6214C87.9 15.6214 88.5171 15.6214 89.1286 15.6214C89.1857 15.6214 89.2372 15.6214 89.2943 15.6214C89.38 15.855 89.46 16.0886 89.54 16.3279C88.9457 16.3279 88.3514 16.3279 87.7571 16.3279C87.6714 16.3279 87.5799 16.3279 87.4942 16.3279C87.4371 16.1228 87.3742 15.9234 87.3114 15.724H87.3171ZM87.9171 13.0861C88.02 13.0861 88.1285 13.0861 88.2314 13.0861C88.2657 13.1431 88.2943 13.2058 88.3228 13.2684C88.4086 13.4451 88.4886 13.616 88.5686 13.7926C87.9742 13.7926 87.3799 13.7926 86.7856 13.7926C86.7399 13.7926 86.6942 13.7926 86.6485 13.7926C86.5685 13.559 86.4885 13.3197 86.4084 13.0861C86.9113 13.0861 87.4142 13.0918 87.9171 13.0918V13.0861ZM88.3343 14.3566C88.4943 14.3566 88.6486 14.3566 88.8086 14.3566C88.9057 14.5902 88.9972 14.8238 89.0886 15.0631C88.5514 15.0631 88.02 15.0631 87.4828 15.0631C87.3514 15.0631 87.2256 15.0631 87.0942 15.0631C87.0142 14.8295 86.9285 14.5902 86.8485 14.3566C87.3456 14.3566 87.8371 14.3566 88.3343 14.3566ZM89.4372 16.8919C89.5343 16.8919 89.6372 16.8919 89.7343 16.8919C89.7686 17.0001 89.8029 17.1084 89.8372 17.2166C89.8772 17.342 89.9172 17.473 89.9572 17.5983C89.3229 17.5983 88.6886 17.5983 88.06 17.5983C87.98 17.5983 87.9 17.5983 87.8257 17.5983C87.7685 17.3648 87.7114 17.1255 87.6485 16.8919C88.2428 16.8919 88.8371 16.8919 89.4315 16.8919H89.4372ZM86.2027 11.8669C86.2999 11.827 86.397 11.7986 86.4999 11.7758C86.6313 11.7701 86.7628 11.7701 86.8942 11.7815C86.9685 11.7929 87.0485 11.81 87.1228 11.8384C87.2314 11.8954 87.3399 11.9638 87.4371 12.0378C87.5628 12.1404 87.6771 12.2543 87.7799 12.3797C87.8142 12.4253 87.8485 12.4765 87.8828 12.5278C87.4371 12.5278 86.9913 12.5278 86.5513 12.5278C86.4485 12.5278 86.3456 12.5278 86.2484 12.5278C86.1913 12.3284 86.1399 12.1347 86.0884 11.9353C86.1284 11.9182 86.1742 11.8954 86.2142 11.8783L86.2027 11.8669ZM88.4657 20.5438C88.4086 20.2476 88.3514 19.957 88.2943 19.6607C88.2771 19.5867 88.26 19.5069 88.2486 19.4329C88.5686 19.4329 88.8829 19.4329 89.2029 19.4329C89.1743 19.4784 89.1457 19.5297 89.1172 19.5753C88.9686 19.8203 88.8143 20.0595 88.6486 20.2988C88.5914 20.3843 88.5286 20.4641 88.4714 20.5495L88.4657 20.5438ZM98.1862 17.9003C98.1519 17.8547 98.1634 17.8718 98.1862 17.9003V17.9003ZM98.0091 19.6835C98.4662 19.6778 98.9291 19.6607 99.3863 19.6493C99.872 19.6323 100.358 19.6152 100.844 19.5981C101.238 19.581 101.626 19.5639 102.021 19.5468C102.169 19.5411 102.318 19.5354 102.466 19.5297C102.546 19.5924 102.615 19.6607 102.678 19.7405C102.712 19.7861 102.741 19.8374 102.769 19.8943C102.781 19.9342 102.792 19.9741 102.804 20.014C102.804 20.0539 102.804 20.0937 102.804 20.1336C102.792 20.1849 102.781 20.2362 102.758 20.2874C102.718 20.3672 102.672 20.447 102.621 20.5153C102.489 20.6748 102.341 20.8116 102.181 20.9369C102.101 20.9996 102.015 21.0623 101.929 21.1192C101.844 21.1762 101.781 21.2446 101.746 21.3414C101.592 21.3186 101.444 21.2958 101.289 21.2731C100.701 21.1876 100.112 21.1021 99.5234 21.0167C99.3577 20.9939 99.192 20.9711 99.032 20.9426C98.9977 20.9426 98.9691 20.9312 98.9348 20.9312C98.7863 20.9084 98.6777 20.9312 98.5463 21.0053C98.4205 21.0737 98.3005 21.1477 98.1748 21.2218C97.2376 21.7972 96.369 22.498 95.5804 23.2671C94.9861 23.8539 94.4089 24.492 93.9574 25.1928C93.826 25.3979 93.6831 25.6314 93.626 25.8707C93.5803 26.0587 93.6088 26.224 93.6374 26.412C93.7174 26.8848 93.8489 27.3463 93.9803 27.8021C94.1803 28.4915 94.3975 29.1751 94.6318 29.8588C94.8889 30.5994 95.1575 31.3401 95.4604 32.0693C95.7347 32.7302 96.0204 33.3911 96.3747 34.0121C96.5119 34.2571 96.6661 34.4906 96.8433 34.7014C96.7919 34.6843 96.7462 34.6616 96.7004 34.6445C96.6833 34.6388 96.6604 34.6274 96.6433 34.6217C96.6376 34.6217 96.6204 34.6103 96.609 34.6046C96.409 34.5191 96.2147 34.4223 96.0261 34.314C95.8375 34.2058 95.6547 34.0861 95.4775 33.9551C95.4775 33.9551 95.4661 33.9494 95.4661 33.9437C95.4661 33.9437 95.4661 33.9437 95.4604 33.9437C95.4432 33.9266 95.4204 33.9095 95.3975 33.8981C95.3518 33.8639 95.3061 33.8241 95.2661 33.7842C95.2261 33.75 95.1861 33.7158 95.1404 33.6873C95.0318 33.6247 94.9175 33.5677 94.8089 33.5107C94.2603 33.2088 93.7346 32.8726 93.226 32.508C93.1517 32.451 93.0717 32.3941 92.9974 32.3428C92.9574 32.3143 92.9174 32.2858 92.8831 32.2573C92.8545 32.2345 92.8259 32.2174 92.8031 32.1947C92.6374 32.0636 92.4773 31.9269 92.3173 31.7901C92.003 31.511 91.7059 31.2147 91.4316 30.8957C91.3973 30.8558 91.363 30.8159 91.3344 30.776C91.3344 30.776 91.3287 30.7647 91.323 30.759C91.3116 30.7476 91.283 30.7134 91.283 30.7077C91.2544 30.6735 91.2316 30.6336 91.203 30.5994C91.163 30.5425 91.1687 30.5083 91.1859 30.6165C91.1859 30.5994 91.1744 30.5766 91.1687 30.5595C91.1344 30.4399 91.1059 30.326 91.0716 30.2063C90.7858 29.1865 90.5001 28.161 90.2201 27.1412C90.0829 26.6569 89.9515 26.1784 89.8144 25.6941C89.7744 25.5517 89.7343 25.4036 89.6943 25.2611C89.6715 25.1814 89.6543 25.0959 89.6143 25.0218C89.5572 24.9193 89.4772 24.8281 89.42 24.7256C89.2772 24.4977 89.1572 24.2641 89.0429 24.0191C89.0429 24.0077 89.0315 23.9849 89.0257 23.9678C89.0257 23.9678 89.02 23.9678 89.0143 23.9451C89.0143 23.9394 89.0086 23.928 89.0029 23.9223C89.0029 23.9109 88.9914 23.8938 88.9857 23.8824C88.9514 23.7969 88.9229 23.7115 88.8943 23.626C88.8372 23.4608 88.7914 23.2899 88.7514 23.119C88.7343 23.0392 88.7 22.9423 88.7057 22.8626C88.7057 22.9765 88.7057 22.8398 88.7 22.8056C88.7 22.7543 88.6886 22.7031 88.6886 22.6461C88.6886 22.5549 88.6829 22.4638 88.6886 22.3783C88.6886 22.3384 88.6886 22.2929 88.6943 22.253C88.6943 22.2245 88.6943 22.2017 88.7 22.1732C88.7 22.1675 88.7 22.1561 88.7 22.1504C88.7343 21.9624 88.78 21.7801 88.8486 21.5978C88.8486 21.5978 88.8486 21.5921 88.8486 21.5864C88.86 21.5636 88.8657 21.5465 88.8772 21.5237C88.9 21.4782 88.9229 21.4269 88.9514 21.3813C89.0029 21.2845 89.0657 21.1933 89.1286 21.1078C89.2429 20.954 89.3572 20.8002 89.4658 20.6464C89.7343 20.2476 89.9858 19.8317 90.2315 19.4158C90.8887 18.3048 91.5059 17.1654 92.1116 16.0259C92.7116 14.9036 93.3002 13.7698 93.8774 12.6361C94.1917 12.0208 94.506 11.4055 94.8146 10.7845C94.8318 10.7845 94.8546 10.7845 94.8718 10.7845C94.8718 10.7845 94.8775 10.7845 94.8832 10.7845C94.8832 10.7845 94.8832 10.7845 94.8889 10.7845C94.9003 10.7845 94.9061 10.7845 94.9175 10.7845C94.9403 10.7845 94.9518 10.7901 94.9518 10.7958C94.9689 10.7958 94.9861 10.7958 95.0032 10.8015C95.0489 10.8129 95.1289 10.8243 95.1861 10.8471C95.1918 10.8528 95.2032 10.8585 95.2146 10.8699C95.2318 10.8756 95.2489 10.887 95.2661 10.8927C95.3175 10.9212 95.3632 10.9497 95.4146 10.9782C95.4318 10.9896 95.4489 11.0066 95.4718 11.018C95.4718 11.018 95.4718 11.018 95.4775 11.0237C95.5175 11.0636 95.5575 11.0978 95.5975 11.1377C95.6318 11.1776 95.6661 11.2174 95.7004 11.2573C95.7004 11.263 95.7118 11.2744 95.7175 11.2744C95.7404 11.3143 95.769 11.3485 95.7918 11.3884C95.809 11.4168 95.8261 11.4453 95.8432 11.4795C95.8432 11.4795 95.8547 11.5023 95.8604 11.5194C95.8661 11.5365 95.8718 11.5593 95.8775 11.5593C95.8832 11.5878 95.8947 11.6162 95.9004 11.6447C95.9004 11.6675 95.9232 11.7644 95.9232 11.7587C95.929 11.8213 95.9347 11.8897 95.9347 11.9524C95.9347 12.0777 95.9347 12.2031 95.9175 12.3284C95.9175 12.3284 95.9175 12.3455 95.9175 12.3626C95.9175 12.374 95.9118 12.4253 95.9118 12.4253C95.9004 12.4822 95.889 12.5392 95.8775 12.5962C95.8204 12.8639 95.7575 13.126 95.689 13.3881C95.2318 15.1485 94.6603 16.8919 93.9917 18.584C93.8889 18.8517 93.7803 19.1138 93.6717 19.3759C93.6717 19.3759 93.6717 19.3873 93.666 19.393C93.666 19.393 93.666 19.4044 93.6603 19.4101C93.6431 19.4442 93.6317 19.4784 93.6146 19.5126C93.586 19.581 93.5574 19.6436 93.5288 19.712C93.4717 19.8374 93.4145 19.9627 93.3574 20.088C93.1517 20.5381 92.9288 20.9825 92.6888 21.4155C92.4945 21.575 92.3002 21.7288 92.1059 21.8884C91.7345 22.1846 91.3687 22.4809 90.9973 22.7771C90.5972 23.0905 90.2944 23.5292 90.1687 24.0248C89.9972 24.7028 90.1458 25.4263 90.4544 26.0416C90.4715 26.0701 90.483 26.1043 90.5001 26.1328C90.5572 26.2752 90.6144 26.412 90.6715 26.5544C90.843 26.9646 91.0087 27.3805 91.1801 27.7907C91.3859 28.2864 91.5859 28.782 91.7916 29.2834C91.9688 29.7107 92.1459 30.1437 92.3231 30.5709C92.4088 30.7817 92.4945 30.9925 92.5802 31.2033C92.5802 31.2033 92.5802 31.209 92.5802 31.2147C92.6259 31.323 92.6716 31.4084 92.7745 31.4654C92.8659 31.5167 92.9974 31.5395 93.1002 31.5053C93.2031 31.4711 93.3003 31.4084 93.3517 31.3116C93.4031 31.2204 93.4374 31.0894 93.3917 30.9868C93.306 30.7817 93.226 30.5766 93.1402 30.3715C92.9459 29.893 92.7517 29.4201 92.5516 28.9415C92.3288 28.4003 92.1059 27.8591 91.883 27.3178C91.7173 26.9133 91.5516 26.5031 91.3801 26.0986C91.3459 26.0075 91.3059 25.922 91.2716 25.8308C91.2316 25.7397 91.1858 25.6542 91.1458 25.5631C91.1344 25.5346 91.123 25.5118 91.1116 25.4833C91.0316 25.2839 90.9744 25.0788 90.9401 24.868C90.923 24.7142 90.923 24.5547 90.9401 24.4008C90.963 24.2755 90.9916 24.1559 91.0373 24.0362C91.0887 23.928 91.1459 23.8254 91.2144 23.7286C91.3516 23.5633 91.5116 23.4266 91.6773 23.2956C91.8487 23.1588 92.0259 23.0221 92.1973 22.8797C92.5459 22.6005 92.8945 22.3213 93.2374 22.0422C93.2602 22.0251 93.2831 22.008 93.306 21.9852C93.8431 21.5465 94.3803 21.1135 94.9175 20.6748C94.9861 20.6179 95.0546 20.5609 95.1232 20.5096C95.4147 20.2931 95.7347 20.1108 96.0718 19.9627C96.329 19.8601 96.5919 19.7804 96.8662 19.7405C97.0662 19.7177 97.2719 19.7234 97.4719 19.7234C97.6548 19.7234 97.8376 19.7234 98.0205 19.7234L98.0091 19.6835ZM97.4548 18.846C97.3005 18.846 97.1462 18.8403 96.9976 18.846C96.7119 18.8631 96.4319 18.9144 96.1575 18.9999C95.7232 19.1309 95.3118 19.3303 94.9289 19.5753C94.6832 19.7348 94.4603 19.9171 94.2317 20.1051C94.4203 19.6778 94.5975 19.2505 94.7632 18.8176C95.1404 17.8547 95.4832 16.8748 95.7975 15.8892C96.1118 16.4646 96.4833 17.0115 96.8604 17.5414C97.1805 17.9858 97.5119 18.4187 97.8491 18.846C97.7176 18.846 97.5805 18.846 97.449 18.846H97.4548ZM96.7519 12.186C96.7633 12.0264 96.7633 11.8612 96.7462 11.7017C96.7176 11.4225 96.6376 11.1833 96.5061 10.9497C96.529 10.9554 96.5519 10.9611 96.5747 10.9725C96.5976 10.9782 96.6147 10.9896 96.6376 10.9952C96.6604 11.0009 96.6604 11.0009 96.6547 10.9952C96.689 11.0123 96.729 11.0408 96.7404 11.0465C96.7747 11.0636 96.8147 11.0864 96.849 11.1092C96.8719 11.1263 96.8947 11.1377 96.9176 11.1548C96.9347 11.1662 96.9405 11.1719 96.9462 11.1719C96.9462 11.1719 96.9462 11.1719 96.9519 11.1776C97.0376 11.2516 97.1233 11.3314 97.1976 11.4168C97.209 11.4282 97.2433 11.4738 97.2605 11.4966C97.4262 11.7188 97.5805 11.9524 97.7405 12.186H96.7519Z" fill="#231F20"/>
        <path d="M95.2207 1.85168V5.37826C95.2207 5.54348 95.2207 5.703 95.2207 5.86822C95.2207 5.86822 95.2207 5.86822 95.2207 5.87392C95.2207 5.98217 95.2664 6.09611 95.3464 6.17018C95.4264 6.24424 95.5407 6.30121 95.6436 6.29552C95.7464 6.28982 95.8664 6.25564 95.9407 6.17018C96.015 6.08472 96.0665 5.98787 96.0665 5.87392V2.34733C96.0665 2.18211 96.0665 2.02259 96.0665 1.85737C96.0665 1.85737 96.0665 1.85737 96.0665 1.85168C96.0665 1.74343 96.0207 1.62948 95.9407 1.55542C95.8607 1.48136 95.7464 1.42438 95.6436 1.43008C95.5407 1.43578 95.4207 1.46996 95.3464 1.55542C95.2721 1.64088 95.2207 1.73773 95.2207 1.85168Z" fill="#231F20"/>
        <path d="M101.786 8.36914H98.2486C98.0828 8.36914 97.9228 8.36914 97.7571 8.36914C97.7571 8.36914 97.7571 8.36914 97.7514 8.36914C97.6428 8.36914 97.5285 8.41472 97.4542 8.49448C97.38 8.57424 97.3228 8.68819 97.3285 8.79074C97.3342 8.89329 97.3685 9.01293 97.4542 9.08699C97.54 9.16106 97.6371 9.21233 97.7514 9.21233H101.289C101.454 9.21233 101.614 9.21233 101.78 9.21233C101.78 9.21233 101.78 9.21233 101.786 9.21233C101.894 9.21233 102.009 9.16675 102.083 9.08699C102.157 9.00723 102.214 8.89329 102.209 8.79074C102.203 8.68819 102.169 8.56854 102.083 8.49448C101.997 8.42042 101.9 8.36914 101.786 8.36914Z" fill="#231F20"/>
        <path d="M93.5867 8.36914H90.0494C89.8836 8.36914 89.7236 8.36914 89.5579 8.36914C89.5579 8.36914 89.5579 8.36914 89.5522 8.36914C89.4436 8.36914 89.3293 8.41472 89.255 8.49448C89.1807 8.57424 89.1236 8.68819 89.1293 8.79074C89.135 8.89329 89.1693 9.01293 89.255 9.08699C89.3407 9.16106 89.4379 9.21233 89.5522 9.21233H93.0895C93.2552 9.21233 93.4153 9.21233 93.581 9.21233C93.581 9.21233 93.581 9.21233 93.5867 9.21233C93.6953 9.21233 93.8096 9.16675 93.8838 9.08699C93.9581 9.00723 94.0153 8.89329 94.0096 8.79074C94.0039 8.68819 93.9696 8.56854 93.8838 8.49448C93.7981 8.42042 93.701 8.36914 93.5867 8.36914Z" fill="#231F20"/>
        <path d="M93.8041 6.33454C93.6955 6.25478 93.5926 6.17502 93.4841 6.09526L92.7126 5.51984L91.7811 4.82478L90.9696 4.22087C90.8382 4.12402 90.7125 4.02147 90.5753 3.93031C90.5239 3.90182 90.4725 3.88473 90.4153 3.87903C90.3582 3.86764 90.301 3.86764 90.2439 3.88473C90.1467 3.91322 90.0382 3.98728 89.9924 4.07844C89.941 4.17529 89.9124 4.29493 89.9524 4.40318L89.9924 4.50573C90.0324 4.5684 90.0782 4.61968 90.1467 4.65956C90.2553 4.73932 90.3582 4.81908 90.4668 4.89884L91.2382 5.47426L92.1697 6.16932L92.9812 6.77323C93.1126 6.87008 93.2383 6.97263 93.3755 7.06379C93.4269 7.09227 93.4783 7.10937 93.5355 7.11506C93.5926 7.12646 93.6498 7.12646 93.7069 7.10937C93.8041 7.08088 93.9127 7.00682 93.9584 6.91566C94.0098 6.81881 94.0384 6.69917 93.9984 6.59092L93.9584 6.48837C93.9184 6.4257 93.8727 6.37442 93.8041 6.33454Z" fill="#231F20"/>
        <path d="M97.9643 7.06423C98.0728 6.98447 98.1757 6.90471 98.2843 6.82495L99.0558 6.24953L99.9872 5.55447L100.799 4.95056C100.93 4.85371 101.062 4.75685 101.193 4.66C101.244 4.63151 101.284 4.59733 101.313 4.55175C101.353 4.51187 101.376 4.4606 101.387 4.40932C101.416 4.30677 101.404 4.17574 101.347 4.08458C101.29 3.99342 101.204 3.91366 101.096 3.89087C100.987 3.86808 100.856 3.86808 100.77 3.93075C100.662 4.01052 100.559 4.09028 100.45 4.17004L99.6786 4.74546L98.7472 5.44052L97.9357 6.04443C97.8043 6.14128 97.6728 6.23813 97.5414 6.33499C97.4899 6.36347 97.45 6.39766 97.4214 6.44323C97.3814 6.48311 97.3585 6.53439 97.3471 6.58566C97.3185 6.68822 97.3299 6.81925 97.3871 6.91041C97.4442 7.00156 97.53 7.08132 97.6385 7.10411C97.7471 7.1269 97.8785 7.1269 97.9643 7.06423Z" fill="#231F20"/>
        <path d="M99.9969 1.68068C98.8997 1.94276 98.7111 2.15355 98.4711 3.36137C98.2311 2.15355 98.0425 1.94276 96.9453 1.68068C98.0425 1.41861 98.2311 1.20781 98.4711 0C98.7111 1.20781 98.8997 1.41861 99.9969 1.68068Z" fill="#E51E25"/>
        <path d="M93.9689 3.09957C93.2545 3.27048 93.1288 3.40722 92.9688 4.19913C92.8145 3.40722 92.6888 3.27048 91.9688 3.09957C92.6831 2.92865 92.8088 2.79192 92.9688 2C93.1231 2.79192 93.2488 2.92865 93.9689 3.09957Z" fill="#0ABDE7"/>
        <path d="M96.5177 8.13552C95.9119 8.27795 95.8034 8.39759 95.6719 9.06986C95.5405 8.40329 95.4319 8.28365 94.8262 8.13552C95.4319 7.99309 95.5405 7.87345 95.6719 7.20117C95.8034 7.86775 95.9119 7.98739 96.5177 8.13552Z" fill="#F7C81E"/>
        <path d="M1.64009 17.0402C1.16006 17.0402 0.765756 16.8921 0.457168 16.6015C0.14858 16.311 0 15.9463 0 15.5133C0 15.0804 0.154294 14.6929 0.457168 14.4138C0.760041 14.1346 1.15435 13.9922 1.64009 13.9922C2.12583 13.9922 2.51442 14.1346 2.82301 14.4138C3.1316 14.6929 3.28018 15.0633 3.28018 15.5133C3.28018 15.9634 3.12588 16.3224 2.82301 16.6072C2.52014 16.8921 2.12583 17.0345 1.64009 17.0345V17.0402ZM2.99445 27.7738H0.234298V18.3107H2.99445V27.7738Z" fill="#231F20"/>
        <path d="M11.554 27.6208C11.2625 27.7461 10.9425 27.843 10.5882 27.9057C10.2339 27.9683 9.8739 28.0025 9.50816 28.0025C8.49668 28.0025 7.73092 27.7575 7.21661 27.2619C6.7023 26.7662 6.44514 26.037 6.44514 25.0627V20.3568H4.89648V18.3172H6.44514V16.1864L9.20529 15.3945V18.3172H11.3654V20.3568H9.20529V24.8747C9.20529 25.2621 9.27958 25.5413 9.43387 25.7122C9.58817 25.8831 9.81675 25.9743 10.1311 25.9743C10.2911 25.9743 10.4454 25.9572 10.5939 25.9173C10.7425 25.8774 10.8797 25.8262 11.0111 25.7578L11.5654 27.6265L11.554 27.6208Z" fill="#231F20"/>
        <path d="M16.4172 14.5332L14.6971 18.5441H12.9941L14.0171 14.5332H16.4172Z" fill="#231F20"/>
        <path d="M16.2752 26.9827L17.4239 25.1311C17.7496 25.3761 18.1268 25.5869 18.5611 25.7578C18.9954 25.9288 19.4754 26.0142 20.0126 26.0142C20.4183 26.0142 20.7441 25.9401 21.0012 25.792C21.2584 25.6439 21.3841 25.4217 21.3841 25.1197C21.3841 24.8805 21.2869 24.6868 21.0869 24.5443C20.8869 24.4019 20.5212 24.2709 19.984 24.1512C18.8068 23.9005 17.9611 23.5473 17.4525 23.0915C16.9439 22.6357 16.681 22.0034 16.681 21.1944C16.681 20.2429 17.0581 19.4852 17.8182 18.9212C18.5725 18.3571 19.504 18.0723 20.6069 18.0723C21.1727 18.0723 21.7098 18.1463 22.2241 18.2945C22.7385 18.4426 23.2128 18.6591 23.6585 18.9496L22.6184 20.7329C22.2299 20.4936 21.8698 20.317 21.5384 20.203C21.2069 20.0891 20.8584 20.0378 20.504 20.0378C20.0926 20.0378 19.7669 20.1176 19.5154 20.2714C19.264 20.4252 19.144 20.6303 19.144 20.8753C19.144 21.1431 19.2583 21.3482 19.4811 21.4735C19.704 21.5989 20.1383 21.7356 20.7783 21.8666C21.8698 22.0945 22.6585 22.442 23.1328 22.9092C23.6071 23.3764 23.8528 24.0088 23.8528 24.8178C23.8528 25.7749 23.4928 26.5441 22.767 27.1195C22.0413 27.6949 21.0869 27.9911 19.8983 27.9911C19.2411 27.9911 18.6182 27.9057 18.0239 27.7405C17.4296 27.5752 16.8467 27.3189 16.2695 26.9713L16.2752 26.9827Z" fill="#231F20"/>
        <path d="M29.8768 26.9827L31.0254 25.1311C31.3512 25.3761 31.7283 25.5869 32.1626 25.7578C32.597 25.9288 33.077 26.0142 33.6142 26.0142C34.0199 26.0142 34.3456 25.9401 34.6028 25.792C34.8599 25.6439 34.9857 25.4217 34.9857 25.1197C34.9857 24.8805 34.8885 24.6868 34.6885 24.5443C34.4885 24.4019 34.1228 24.2709 33.5856 24.1512C32.4084 23.9005 31.5626 23.5473 31.054 23.0915C30.5454 22.6357 30.2825 22.0034 30.2825 21.1944C30.2825 20.2429 30.6597 19.4852 31.4197 18.9212C32.1798 18.3571 33.1056 18.0723 34.2085 18.0723C34.7742 18.0723 35.3114 18.1463 35.8257 18.2945C36.34 18.4426 36.8143 18.6591 37.2601 18.9496L36.22 20.7329C35.8314 20.4936 35.4714 20.317 35.14 20.203C34.8085 20.0891 34.4599 20.0378 34.1056 20.0378C33.6942 20.0378 33.3684 20.1176 33.117 20.2714C32.8655 20.4252 32.7455 20.6303 32.7455 20.8753C32.7455 21.1431 32.8598 21.3482 33.0827 21.4735C33.3056 21.5989 33.7399 21.7356 34.3799 21.8666C35.4714 22.0945 36.26 22.442 36.7343 22.9092C37.2086 23.3764 37.4544 24.0088 37.4544 24.8178C37.4544 25.7749 37.0943 26.5441 36.3686 27.1195C35.6428 27.7006 34.6885 27.9911 33.4999 27.9911C32.8427 27.9911 32.2198 27.9057 31.6255 27.7405C31.0312 27.5752 30.4483 27.3189 29.8711 26.9713L29.8768 26.9827Z" fill="#231F20"/>
        <path d="M54.1461 27.7729H51.386V22.3719C51.386 21.6369 51.2546 21.0957 50.9917 20.7368C50.7288 20.3779 50.3288 20.2069 49.7916 20.2069C49.2887 20.2069 48.883 20.4234 48.563 20.8564C48.243 21.2894 48.083 21.825 48.083 22.4687V27.7729H45.3228V22.2978C45.3228 21.5971 45.1914 21.0672 44.9228 20.7254C44.6542 20.3836 44.2656 20.2069 43.7456 20.2069C43.2256 20.2069 42.8027 20.412 42.4884 20.8222C42.1741 21.2324 42.0198 21.7908 42.0198 22.4972V27.7729H39.2539V18.3098H42.0198V19.791H42.0541C42.3626 19.2726 42.7855 18.8567 43.3227 18.549C43.8599 18.2414 44.4599 18.0819 45.1114 18.0819C45.7628 18.0819 46.3457 18.23 46.8029 18.532C47.2601 18.8339 47.6086 19.2783 47.8544 19.8651C48.2144 19.2612 48.6601 18.8168 49.1916 18.5206C49.723 18.2243 50.3402 18.0762 51.0374 18.0762C52.066 18.0762 52.8432 18.3952 53.3632 19.0276C53.8833 19.66 54.1404 20.6171 54.1404 21.8933V27.7729H54.1461Z" fill="#231F20"/>
        <path d="M64.4142 27.7729H61.7798V26.3998H61.7455C61.4312 26.9297 61.0369 27.3285 60.5626 27.6019C60.0883 27.8754 59.5454 28.0064 58.9453 28.0064C58.0996 28.0064 57.391 27.7558 56.8081 27.2487C56.2252 26.7417 55.9395 26.0466 55.9395 25.1578C55.9395 24.2691 56.2252 23.5569 56.8024 23.01C57.3795 22.463 58.271 22.1098 59.4825 21.9446L61.8083 21.6312V21.4489C61.8083 20.9647 61.6598 20.5943 61.3569 20.3494C61.054 20.1044 60.6369 19.979 60.1111 19.979C59.7111 19.979 59.2768 20.0474 58.8082 20.1841C58.3396 20.3209 57.8653 20.5317 57.3852 20.8279L56.408 19.1928C57.0309 18.8168 57.6595 18.532 58.2939 18.3496C58.9282 18.1673 59.6197 18.0762 60.3625 18.0762C61.7398 18.0762 62.757 18.4066 63.4199 19.0675C64.0828 19.7284 64.4142 20.7254 64.4142 22.0528V27.7729ZM61.8083 23.9215V23.255L60.0082 23.4885C59.4996 23.5569 59.1225 23.6993 58.8768 23.9272C58.631 24.1551 58.5053 24.4571 58.5053 24.8331C58.5053 25.1806 58.6253 25.4655 58.8653 25.6877C59.1053 25.9099 59.4311 26.0238 59.8425 26.0238C60.4197 26.0238 60.894 25.8244 61.2597 25.4313C61.6255 25.0382 61.8083 24.5311 61.8083 23.9215Z" fill="#231F20"/>
        <path d="M72.7291 20.6114C72.6091 20.5829 72.4834 20.5602 72.3577 20.5431C72.232 20.526 72.0948 20.5203 71.9405 20.5203C71.1862 20.5203 70.6205 20.7596 70.2376 21.2381C69.8547 21.7167 69.6604 22.3776 69.6604 23.2265V27.7729H66.8945V18.3098H69.6604V20.0759H69.6947C69.9176 19.4321 70.2433 18.9478 70.6605 18.6288C71.0776 18.3098 71.5976 18.1445 72.1977 18.1445C72.3405 18.1445 72.4834 18.1559 72.6206 18.173C72.7577 18.1901 72.8949 18.2129 73.0434 18.2471L72.7291 20.6114Z" fill="#231F20"/>
        <path d="M80.845 27.6208C80.5536 27.7461 80.2335 27.843 79.8792 27.9057C79.5249 27.9683 79.1649 28.0025 78.7992 28.0025C77.7877 28.0025 77.0219 27.7575 76.5076 27.2619C75.9933 26.7662 75.7362 26.037 75.7362 25.0627V20.3568H74.1875V18.3172H75.7362V16.1864L78.4963 15.3945V18.3172H80.6564V20.3568H78.4963V24.8747C78.4963 25.2621 78.5706 25.5413 78.7249 25.7122C78.8792 25.8831 79.1078 25.9743 79.4221 25.9743C79.5821 25.9743 79.7364 25.9572 79.8849 25.9173C80.0335 25.8774 80.1707 25.8262 80.3021 25.7578L80.8564 27.6265L80.845 27.6208Z" fill="#231F20"/>
        <path d="M121.865 17.0402C121.385 17.0402 120.99 16.8921 120.682 16.6015C120.373 16.311 120.225 15.9463 120.225 15.5133C120.225 15.0804 120.379 14.6929 120.682 14.4138C120.985 14.1346 121.379 13.9922 121.865 13.9922C122.35 13.9922 122.739 14.1346 123.048 14.4138C123.356 14.6929 123.505 15.0633 123.505 15.5133C123.505 15.9634 123.35 16.3224 123.048 16.6072C122.745 16.8921 122.35 17.0345 121.865 17.0345V17.0402ZM123.219 27.7738H120.459V18.3107H123.219V27.7738Z" fill="#231F20"/>
        <path d="M131.784 27.6208C131.493 27.7461 131.173 27.843 130.819 27.9057C130.464 27.9683 130.104 28.0025 129.739 28.0025C128.727 28.0025 127.961 27.7575 127.447 27.2619C126.933 26.7662 126.676 26.037 126.676 25.0627V20.3568H125.127V18.3172H126.676V16.1864L129.436 15.3945V18.3172H131.596V20.3568H129.436V24.8747C129.436 25.2621 129.51 25.5413 129.664 25.7122C129.819 25.8831 130.047 25.9743 130.362 25.9743C130.522 25.9743 130.676 25.9572 130.824 25.9173C130.973 25.8774 131.11 25.8262 131.242 25.7578L131.796 27.6265L131.784 27.6208Z" fill="#231F20"/>
        <path d="M136.648 14.5332L134.928 18.5441H133.225L134.248 14.5332H136.648Z" fill="#231F20"/>
        <path d="M136.506 26.9827L137.654 25.1311C137.98 25.3761 138.357 25.5869 138.792 25.7578C139.226 25.9288 139.706 26.0142 140.243 26.0142C140.649 26.0142 140.975 25.9401 141.232 25.792C141.489 25.6439 141.615 25.4217 141.615 25.1197C141.615 24.8805 141.517 24.6868 141.317 24.5443C141.117 24.4019 140.752 24.2709 140.214 24.1512C139.037 23.9005 138.192 23.5473 137.683 23.0915C137.174 22.6357 136.911 22.0034 136.911 21.1944C136.911 20.2429 137.289 19.4852 138.049 18.9212C138.803 18.3571 139.734 18.0723 140.837 18.0723C141.403 18.0723 141.94 18.1463 142.455 18.2945C142.969 18.4426 143.443 18.6591 143.889 18.9496L142.849 20.7329C142.46 20.4936 142.1 20.317 141.769 20.203C141.437 20.0891 141.089 20.0378 140.735 20.0378C140.323 20.0378 139.997 20.1176 139.746 20.2714C139.494 20.4252 139.374 20.6303 139.374 20.8753C139.374 21.1431 139.489 21.3482 139.712 21.4735C139.934 21.5989 140.369 21.7356 141.009 21.8666C142.1 22.0945 142.889 22.442 143.363 22.9092C143.838 23.3764 144.083 24.0088 144.083 24.8178C144.083 25.7749 143.723 26.5441 142.997 27.1195C142.272 27.6949 141.317 27.9911 140.129 27.9911C139.472 27.9911 138.849 27.9057 138.254 27.7405C137.66 27.5752 137.077 27.3189 136.5 26.9713L136.506 26.9827Z" fill="#231F20"/>
        <path d="M151.277 27.7745V14.8418H155.929C157.352 14.8418 158.449 15.1153 159.215 15.6565C159.981 16.1977 160.369 16.9726 160.369 17.9696C160.369 18.6589 160.164 19.2685 159.752 19.787C159.341 20.3054 158.809 20.6701 158.158 20.8809V20.915C158.998 21.0233 159.666 21.3537 160.164 21.9007C160.661 22.4476 160.912 23.1256 160.912 23.9175C160.912 25.0968 160.489 26.0312 159.638 26.7262C158.786 27.4213 157.638 27.7688 156.192 27.7688H151.289L151.277 27.7745ZM154.1 16.9327V20.163H155.415C156.032 20.163 156.518 20.0149 156.872 19.7186C157.226 19.4224 157.403 19.0179 157.403 18.4937C157.403 17.9696 157.226 17.5822 156.866 17.3201C156.506 17.058 155.963 16.9327 155.232 16.9327H154.1ZM154.1 22.271V25.6779H155.712C156.409 25.6779 156.952 25.5184 157.341 25.1937C157.729 24.8689 157.918 24.4359 157.918 23.8833C157.918 23.3763 157.723 22.9831 157.341 22.6983C156.958 22.4134 156.409 22.271 155.712 22.271H154.1Z" fill="#5ACAED"/>
        <path d="M168.805 20.6114C168.685 20.5829 168.56 20.5602 168.434 20.5431C168.308 20.526 168.171 20.5203 168.017 20.5203C167.262 20.5203 166.697 20.7596 166.314 21.2381C165.931 21.7167 165.737 22.3776 165.737 23.2265V27.7729H162.971V18.3098H165.737V20.0759H165.771C165.994 19.4321 166.319 18.9478 166.737 18.6288C167.154 18.3098 167.674 18.1445 168.274 18.1445C168.417 18.1445 168.56 18.1559 168.697 18.173C168.834 18.1901 168.971 18.2129 169.12 18.2471L168.805 20.6114Z" fill="#5ACAED"/>
        <path d="M178.365 27.7729H175.731V26.3998H175.697C175.382 26.9297 174.988 27.3285 174.514 27.6019C174.039 27.8754 173.497 28.0064 172.896 28.0064C172.051 28.0064 171.342 27.7558 170.759 27.2487C170.182 26.7417 169.891 26.0466 169.891 25.1578C169.891 24.2691 170.176 23.5569 170.754 23.01C171.331 22.463 172.222 22.1098 173.434 21.9446L175.76 21.6312V21.4489C175.76 20.9647 175.611 20.5943 175.308 20.3494C175.005 20.1044 174.588 19.979 174.062 19.979C173.662 19.979 173.228 20.0474 172.759 20.1841C172.291 20.3209 171.816 20.5317 171.336 20.8279L170.359 19.1928C170.982 18.8168 171.611 18.532 172.245 18.3496C172.879 18.1673 173.571 18.0762 174.314 18.0762C175.691 18.0762 176.708 18.4066 177.371 19.0675C178.034 19.7284 178.365 20.7254 178.365 22.0528V27.7729ZM175.76 23.9215V23.255L173.959 23.4885C173.451 23.5569 173.074 23.6993 172.828 23.9272C172.582 24.1551 172.456 24.4571 172.456 24.8331C172.456 25.1806 172.576 25.4655 172.816 25.6877C173.057 25.9099 173.382 26.0238 173.794 26.0238C174.371 26.0238 174.845 25.8244 175.211 25.4313C175.577 25.0382 175.76 24.5311 175.76 23.9215Z" fill="#5ACAED"/>
        <path d="M182.257 17.0402C181.777 17.0402 181.383 16.8921 181.074 16.6015C180.766 16.311 180.617 15.9463 180.617 15.5133C180.617 15.0804 180.771 14.6929 181.074 14.4138C181.377 14.1346 181.772 13.9922 182.257 13.9922C182.743 13.9922 183.132 14.1346 183.44 14.4138C183.749 14.6929 183.897 15.0633 183.897 15.5133C183.897 15.9634 183.743 16.3224 183.44 16.6072C183.137 16.8921 182.743 17.0345 182.257 17.0345V17.0402ZM183.612 27.7738H180.851V18.3107H183.612V27.7738Z" fill="#5ACAED"/>
        <path d="M195.383 27.7747H192.623V22.499C192.623 21.7356 192.486 21.1602 192.211 20.7785C191.937 20.3967 191.526 20.203 190.977 20.203C190.428 20.203 190.005 20.4081 189.657 20.8183C189.308 21.2285 189.131 21.747 189.131 22.3794V27.7747H186.365V18.3115H189.131V19.8156H189.165C189.514 19.2345 189.943 18.7958 190.457 18.5053C190.971 18.2147 191.554 18.0723 192.228 18.0723C193.28 18.0723 194.069 18.397 194.594 19.0522C195.12 19.7074 195.389 20.6759 195.389 21.9692V27.769L195.383 27.7747Z" fill="#5ACAED"/>
        <path d="M203.601 28.0023C201.749 28.0023 200.241 27.3984 199.075 26.1962C197.909 24.9884 197.326 23.4217 197.326 21.4846C197.326 19.4393 197.92 17.7871 199.103 16.5223C200.286 15.2576 201.864 14.6309 203.824 14.6309C205.669 14.6309 207.161 15.2348 208.304 16.4426C209.447 17.6504 210.013 19.2456 210.013 21.2226C210.013 23.1995 209.424 24.903 208.241 26.145C207.058 27.387 205.515 28.008 203.607 28.008L203.601 28.0023ZM203.652 25.5582C204.698 25.5582 205.521 25.1935 206.121 24.4586C206.727 23.7236 207.024 22.6981 207.024 21.3821C207.024 20.066 206.732 18.9551 206.144 18.1973C205.555 17.4396 204.749 17.0636 203.727 17.0636C202.704 17.0636 201.852 17.451 201.229 18.2315C200.606 19.012 200.298 20.0432 200.298 21.3308C200.298 22.6184 200.606 23.6667 201.224 24.4244C201.841 25.1821 202.652 25.5582 203.652 25.5582Z" fill="#5ACAED"/>
    </g>
    <defs>
        <clipPath id="clip0_3031_3781">
            <rect width="210" height="42" fill="white"/>
        </clipPath>
    </defs>
</svg>
